{"glyphs":{"0":{"ha":519,"x_min":35,"x_max":484,"o":"m 258 10 l 258 10 q 183 10 133 -31 q 83 -73 59 -154 q 35 -236 35 -356 l 35 -356 q 35 -479 59 -561 q 82 -643 133 -683 q 183 -724 259 -724 l 259 -724 q 336 -724 386 -682 q 436 -641 460 -559 q 484 -477 484 -357 l 484 -357 q 484 -277 473 -210 q 462 -143 436 -94 q 410 -45 367 -17 q 323 10 258 10 z m 259 -135 l 259 -135 q 275 -135 286 -148 q 296 -162 302 -189 q 307 -216 309 -258 q 311 -300 311 -357 l 311 -357 q 311 -414 309 -456 q 307 -499 302 -526 q 296 -553 286 -566 q 275 -579 259 -579 l 259 -579 q 243 -579 233 -565 q 223 -551 218 -523 q 212 -496 210 -454 q 208 -412 208 -356 l 208 -356 q 208 -299 210 -257 q 211 -215 217 -188 q 223 -161 233 -148 q 243 -135 259 -135 z"},"1":{"ha":519,"x_min":35,"x_max":414,"o":"m 414 -714 l 414 0 l 239 0 l 239 -369 q 239 -405 240 -439 q 240 -474 241 -504 l 241 -504 q 232 -492 222 -480 q 212 -468 199 -455 l 199 -455 l 135 -390 l 35 -495 l 256 -714 l 414 -714 z"},"2":{"ha":519,"x_min":22,"x_max":481,"o":"m 481 0 l 22 0 l 22 -119 l 190 -323 q 229 -370 252 -402 q 274 -434 284 -459 q 294 -485 294 -512 l 294 -512 q 294 -534 286 -547 q 277 -560 263 -566 q 249 -572 231 -572 l 231 -572 q 198 -572 167 -557 q 136 -542 103 -516 l 103 -516 l 22 -638 q 55 -662 90 -681 q 125 -701 165 -712 q 204 -724 250 -724 l 250 -724 q 316 -724 365 -699 q 414 -675 442 -631 q 469 -587 469 -530 l 469 -530 q 469 -479 454 -436 q 439 -393 405 -345 q 370 -297 311 -229 l 311 -229 l 244 -152 l 244 -149 l 481 -149 l 481 0 z"},"3":{"ha":519,"x_min":30,"x_max":476,"o":"m 218 10 l 218 10 q 163 10 116 2 q 69 -6 31 -22 l 31 -22 l 31 -172 q 72 -154 112 -144 q 152 -135 196 -135 l 196 -135 q 248 -135 275 -154 q 301 -174 301 -216 l 301 -216 q 301 -243 288 -260 q 274 -278 245 -287 q 216 -296 169 -296 l 169 -296 l 124 -296 l 124 -435 l 171 -435 q 213 -435 240 -444 q 266 -454 279 -472 q 292 -490 292 -516 l 292 -516 q 292 -548 272 -563 q 252 -579 217 -579 l 217 -579 q 188 -579 160 -569 q 132 -560 103 -542 l 103 -542 l 30 -659 q 80 -691 131 -707 q 182 -724 244 -724 l 244 -724 q 311 -724 360 -703 q 409 -683 437 -643 q 464 -604 464 -544 l 464 -544 q 464 -505 447 -472 q 430 -439 401 -414 q 371 -390 331 -376 l 331 -376 l 331 -373 q 400 -359 438 -317 q 476 -275 476 -202 l 476 -202 q 476 -139 447 -91 q 418 -43 360 -16 q 302 10 218 10 z"},"4":{"ha":519,"x_min":17,"x_max":504,"o":"m 435 0 l 264 0 l 264 -138 l 17 -138 l 17 -273 l 268 -714 l 435 -714 l 435 -276 l 504 -276 l 504 -138 l 435 -138 l 435 0 z m 224 -390 l 161 -276 l 264 -276 l 264 -390 q 264 -408 265 -423 q 265 -438 266 -451 q 267 -464 267 -474 l 267 -474 l 263 -474 q 256 -454 247 -433 q 237 -412 224 -390 l 224 -390 z"},"5":{"ha":519,"x_min":46,"x_max":477,"o":"m 218 10 l 218 10 q 171 10 126 2 q 80 -7 46 -22 l 46 -22 l 46 -173 q 80 -156 116 -145 q 151 -135 198 -135 l 198 -135 q 234 -135 257 -146 q 280 -157 292 -178 q 303 -199 303 -232 l 303 -232 q 303 -277 278 -301 q 253 -326 204 -326 l 204 -326 q 181 -326 159 -322 q 136 -319 114 -311 l 114 -311 l 55 -354 l 80 -714 l 438 -714 l 438 -565 l 227 -565 l 218 -460 q 235 -463 249 -464 q 263 -465 282 -465 l 282 -465 q 340 -465 384 -438 q 428 -411 453 -361 q 477 -311 477 -241 l 477 -241 q 477 -159 449 -103 q 420 -48 363 -19 q 305 10 218 10 z"},"6":{"ha":519,"x_min":30,"x_max":491,"o":"m 268 10 l 268 10 q 214 10 171 -11 q 127 -32 96 -72 q 64 -112 47 -172 q 30 -233 30 -313 l 30 -313 q 30 -374 39 -433 q 47 -492 68 -544 q 88 -597 125 -637 q 161 -677 216 -700 q 271 -724 349 -724 l 349 -724 q 376 -724 401 -722 q 426 -720 452 -716 l 452 -716 l 452 -570 q 430 -575 408 -577 q 385 -579 361 -579 l 361 -579 q 304 -579 267 -559 q 229 -539 211 -498 q 193 -457 191 -393 l 191 -393 l 195 -393 q 208 -420 225 -438 q 242 -456 266 -466 q 290 -476 319 -476 l 319 -476 q 373 -476 412 -448 q 451 -421 471 -369 q 491 -317 491 -244 l 491 -244 q 491 -166 464 -108 q 437 -51 388 -20 q 338 10 268 10 z m 262 -135 l 262 -135 q 289 -135 305 -159 q 321 -183 321 -240 l 321 -240 q 321 -287 308 -311 q 294 -335 264 -335 l 264 -335 q 245 -335 231 -324 q 217 -313 210 -294 q 202 -276 202 -252 l 202 -252 q 202 -226 206 -204 q 210 -182 218 -166 q 226 -151 237 -143 q 248 -135 262 -135 z"},"7":{"ha":519,"x_min":28,"x_max":486,"o":"m 271 0 l 86 0 l 305 -565 l 28 -565 l 28 -714 l 486 -714 l 486 -600 l 271 0 z"},"8":{"ha":519,"x_min":28,"x_max":491,"o":"m 258 11 l 258 11 q 183 11 132 -13 q 80 -37 54 -81 q 28 -125 28 -188 l 28 -188 q 28 -228 40 -261 q 52 -294 78 -321 q 104 -348 144 -373 l 144 -373 q 114 -397 92 -424 q 70 -451 58 -482 q 46 -514 46 -551 l 46 -551 q 46 -606 73 -644 q 99 -683 148 -703 q 196 -724 260 -724 l 260 -724 q 326 -724 374 -703 q 421 -683 447 -644 q 472 -606 472 -550 l 472 -550 q 472 -510 460 -478 q 447 -446 423 -421 q 399 -396 365 -376 l 365 -376 q 406 -349 434 -321 q 461 -293 476 -261 q 491 -229 491 -190 l 491 -190 q 491 -128 464 -83 q 437 -38 385 -13 q 333 11 258 11 z m 258 -124 l 258 -124 q 291 -124 307 -141 q 322 -158 322 -188 l 322 -188 q 322 -204 318 -219 q 313 -235 302 -250 q 290 -266 268 -283 l 268 -283 l 256 -292 q 235 -276 222 -260 q 208 -245 202 -228 q 196 -211 196 -192 l 196 -192 q 196 -160 212 -142 q 227 -124 258 -124 z m 259 -457 l 259 -457 q 274 -469 285 -481 q 295 -494 301 -508 q 306 -522 306 -539 l 306 -539 q 306 -563 294 -576 q 281 -590 260 -590 l 260 -590 q 238 -590 226 -576 q 213 -562 213 -539 l 213 -539 q 213 -522 219 -508 q 224 -494 235 -481 q 245 -469 259 -457 z"},"9":{"ha":519,"x_min":28,"x_max":488,"o":"m 169 10 l 169 10 q 142 10 117 8 q 91 5 66 1 l 66 1 l 66 -145 q 87 -140 111 -137 q 134 -135 157 -135 l 157 -135 q 200 -135 232 -146 q 263 -158 284 -180 q 305 -203 317 -238 q 328 -273 329 -321 l 329 -321 l 324 -321 q 313 -294 295 -275 q 277 -257 253 -247 q 228 -238 199 -238 l 199 -238 q 145 -238 107 -265 q 68 -293 48 -345 q 28 -397 28 -470 l 28 -470 q 28 -549 55 -606 q 81 -663 131 -693 q 180 -724 249 -724 l 249 -724 q 303 -724 347 -703 q 391 -683 423 -642 q 454 -601 471 -540 q 488 -480 488 -399 l 488 -399 q 488 -338 479 -277 q 470 -217 449 -165 q 427 -114 390 -74 q 353 -35 299 -12 q 244 10 169 10 z m 255 -379 l 255 -379 q 278 -379 291 -392 q 304 -406 311 -425 q 317 -445 317 -463 l 317 -463 q 317 -478 315 -497 q 312 -517 306 -536 q 299 -555 287 -567 q 275 -579 256 -579 l 256 -579 q 230 -579 214 -555 q 198 -531 198 -475 l 198 -475 q 198 -427 213 -403 q 227 -379 255 -379 z"},"\r":{"ha":247,"x_min":0,"x_max":0,"o":""}," ":{"ha":247,"x_min":0,"x_max":0,"o":""},"ഀ":{"ha":0,"x_min":-440,"x_max":-117,"o":"m -440 -708 l -440 -708 q -440 -776 -398 -820 q -357 -864 -279 -864 l -279 -864 q -200 -864 -158 -820 q -117 -776 -117 -708 l -117 -708 q -117 -641 -157 -596 q -198 -552 -279 -552 l -279 -552 q -358 -552 -399 -596 q -440 -640 -440 -708 z m -325 -708 l -325 -708 q -325 -682 -314 -665 q -304 -649 -279 -649 l -279 -649 q -253 -649 -242 -666 q -231 -683 -231 -708 l -231 -708 q -231 -734 -242 -750 q -254 -767 -279 -767 l -279 -767 q -304 -767 -314 -750 q -325 -734 -325 -708 z"},"ഁ":{"ha":0,"x_min":-467,"x_max":-90,"o":"m -278 -631 l -278 -631 q -377 -631 -422 -677 q -467 -724 -467 -799 l -467 -799 q -467 -818 -464 -835 q -462 -852 -459 -864 l -459 -864 l -361 -850 q -363 -840 -364 -829 q -366 -819 -366 -809 l -366 -809 q -366 -778 -355 -759 q -345 -741 -325 -732 q -305 -724 -278 -724 l -278 -724 q -255 -724 -235 -732 q -215 -740 -203 -759 q -191 -778 -191 -811 l -191 -811 q -191 -817 -192 -828 q -193 -840 -195 -850 l -195 -850 l -98 -863 q -95 -851 -92 -835 q -90 -819 -90 -800 l -90 -800 q -90 -721 -134 -676 q -179 -631 -278 -631 z m -279 -748 l -279 -748 q -308 -748 -322 -764 q -336 -780 -336 -806 l -336 -806 q -336 -830 -323 -846 q -310 -863 -279 -863 l -279 -863 q -247 -863 -234 -846 q -221 -830 -221 -805 l -221 -805 q -221 -780 -235 -764 q -249 -748 -279 -748 z"},"ം":{"ha":467,"x_min":28,"x_max":439,"o":"m 234 12 l 234 12 q 165 12 119 -13 q 73 -38 51 -82 q 28 -127 28 -185 l 28 -185 q 28 -244 52 -288 q 75 -333 121 -357 q 166 -382 232 -382 l 232 -382 q 301 -382 347 -357 q 393 -333 416 -289 q 439 -245 439 -185 l 439 -185 q 439 -126 417 -82 q 395 -38 349 -13 q 303 12 234 12 z m 233 -262 l 233 -262 q 211 -262 196 -244 q 181 -227 181 -184 l 181 -184 q 181 -144 195 -126 q 209 -108 234 -108 l 234 -108 q 256 -108 271 -125 q 286 -142 286 -185 l 286 -185 q 286 -227 272 -244 q 257 -262 233 -262 z"},"ഃ":{"ha":340,"x_min":26,"x_max":314,"o":"m 26 -439 l 26 -439 q 26 -501 63 -541 q 100 -581 170 -581 l 170 -581 q 240 -581 277 -541 q 314 -501 314 -439 l 314 -439 q 314 -378 278 -337 q 241 -297 170 -297 l 170 -297 q 98 -297 62 -337 q 26 -377 26 -439 z m 133 -439 l 133 -439 q 133 -416 142 -403 q 151 -390 170 -390 l 170 -390 q 188 -390 198 -403 q 207 -416 207 -439 l 207 -439 q 207 -463 198 -475 q 188 -488 170 -488 l 170 -488 q 152 -488 143 -475 q 133 -463 133 -439 z m 26 -130 l 26 -130 q 26 -191 63 -231 q 100 -272 170 -272 l 170 -272 q 238 -272 276 -231 q 314 -191 314 -130 l 314 -130 q 314 -69 278 -28 q 241 12 170 12 l 170 12 q 98 12 62 -28 q 26 -68 26 -130 z m 133 -130 l 133 -130 q 133 -106 142 -93 q 151 -81 170 -81 l 170 -81 q 188 -81 198 -93 q 207 -106 207 -130 l 207 -130 q 207 -154 198 -166 q 188 -179 170 -179 l 170 -179 q 152 -179 143 -166 q 133 -154 133 -130 z"},"ഄ":{"ha":605,"x_min":31,"x_max":574,"o":"m 51 -353 l 51 -353 l 203 -326 q 196 -303 193 -279 q 190 -255 190 -235 l 190 -235 q 190 -172 219 -143 q 247 -114 302 -114 l 302 -114 q 358 -114 387 -142 q 415 -171 415 -234 l 415 -234 q 415 -253 412 -278 q 409 -303 402 -326 l 402 -326 l 554 -353 q 562 -329 568 -296 q 574 -263 574 -231 l 574 -231 q 574 -158 549 -104 q 524 -50 465 -20 q 405 9 302 9 l 302 9 q 200 9 141 -20 q 81 -50 56 -104 q 31 -158 31 -231 l 31 -231 q 31 -264 37 -296 q 43 -329 51 -353 z m 241 -195 l 241 -427 l 364 -427 l 364 -195 l 241 -195 z"},"അ":{"ha":1464,"x_min":33,"x_max":1434,"o":"m 361 -581 l 361 -581 q 408 -581 452 -575 q 495 -569 537 -551 l 537 -551 q 551 -547 558 -536 q 565 -525 579 -520 l 579 -520 q 612 -508 645 -489 q 678 -471 701 -442 q 723 -413 723 -370 l 723 -370 q 723 -344 714 -322 q 705 -301 686 -284 q 667 -268 636 -256 l 636 -256 l 634 -271 q 682 -257 709 -222 q 735 -187 735 -138 l 735 -138 q 735 -100 716 -65 q 697 -31 652 -9 q 607 12 528 12 l 528 12 q 437 12 384 -20 q 330 -53 307 -109 q 283 -166 283 -240 l 283 -240 q 283 -303 302 -353 q 320 -403 353 -441 q 385 -480 427 -507 l 427 -507 q 439 -514 447 -524 q 455 -535 466 -540 l 466 -540 q 507 -560 553 -570 q 599 -581 649 -581 l 649 -581 q 708 -581 751 -569 q 794 -558 827 -535 q 860 -513 888 -480 l 888 -480 l 956 -218 l 956 0 l 790 0 l 790 -276 q 790 -336 780 -375 q 770 -414 743 -437 l 743 -437 q 727 -450 703 -457 q 679 -465 647 -465 l 647 -465 q 630 -465 612 -462 q 594 -459 577 -454 l 577 -454 q 552 -447 527 -430 q 502 -413 483 -386 q 463 -359 452 -322 q 440 -286 440 -240 l 440 -240 q 440 -166 462 -137 q 483 -109 519 -109 l 519 -109 q 545 -109 559 -119 q 572 -130 572 -152 l 572 -152 q 572 -172 559 -185 q 546 -199 513 -199 l 513 -199 l 493 -199 l 493 -320 l 505 -320 q 536 -320 550 -333 q 563 -347 563 -370 l 563 -370 q 563 -400 540 -420 q 517 -441 474 -447 l 474 -447 q 449 -457 425 -460 q 400 -464 376 -464 l 376 -464 q 313 -464 275 -441 q 237 -418 220 -379 q 202 -340 202 -288 l 202 -288 q 202 -246 212 -207 q 222 -169 240 -132 q 258 -95 281 -57 l 281 -57 l 152 12 q 118 -27 91 -72 q 64 -118 49 -172 q 33 -227 33 -295 l 33 -295 q 33 -340 48 -390 q 62 -440 99 -483 q 135 -527 199 -554 q 263 -581 361 -581 z m 1214 12 l 1214 12 q 1141 12 1097 -17 q 1052 -46 1032 -95 q 1012 -144 1012 -204 l 1012 -204 q 1012 -303 1057 -355 q 1102 -408 1185 -408 l 1185 -408 q 1236 -408 1272 -379 q 1308 -351 1331 -307 q 1354 -263 1360 -217 l 1360 -217 l 1296 -212 q 1292 -237 1283 -256 q 1274 -275 1260 -286 q 1246 -297 1226 -297 l 1226 -297 q 1200 -297 1187 -276 q 1173 -255 1173 -202 l 1173 -202 q 1173 -168 1179 -148 q 1185 -128 1195 -119 q 1205 -110 1218 -110 l 1218 -110 q 1236 -110 1248 -120 q 1259 -131 1265 -158 q 1270 -186 1270 -234 l 1270 -234 q 1270 -255 1269 -272 q 1268 -290 1266 -305 l 1266 -305 q 1266 -309 1266 -318 q 1266 -327 1265 -331 l 1265 -331 q 1261 -364 1239 -392 q 1217 -420 1181 -437 q 1145 -455 1098 -455 l 1098 -455 q 1065 -455 1043 -448 q 1020 -442 1004 -430 l 1004 -430 q 985 -416 975 -395 q 964 -374 960 -345 q 956 -316 956 -277 l 956 -277 l 956 -159 l 826 -443 q 858 -488 896 -518 q 933 -549 982 -565 q 1031 -581 1096 -581 l 1096 -581 q 1182 -581 1246 -553 q 1309 -526 1351 -478 q 1393 -430 1414 -368 q 1434 -306 1434 -237 l 1434 -237 q 1434 -153 1409 -97 q 1384 -42 1336 -15 q 1287 12 1214 12 z"},"ആ":{"ha":1616,"x_min":33,"x_max":1596,"o":"m 361 -581 l 361 -581 q 408 -581 452 -575 q 495 -569 537 -551 l 537 -551 q 551 -547 558 -536 q 565 -525 579 -520 l 579 -520 q 612 -508 645 -489 q 678 -471 701 -442 q 723 -413 723 -370 l 723 -370 q 723 -344 714 -322 q 705 -301 686 -284 q 667 -268 636 -256 l 636 -256 l 634 -271 q 682 -257 709 -222 q 735 -187 735 -138 l 735 -138 q 735 -100 716 -65 q 697 -31 652 -9 q 607 12 528 12 l 528 12 q 437 12 384 -20 q 330 -53 307 -109 q 283 -166 283 -240 l 283 -240 q 283 -303 302 -353 q 320 -403 353 -441 q 385 -480 427 -507 l 427 -507 q 439 -514 447 -524 q 455 -535 466 -540 l 466 -540 q 507 -560 553 -570 q 599 -581 649 -581 l 649 -581 q 708 -581 751 -569 q 794 -558 827 -535 q 860 -513 888 -480 l 888 -480 l 956 -228 l 956 0 l 790 0 l 790 -276 q 790 -336 780 -375 q 770 -414 743 -437 l 743 -437 q 727 -450 703 -457 q 679 -465 647 -465 l 647 -465 q 630 -465 612 -462 q 594 -459 577 -454 l 577 -454 q 552 -447 527 -430 q 502 -413 483 -386 q 463 -359 452 -322 q 440 -286 440 -240 l 440 -240 q 440 -166 462 -137 q 483 -109 519 -109 l 519 -109 q 545 -109 559 -119 q 572 -130 572 -152 l 572 -152 q 572 -172 559 -185 q 546 -199 513 -199 l 513 -199 l 493 -199 l 493 -320 l 505 -320 q 536 -320 550 -333 q 563 -347 563 -370 l 563 -370 q 563 -400 540 -420 q 517 -441 474 -447 l 474 -447 q 449 -457 425 -460 q 400 -464 376 -464 l 376 -464 q 313 -464 275 -441 q 237 -418 220 -379 q 202 -340 202 -288 l 202 -288 q 202 -246 212 -207 q 222 -169 240 -132 q 258 -95 281 -57 l 281 -57 l 152 12 q 118 -27 91 -72 q 64 -118 49 -172 q 33 -227 33 -295 l 33 -295 q 33 -340 48 -390 q 62 -440 99 -483 q 135 -527 199 -554 q 263 -581 361 -581 z m 1091 -581 l 1091 -581 q 1181 -581 1246 -550 q 1310 -519 1350 -463 q 1389 -408 1405 -332 l 1405 -332 q 1408 -309 1410 -284 q 1412 -260 1412 -235 l 1412 -235 q 1412 -153 1390 -98 q 1367 -43 1321 -15 q 1275 12 1203 12 l 1203 12 q 1138 12 1094 -13 q 1049 -38 1026 -83 q 1003 -128 1003 -189 l 1003 -189 q 1003 -296 1075 -353 q 1146 -410 1272 -410 l 1272 -410 q 1285 -410 1297 -409 q 1309 -408 1320 -407 l 1320 -407 l 1356 -405 q 1427 -392 1481 -353 q 1534 -314 1565 -251 q 1596 -189 1596 -102 l 1596 -102 q 1596 -45 1582 10 q 1568 64 1534 107 q 1499 150 1439 176 q 1378 201 1285 201 l 1285 201 q 1247 201 1213 195 q 1178 189 1144 178 l 1144 178 l 1187 60 q 1214 68 1237 71 q 1260 74 1283 74 l 1283 74 q 1334 74 1365 57 q 1396 40 1412 12 q 1427 -16 1433 -47 q 1438 -78 1438 -105 l 1438 -105 q 1438 -152 1431 -186 q 1424 -221 1408 -245 q 1391 -269 1362 -283 l 1362 -283 l 1317 -290 q 1306 -293 1295 -293 q 1283 -294 1270 -294 l 1270 -294 q 1229 -294 1206 -279 q 1183 -264 1174 -240 q 1164 -216 1164 -187 l 1164 -187 q 1164 -160 1169 -143 q 1174 -127 1184 -119 q 1194 -112 1207 -112 l 1207 -112 q 1231 -112 1245 -136 q 1258 -160 1258 -232 l 1258 -232 q 1258 -261 1255 -286 q 1252 -311 1246 -332 l 1246 -332 l 1233 -371 q 1219 -399 1198 -417 q 1177 -436 1151 -445 q 1124 -455 1091 -455 l 1091 -455 q 1063 -455 1042 -448 q 1020 -442 1003 -430 l 1003 -430 q 985 -416 975 -395 q 964 -375 960 -345 q 956 -316 956 -277 l 956 -277 l 956 -212 l 826 -443 q 858 -488 895 -518 q 932 -549 980 -565 q 1028 -581 1091 -581 z"},"ഇ":{"ha":944,"x_min":30,"x_max":911,"o":"m 317 -581 l 317 -581 q 381 -581 424 -568 q 467 -555 496 -534 q 524 -513 547 -488 l 547 -488 l 495 -498 q 531 -541 577 -561 q 622 -581 682 -581 l 682 -581 q 742 -581 785 -560 q 828 -540 856 -503 q 883 -466 897 -418 q 911 -371 911 -316 l 911 -316 q 911 -226 890 -165 q 868 -104 819 -65 l 819 -65 q 791 -42 754 -28 q 717 -14 665 -7 q 612 0 534 0 l 534 0 l 294 0 q 260 0 245 2 q 229 4 220 9 l 220 9 q 210 13 205 21 q 200 28 200 39 l 200 39 q 200 49 205 57 q 209 64 217 69 l 217 69 q 226 75 243 78 q 259 81 295 81 l 295 81 l 893 81 l 893 206 l 298 206 q 225 206 184 200 q 142 193 111 176 l 111 176 q 76 158 55 126 q 33 93 33 44 l 33 44 q 33 1 49 -30 q 65 -61 93 -81 l 93 -81 q 116 -97 144 -106 q 171 -115 208 -119 q 245 -123 299 -123 l 299 -123 l 516 -123 q 565 -123 599 -127 q 632 -131 655 -139 q 677 -148 693 -162 l 693 -162 q 721 -185 732 -222 q 742 -260 742 -313 l 742 -313 q 742 -355 733 -387 q 724 -420 707 -438 q 689 -456 663 -456 l 663 -456 q 650 -456 641 -452 q 632 -449 625 -443 l 625 -443 q 614 -432 609 -409 q 603 -387 603 -343 l 603 -343 l 603 -156 l 438 -156 l 438 -296 q 438 -352 430 -384 q 422 -416 402 -433 l 402 -433 q 389 -445 369 -452 q 348 -460 316 -460 l 316 -460 q 292 -460 272 -456 q 251 -452 232 -445 q 213 -438 199 -426 q 184 -415 175 -400 l 175 -400 q 171 -388 170 -377 q 169 -366 168 -355 l 168 -355 q 167 -347 166 -334 q 165 -321 165 -307 l 165 -307 q 165 -273 176 -258 q 186 -243 203 -243 l 203 -243 q 221 -243 230 -256 q 239 -269 239 -290 l 239 -290 q 239 -306 235 -316 q 230 -326 221 -330 q 212 -335 201 -335 l 201 -335 q 186 -335 171 -328 q 156 -321 136 -305 l 136 -305 l 87 -351 q 106 -371 130 -388 q 154 -406 183 -417 q 211 -428 243 -428 l 243 -428 q 291 -428 323 -410 q 355 -393 372 -361 q 388 -330 388 -286 l 388 -286 q 388 -246 373 -211 q 357 -176 319 -154 q 280 -133 211 -133 l 211 -133 q 158 -133 117 -154 q 75 -176 53 -219 q 30 -263 30 -330 l 30 -330 q 30 -399 62 -456 q 94 -513 158 -547 q 222 -581 317 -581 z"},"ഈ":{"ha":1683,"x_min":30,"x_max":1651,"o":"m 317 -581 l 317 -581 q 381 -581 424 -568 q 467 -555 496 -534 q 524 -513 547 -488 l 547 -488 l 495 -498 q 531 -541 577 -561 q 622 -581 682 -581 l 682 -581 q 742 -581 785 -560 q 828 -540 856 -503 q 883 -466 897 -418 q 911 -371 911 -316 l 911 -316 q 911 -226 890 -165 q 868 -104 819 -65 l 819 -65 q 791 -42 754 -28 q 717 -14 665 -7 q 612 0 534 0 l 534 0 l 294 0 q 260 0 245 2 q 229 4 220 9 l 220 9 q 210 13 205 21 q 200 28 200 39 l 200 39 q 200 49 205 57 q 209 64 217 69 l 217 69 q 226 75 243 78 q 259 81 295 81 l 295 81 l 893 81 l 893 206 l 298 206 q 225 206 184 200 q 142 193 111 176 l 111 176 q 76 158 55 126 q 33 93 33 44 l 33 44 q 33 1 49 -30 q 65 -61 93 -81 l 93 -81 q 116 -97 144 -106 q 171 -115 208 -119 q 245 -123 299 -123 l 299 -123 l 516 -123 q 565 -123 599 -127 q 632 -131 655 -139 q 677 -148 693 -162 l 693 -162 q 721 -185 732 -222 q 742 -260 742 -313 l 742 -313 q 742 -355 733 -387 q 724 -420 707 -438 q 689 -456 663 -456 l 663 -456 q 650 -456 641 -452 q 632 -449 625 -443 l 625 -443 q 614 -432 609 -409 q 603 -387 603 -343 l 603 -343 l 603 -156 l 438 -156 l 438 -296 q 438 -352 430 -384 q 422 -416 402 -433 l 402 -433 q 389 -445 369 -452 q 348 -460 316 -460 l 316 -460 q 292 -460 272 -456 q 251 -452 232 -445 q 213 -438 199 -426 q 184 -415 175 -400 l 175 -400 q 171 -388 170 -377 q 169 -366 168 -355 l 168 -355 q 167 -347 166 -334 q 165 -321 165 -307 l 165 -307 q 165 -273 176 -258 q 186 -243 203 -243 l 203 -243 q 221 -243 230 -256 q 239 -269 239 -290 l 239 -290 q 239 -306 235 -316 q 230 -326 221 -330 q 212 -335 201 -335 l 201 -335 q 186 -335 171 -328 q 156 -321 136 -305 l 136 -305 l 87 -351 q 106 -371 130 -388 q 154 -406 183 -417 q 211 -428 243 -428 l 243 -428 q 291 -428 323 -410 q 355 -393 372 -361 q 388 -330 388 -286 l 388 -286 q 388 -246 373 -211 q 357 -176 319 -154 q 280 -133 211 -133 l 211 -133 q 158 -133 117 -154 q 75 -176 53 -219 q 30 -263 30 -330 l 30 -330 q 30 -399 62 -456 q 94 -513 158 -547 q 222 -581 317 -581 z m 1437 -581 l 1437 -581 q 1504 -581 1552 -549 q 1600 -517 1626 -456 q 1651 -396 1651 -311 l 1651 -311 q 1651 -208 1621 -135 q 1591 -63 1528 -25 q 1464 12 1365 12 l 1365 12 q 1293 12 1243 0 q 1193 -12 1142 -35 l 1142 -35 l 1204 -147 q 1240 -130 1275 -122 q 1309 -114 1346 -114 l 1346 -114 q 1396 -114 1426 -135 q 1456 -156 1469 -200 q 1482 -244 1482 -312 l 1482 -312 q 1482 -390 1465 -423 q 1448 -457 1424 -457 l 1424 -457 q 1416 -457 1411 -454 q 1405 -452 1400 -447 l 1400 -447 q 1393 -438 1391 -423 q 1388 -408 1388 -376 l 1388 -376 l 1388 -271 l 1223 -271 l 1223 -361 q 1223 -392 1221 -412 q 1218 -433 1210 -443 l 1210 -443 q 1205 -451 1198 -454 q 1191 -457 1182 -457 l 1182 -457 q 1164 -457 1151 -438 q 1137 -420 1137 -380 l 1137 -380 q 1137 -356 1141 -332 q 1144 -309 1150 -289 l 1150 -289 l 990 -256 q 981 -286 976 -320 q 970 -354 970 -387 l 970 -387 q 970 -438 991 -482 q 1012 -526 1056 -553 q 1099 -581 1169 -581 l 1169 -581 q 1221 -581 1256 -564 q 1290 -547 1318 -515 l 1318 -515 l 1290 -514 q 1320 -550 1354 -565 q 1388 -581 1437 -581 z"},"ഉ":{"ha":678,"x_min":30,"x_max":646,"o":"m 336 -581 l 336 -581 q 416 -581 475 -559 q 533 -537 571 -498 q 609 -460 628 -409 q 646 -358 646 -299 l 646 -299 q 646 -220 624 -162 q 602 -105 559 -68 l 559 -68 q 530 -44 492 -29 q 453 -14 404 -7 q 354 0 290 0 l 290 0 l 275 0 q 255 0 242 2 q 229 3 220 8 l 220 8 q 210 13 205 21 q 200 28 200 39 l 200 39 q 200 49 205 57 q 209 64 217 69 l 217 69 q 226 75 243 78 q 259 81 295 81 l 295 81 l 629 81 l 629 206 l 298 206 q 225 206 184 200 q 142 193 111 176 l 111 176 q 76 158 55 126 q 33 93 33 44 l 33 44 q 33 0 49 -31 q 65 -63 93 -82 l 93 -82 q 128 -107 171 -115 q 214 -123 268 -123 l 268 -123 l 276 -123 q 322 -123 352 -128 q 381 -133 401 -142 q 420 -152 435 -166 l 435 -166 q 459 -191 468 -225 q 476 -259 476 -295 l 476 -295 q 476 -335 466 -365 q 455 -396 436 -416 q 416 -437 388 -447 q 360 -458 325 -458 l 325 -458 q 297 -458 274 -454 q 250 -450 231 -442 q 212 -435 198 -424 q 183 -413 173 -399 l 173 -399 q 168 -388 169 -377 q 169 -366 168 -355 l 168 -355 q 167 -347 166 -334 q 165 -321 165 -307 l 165 -307 q 165 -273 176 -258 q 186 -243 203 -243 l 203 -243 q 221 -243 230 -256 q 239 -269 239 -290 l 239 -290 q 239 -306 235 -316 q 230 -326 221 -330 q 212 -335 201 -335 l 201 -335 q 186 -335 170 -328 q 153 -321 134 -305 l 134 -305 l 87 -351 q 106 -371 130 -388 q 154 -406 183 -417 q 211 -428 243 -428 l 243 -428 q 291 -428 323 -410 q 355 -393 372 -361 q 388 -330 388 -286 l 388 -286 q 388 -246 373 -211 q 357 -176 319 -154 q 280 -133 211 -133 l 211 -133 q 158 -133 117 -154 q 75 -175 53 -218 q 30 -261 30 -326 l 30 -326 q 30 -378 49 -424 q 67 -470 106 -505 q 144 -541 202 -561 q 259 -581 336 -581 z"},"ഊ":{"ha":1417,"x_min":30,"x_max":1384,"o":"m 336 -581 l 336 -581 q 416 -581 475 -559 q 533 -537 571 -498 q 609 -460 628 -409 q 646 -358 646 -299 l 646 -299 q 646 -220 624 -162 q 602 -105 559 -68 l 559 -68 q 530 -44 492 -29 q 453 -14 404 -7 q 354 0 290 0 l 290 0 l 275 0 q 255 0 242 2 q 229 3 220 8 l 220 8 q 210 13 205 21 q 200 28 200 39 l 200 39 q 200 49 205 57 q 209 64 217 69 l 217 69 q 226 75 243 78 q 259 81 295 81 l 295 81 l 629 81 l 629 206 l 298 206 q 225 206 184 200 q 142 193 111 176 l 111 176 q 76 158 55 126 q 33 93 33 44 l 33 44 q 33 0 49 -31 q 65 -63 93 -82 l 93 -82 q 128 -107 171 -115 q 214 -123 268 -123 l 268 -123 l 276 -123 q 322 -123 352 -128 q 381 -133 401 -142 q 420 -152 435 -166 l 435 -166 q 459 -191 468 -225 q 476 -259 476 -295 l 476 -295 q 476 -335 466 -365 q 455 -396 436 -416 q 416 -437 388 -447 q 360 -458 325 -458 l 325 -458 q 297 -458 274 -454 q 250 -450 231 -442 q 212 -435 198 -424 q 183 -413 173 -399 l 173 -399 q 168 -388 169 -377 q 169 -366 168 -355 l 168 -355 q 167 -347 166 -334 q 165 -321 165 -307 l 165 -307 q 165 -273 176 -258 q 186 -243 203 -243 l 203 -243 q 221 -243 230 -256 q 239 -269 239 -290 l 239 -290 q 239 -306 235 -316 q 230 -326 221 -330 q 212 -335 201 -335 l 201 -335 q 186 -335 170 -328 q 153 -321 134 -305 l 134 -305 l 87 -351 q 106 -371 130 -388 q 154 -406 183 -417 q 211 -428 243 -428 l 243 -428 q 291 -428 323 -410 q 355 -393 372 -361 q 388 -330 388 -286 l 388 -286 q 388 -246 373 -211 q 357 -176 319 -154 q 280 -133 211 -133 l 211 -133 q 158 -133 117 -154 q 75 -175 53 -218 q 30 -261 30 -326 l 30 -326 q 30 -378 49 -424 q 67 -470 106 -505 q 144 -541 202 -561 q 259 -581 336 -581 z m 1170 -581 l 1170 -581 q 1237 -581 1285 -549 q 1333 -517 1359 -456 q 1384 -396 1384 -311 l 1384 -311 q 1384 -208 1354 -135 q 1324 -63 1261 -25 q 1197 12 1098 12 l 1098 12 q 1026 12 976 0 q 926 -12 875 -35 l 875 -35 l 937 -147 q 973 -130 1008 -122 q 1042 -114 1079 -114 l 1079 -114 q 1129 -114 1159 -135 q 1189 -156 1202 -200 q 1215 -244 1215 -312 l 1215 -312 q 1215 -390 1198 -423 q 1181 -457 1157 -457 l 1157 -457 q 1149 -457 1144 -454 q 1138 -452 1133 -447 l 1133 -447 q 1126 -438 1124 -423 q 1121 -408 1121 -376 l 1121 -376 l 1121 -271 l 956 -271 l 956 -361 q 956 -392 954 -412 q 951 -433 943 -443 l 943 -443 q 938 -451 931 -454 q 924 -457 915 -457 l 915 -457 q 897 -457 884 -438 q 870 -420 870 -380 l 870 -380 q 870 -356 874 -332 q 877 -309 883 -289 l 883 -289 l 723 -256 q 714 -286 709 -320 q 703 -354 703 -387 l 703 -387 q 703 -438 724 -482 q 745 -526 789 -553 q 832 -581 902 -581 l 902 -581 q 954 -581 989 -564 q 1023 -547 1051 -515 l 1051 -515 l 1023 -514 q 1053 -550 1087 -565 q 1121 -581 1170 -581 z"},"ഋ":{"ha":903,"x_min":28,"x_max":875,"o":"m 666 -581 l 666 -581 q 764 -581 820 -518 q 875 -455 875 -350 l 875 -350 q 875 -281 856 -233 q 836 -185 801 -152 l 801 -152 q 753 -105 688 -85 q 622 -65 530 -65 l 530 -65 l 376 -65 q 313 -65 263 -73 q 212 -82 173 -101 q 133 -120 102 -152 l 102 -152 q 67 -187 48 -235 q 28 -284 28 -354 l 28 -354 q 28 -420 53 -471 q 78 -522 127 -551 q 175 -581 244 -581 l 244 -581 q 304 -581 348 -557 q 391 -534 414 -493 q 437 -452 437 -400 l 437 -400 q 437 -335 415 -296 q 392 -257 352 -240 q 312 -223 258 -223 l 258 -223 q 226 -223 192 -238 q 158 -254 130 -278 q 101 -303 80 -329 l 80 -329 l 124 -418 q 144 -389 160 -370 q 176 -352 192 -342 q 208 -333 227 -333 l 227 -333 q 249 -333 263 -348 q 277 -363 277 -405 l 277 -405 q 277 -435 266 -450 q 255 -465 237 -465 l 237 -465 q 221 -465 208 -454 q 194 -444 187 -421 q 180 -398 180 -358 l 180 -358 q 180 -341 182 -326 q 183 -312 185 -299 l 185 -299 l 190 -263 q 204 -234 229 -216 q 254 -198 288 -188 q 321 -178 361 -174 q 400 -171 444 -171 l 444 -171 l 458 -171 q 502 -171 542 -174 q 581 -178 615 -188 q 648 -198 674 -216 q 699 -234 713 -263 l 713 -263 l 717 -298 q 720 -312 722 -326 q 723 -341 723 -358 l 723 -358 q 723 -398 716 -421 q 709 -444 697 -454 q 684 -465 669 -465 l 669 -465 q 649 -465 638 -449 q 626 -433 626 -400 l 626 -400 q 626 -362 640 -347 q 653 -333 673 -333 l 673 -333 q 694 -333 710 -341 q 726 -350 742 -369 q 758 -388 778 -418 l 778 -418 l 822 -329 q 803 -303 774 -278 q 745 -254 711 -238 q 677 -223 640 -223 l 640 -223 q 589 -223 550 -240 q 510 -257 488 -294 q 466 -332 466 -394 l 466 -394 q 466 -452 491 -494 q 516 -536 561 -558 q 605 -581 666 -581 z m 455 261 l 455 261 q 339 261 258 242 q 177 222 135 178 q 92 133 92 59 l 92 59 q 92 6 119 -29 q 145 -65 189 -86 q 232 -108 285 -117 q 337 -127 389 -127 l 389 -127 l 513 -127 q 565 -127 618 -117 q 670 -108 714 -86 q 758 -65 785 -29 q 811 6 811 59 l 811 59 q 811 133 769 178 q 726 222 647 242 q 567 261 455 261 z m 452 133 l 452 133 q 514 133 556 124 q 597 115 619 95 q 640 74 640 42 l 640 42 q 640 16 627 -1 q 613 -18 588 -28 q 563 -39 530 -43 q 496 -47 457 -47 l 457 -47 l 446 -47 q 393 -47 352 -39 q 310 -32 286 -12 q 262 7 262 42 l 262 42 q 262 74 284 95 q 305 115 348 124 q 390 133 452 133 z"},"ഌ":{"ha":1154,"x_min":32,"x_max":1124,"o":"m 360 -581 l 360 -581 q 438 -581 492 -558 q 546 -536 591 -481 l 591 -481 l 619 -383 l 646 -248 l 646 0 l 479 0 l 479 -292 q 479 -353 472 -384 q 464 -415 443 -432 l 443 -432 q 429 -444 409 -450 q 388 -457 358 -457 l 358 -457 q 312 -457 272 -434 q 231 -411 206 -363 q 181 -316 181 -241 l 181 -241 l 181 -236 q 181 -181 188 -153 q 195 -125 208 -116 q 220 -107 233 -107 l 233 -107 q 245 -107 254 -113 q 262 -119 267 -133 q 271 -148 271 -173 l 271 -173 q 271 -211 260 -226 q 248 -242 228 -242 l 228 -242 q 204 -242 184 -224 q 163 -206 130 -162 l 130 -162 l 105 -277 q 139 -311 181 -334 q 222 -357 274 -357 l 274 -357 q 327 -357 362 -334 q 397 -312 414 -273 q 431 -234 431 -183 l 431 -183 q 431 -121 410 -77 q 388 -33 345 -10 q 302 12 237 12 l 237 12 q 179 12 133 -13 q 86 -39 59 -95 q 32 -152 32 -245 l 32 -245 q 32 -356 75 -430 q 118 -505 192 -543 q 266 -581 360 -581 z m 904 12 l 904 12 q 831 12 787 -17 q 742 -46 722 -95 q 702 -144 702 -204 l 702 -204 q 702 -303 747 -355 q 792 -408 875 -408 l 875 -408 q 926 -408 962 -379 q 998 -351 1021 -307 q 1044 -263 1050 -217 l 1050 -217 l 986 -212 q 981 -237 972 -256 q 963 -275 950 -286 q 936 -297 916 -297 l 916 -297 q 890 -297 877 -276 q 863 -255 863 -202 l 863 -202 q 863 -168 869 -148 q 874 -128 885 -119 q 895 -110 907 -110 l 907 -110 q 925 -110 937 -120 q 949 -131 955 -158 q 960 -186 960 -234 l 960 -234 q 960 -255 959 -272 q 958 -290 956 -305 l 956 -305 q 956 -309 956 -318 q 956 -327 955 -331 l 955 -331 q 951 -364 929 -392 q 906 -420 871 -437 q 835 -455 788 -455 l 788 -455 q 755 -455 733 -448 q 710 -442 694 -430 l 694 -430 q 675 -416 665 -395 q 654 -374 650 -345 q 646 -316 646 -277 l 646 -277 l 646 -159 l 516 -443 q 548 -488 586 -518 q 623 -549 672 -565 q 721 -581 785 -581 l 785 -581 q 872 -581 936 -553 q 999 -526 1041 -478 q 1083 -430 1104 -368 q 1124 -306 1124 -237 l 1124 -237 q 1124 -153 1099 -97 q 1074 -42 1026 -15 q 977 12 904 12 z"},"എ":{"ha":1228,"x_min":26,"x_max":1192,"o":"m 244 -372 l 244 -372 q 322 -372 369 -344 q 415 -316 436 -272 q 457 -229 457 -183 l 457 -183 q 457 -157 450 -128 q 442 -99 429 -77 l 429 -77 l 426 -124 l 816 -124 l 814 0 l 325 0 l 273 -72 q 283 -89 291 -114 q 298 -139 298 -171 l 298 -171 q 298 -203 287 -226 q 276 -249 246 -249 l 246 -249 q 228 -249 216 -239 q 203 -229 198 -211 q 192 -194 192 -172 l 192 -172 q 192 -133 203 -103 q 214 -74 231 -43 l 231 -43 l 100 13 q 68 -27 47 -73 q 26 -119 26 -178 l 26 -178 q 26 -237 53 -280 q 80 -324 129 -348 q 178 -372 244 -372 z m 861 -581 l 861 -581 q 947 -581 1010 -553 q 1072 -526 1113 -473 q 1153 -421 1173 -348 q 1192 -275 1192 -184 l 1192 -184 q 1192 -95 1177 -22 q 1161 51 1135 113 q 1109 174 1076 229 l 1076 229 l 935 165 q 963 114 982 62 q 1001 9 1012 -50 q 1023 -110 1023 -183 l 1023 -183 q 1023 -246 1014 -296 q 1004 -347 985 -382 q 965 -418 935 -437 q 904 -456 862 -456 l 862 -456 q 801 -456 762 -420 q 723 -384 705 -315 q 686 -246 686 -148 l 686 -148 q 686 -131 686 -113 q 686 -96 687 -79 l 687 -79 q 687 -71 686 -63 q 684 -56 684 -49 l 684 -49 q 686 0 693 35 q 699 70 712 88 q 725 106 746 106 l 746 106 q 757 106 762 100 l 762 100 q 766 96 768 90 q 769 83 769 68 l 769 68 l 769 -375 l 935 -375 l 935 12 q 935 88 921 127 q 906 165 880 189 l 880 189 q 858 208 828 218 q 797 228 756 228 l 756 228 q 680 228 627 192 q 574 156 547 74 q 520 -9 520 -147 l 520 -147 q 520 -242 541 -321 q 561 -401 604 -459 q 646 -517 710 -549 q 774 -581 861 -581 z"},"ഏ":{"ha":1243,"x_min":27,"x_max":1217,"o":"m 245 -372 l 245 -372 q 323 -372 370 -344 q 416 -316 437 -272 q 458 -229 458 -183 l 458 -183 q 458 -157 450 -128 q 442 -99 430 -77 l 430 -77 l 426 -124 l 816 -124 l 815 0 l 325 0 l 274 -72 q 283 -89 291 -114 q 299 -139 299 -171 l 299 -171 q 299 -203 288 -226 q 276 -249 247 -249 l 247 -249 q 228 -249 216 -239 q 204 -229 199 -211 q 193 -194 193 -172 l 193 -172 q 193 -133 204 -103 q 215 -74 232 -43 l 232 -43 l 100 13 q 68 -27 48 -73 q 27 -119 27 -178 l 27 -178 q 27 -237 54 -280 q 80 -324 130 -348 q 179 -372 245 -372 z m 906 -581 l 906 -581 q 987 -581 1045 -561 q 1103 -542 1139 -508 q 1175 -475 1192 -431 q 1209 -388 1209 -340 l 1209 -340 q 1209 -287 1194 -249 q 1179 -211 1156 -185 q 1132 -160 1106 -143 l 1106 -143 l 1107 -164 q 1155 -139 1186 -94 q 1217 -49 1217 25 l 1217 25 q 1217 97 1193 142 q 1169 187 1124 208 q 1078 228 1015 228 l 1015 228 q 993 228 971 226 q 948 223 931 219 l 931 219 l 953 99 q 960 101 969 102 q 977 103 985 103 l 985 103 q 1010 103 1024 93 q 1038 82 1044 63 q 1050 44 1050 16 l 1050 16 q 1050 -25 1029 -52 q 1008 -79 969 -82 l 969 -82 l 969 -203 q 990 -213 1007 -228 q 1023 -243 1032 -266 q 1041 -289 1041 -322 l 1041 -322 q 1041 -366 1025 -395 q 1008 -425 977 -440 q 945 -456 899 -456 l 899 -456 q 827 -456 780 -417 q 732 -379 710 -310 q 687 -241 687 -148 l 687 -148 q 687 -131 687 -113 q 687 -96 687 -79 l 687 -79 q 687 -71 686 -63 q 685 -56 685 -49 l 685 -49 q 686 0 693 35 q 699 70 712 88 q 725 106 747 106 l 747 106 q 758 106 763 100 l 763 100 q 767 96 768 90 q 769 83 769 68 l 769 68 l 769 -375 l 935 -375 l 935 12 q 935 88 921 127 q 907 165 881 189 l 881 189 q 859 208 829 218 q 798 228 756 228 l 756 228 q 681 228 628 192 q 575 156 548 74 q 521 -9 521 -147 l 521 -147 q 521 -240 544 -319 q 567 -398 615 -457 q 663 -516 736 -548 q 808 -581 906 -581 z"},"ഐ":{"ha":1942,"x_min":33,"x_max":1906,"o":"m 239 12 l 239 12 q 181 12 134 -13 q 87 -38 60 -93 q 33 -148 33 -239 l 33 -239 q 33 -311 55 -373 q 77 -436 120 -483 q 163 -530 227 -555 q 290 -581 373 -581 l 373 -581 q 463 -581 523 -555 q 582 -529 617 -486 q 651 -444 666 -392 q 681 -341 681 -290 l 681 -290 q 681 -227 665 -172 q 649 -117 622 -71 q 594 -25 559 14 l 559 14 l 427 -56 q 453 -92 472 -128 q 490 -165 500 -204 q 510 -243 510 -287 l 510 -287 q 510 -338 495 -376 q 479 -414 447 -435 q 415 -456 363 -456 l 363 -456 q 310 -456 269 -429 q 227 -402 205 -352 q 182 -303 182 -237 l 182 -237 q 182 -182 189 -153 q 196 -125 209 -116 q 221 -107 234 -107 l 234 -107 q 246 -107 255 -113 q 263 -119 268 -133 q 272 -148 272 -173 l 272 -173 q 272 -211 261 -226 q 249 -242 229 -242 l 229 -242 q 205 -242 185 -224 q 164 -206 131 -162 l 131 -162 l 106 -277 q 140 -311 181 -334 q 222 -357 275 -357 l 275 -357 q 328 -357 363 -334 q 398 -312 415 -272 q 432 -233 432 -183 l 432 -183 q 432 -122 411 -78 q 389 -35 346 -11 q 303 12 239 12 z m 958 -372 l 958 -372 q 1036 -372 1083 -344 q 1129 -316 1150 -272 q 1171 -229 1171 -183 l 1171 -183 q 1171 -157 1164 -128 q 1156 -99 1143 -77 l 1143 -77 l 1140 -124 l 1530 -124 l 1528 0 l 1039 0 l 987 -72 q 997 -89 1005 -114 q 1012 -139 1012 -171 l 1012 -171 q 1012 -203 1001 -226 q 990 -249 960 -249 l 960 -249 q 942 -249 930 -239 q 917 -229 912 -211 q 906 -194 906 -172 l 906 -172 q 906 -133 917 -103 q 928 -74 945 -43 l 945 -43 l 814 13 q 782 -27 761 -73 q 740 -119 740 -178 l 740 -178 q 740 -237 767 -280 q 794 -324 843 -348 q 892 -372 958 -372 z m 1575 -581 l 1575 -581 q 1661 -581 1724 -553 q 1786 -526 1827 -473 q 1867 -421 1887 -348 q 1906 -275 1906 -184 l 1906 -184 q 1906 -95 1891 -22 q 1875 51 1849 113 q 1823 174 1790 229 l 1790 229 l 1649 165 q 1677 114 1696 62 q 1715 9 1726 -50 q 1737 -110 1737 -183 l 1737 -183 q 1737 -246 1728 -296 q 1718 -347 1699 -382 q 1679 -418 1649 -437 q 1618 -456 1576 -456 l 1576 -456 q 1515 -456 1476 -420 q 1437 -384 1419 -315 q 1400 -246 1400 -148 l 1400 -148 q 1400 -131 1400 -113 q 1400 -96 1401 -79 l 1401 -79 q 1401 -71 1400 -63 q 1398 -56 1398 -49 l 1398 -49 q 1400 0 1407 35 q 1413 70 1426 88 q 1439 106 1460 106 l 1460 106 q 1471 106 1476 100 l 1476 100 q 1480 96 1482 90 q 1483 83 1483 68 l 1483 68 l 1483 -375 l 1649 -375 l 1649 12 q 1649 88 1635 127 q 1620 165 1594 189 l 1594 189 q 1572 208 1542 218 q 1511 228 1470 228 l 1470 228 q 1394 228 1341 192 q 1288 156 1261 74 q 1234 -9 1234 -147 l 1234 -147 q 1234 -242 1255 -321 q 1275 -401 1318 -459 q 1360 -517 1424 -549 q 1488 -581 1575 -581 z"},"ഒ":{"ha":748,"x_min":31,"x_max":720,"o":"m 440 -581 l 440 -581 q 543 -581 602 -557 q 661 -533 686 -494 q 711 -456 711 -410 l 711 -410 q 711 -379 702 -354 q 693 -330 675 -311 q 656 -293 624 -278 l 624 -278 l 629 -287 q 673 -270 697 -233 q 720 -197 720 -148 l 720 -148 q 720 -71 671 -29 q 622 12 523 12 l 523 12 q 498 12 473 9 q 447 5 427 0 l 427 0 l 450 -118 q 462 -115 474 -113 q 486 -112 496 -112 l 496 -112 q 525 -112 539 -124 q 553 -137 553 -163 l 553 -163 q 553 -178 548 -189 q 542 -200 532 -207 l 532 -207 q 521 -215 505 -218 q 489 -221 460 -221 l 460 -221 l 456 -221 l 456 -342 l 459 -342 q 486 -342 501 -345 q 515 -348 524 -354 l 524 -354 q 535 -361 540 -372 q 544 -383 544 -395 l 544 -395 q 544 -429 513 -443 q 482 -457 429 -457 l 429 -457 q 383 -457 339 -444 q 295 -432 259 -406 q 222 -381 201 -341 q 180 -302 180 -247 l 180 -247 l 180 -232 q 180 -179 187 -152 q 194 -125 206 -116 q 218 -107 232 -107 l 232 -107 q 244 -107 252 -113 q 260 -119 265 -133 q 270 -148 270 -173 l 270 -173 q 270 -211 259 -226 q 247 -242 227 -242 l 227 -242 q 203 -242 183 -224 q 162 -206 128 -162 l 128 -162 l 104 -277 q 138 -311 179 -334 q 220 -357 273 -357 l 273 -357 q 326 -357 361 -334 q 395 -312 413 -273 q 430 -234 430 -183 l 430 -183 q 430 -121 409 -77 q 387 -33 344 -10 q 301 12 237 12 l 237 12 q 177 12 131 -13 q 85 -39 58 -93 q 31 -147 31 -232 l 31 -232 q 31 -319 61 -384 q 91 -450 146 -494 q 201 -538 276 -559 q 351 -581 440 -581 z"},"ഓ":{"ha":1266,"x_min":31,"x_max":1233,"o":"m 440 -581 l 440 -581 q 543 -581 602 -557 q 661 -533 686 -494 q 711 -456 711 -410 l 711 -410 q 711 -379 702 -354 q 693 -330 675 -311 q 656 -293 624 -278 l 624 -278 l 629 -287 q 673 -270 697 -233 q 720 -197 720 -148 l 720 -148 q 720 -71 671 -29 q 622 12 523 12 l 523 12 q 498 12 473 9 q 447 5 427 0 l 427 0 l 450 -118 q 462 -115 474 -113 q 486 -112 496 -112 l 496 -112 q 525 -112 539 -124 q 553 -137 553 -163 l 553 -163 q 553 -178 548 -189 q 542 -200 532 -207 l 532 -207 q 521 -215 505 -218 q 489 -221 460 -221 l 460 -221 l 456 -221 l 456 -342 l 459 -342 q 486 -342 501 -345 q 515 -348 524 -354 l 524 -354 q 535 -361 540 -372 q 544 -383 544 -395 l 544 -395 q 544 -429 513 -443 q 482 -457 429 -457 l 429 -457 q 383 -457 339 -444 q 295 -432 259 -406 q 222 -381 201 -341 q 180 -302 180 -247 l 180 -247 l 180 -232 q 180 -179 187 -152 q 194 -125 206 -116 q 218 -107 232 -107 l 232 -107 q 244 -107 252 -113 q 260 -119 265 -133 q 270 -148 270 -173 l 270 -173 q 270 -211 259 -226 q 247 -242 227 -242 l 227 -242 q 203 -242 183 -224 q 162 -206 128 -162 l 128 -162 l 104 -277 q 138 -311 179 -334 q 220 -357 273 -357 l 273 -357 q 326 -357 361 -334 q 395 -312 413 -273 q 430 -234 430 -183 l 430 -183 q 430 -121 409 -77 q 387 -33 344 -10 q 301 12 237 12 l 237 12 q 177 12 131 -13 q 85 -39 58 -93 q 31 -147 31 -232 l 31 -232 q 31 -319 61 -384 q 91 -450 146 -494 q 201 -538 276 -559 q 351 -581 440 -581 z m 1232 -287 l 1232 -287 q 1232 -218 1221 -162 q 1209 -107 1182 -68 q 1154 -30 1108 -9 q 1062 12 993 12 l 993 12 q 928 12 887 -5 q 845 -22 820 -50 q 795 -78 782 -113 q 768 -149 761 -186 l 761 -186 l 930 -216 q 936 -182 945 -159 q 953 -136 966 -124 q 978 -112 998 -112 l 998 -112 q 1021 -112 1035 -131 q 1049 -150 1056 -189 q 1062 -228 1062 -288 l 1062 -288 q 1062 -345 1056 -382 q 1049 -419 1035 -438 q 1021 -457 998 -457 l 998 -457 q 980 -457 968 -445 q 955 -433 947 -410 q 938 -387 932 -353 l 932 -353 l 763 -384 q 773 -422 790 -457 q 806 -493 833 -520 q 859 -548 900 -564 q 941 -581 1002 -581 l 1002 -581 q 1069 -581 1114 -558 q 1158 -536 1184 -496 q 1210 -456 1221 -402 q 1232 -349 1232 -287 z"},"ഔ":{"ha":1485,"x_min":31,"x_max":1452,"o":"m 440 -581 l 440 -581 q 543 -581 602 -557 q 661 -533 686 -494 q 711 -456 711 -410 l 711 -410 q 711 -379 702 -354 q 693 -330 675 -311 q 656 -293 624 -278 l 624 -278 l 629 -287 q 673 -270 697 -233 q 720 -197 720 -148 l 720 -148 q 720 -71 671 -29 q 622 12 523 12 l 523 12 q 498 12 473 9 q 447 5 427 0 l 427 0 l 450 -118 q 462 -115 474 -113 q 486 -112 496 -112 l 496 -112 q 525 -112 539 -124 q 553 -137 553 -163 l 553 -163 q 553 -178 548 -189 q 542 -200 532 -207 l 532 -207 q 521 -215 505 -218 q 489 -221 460 -221 l 460 -221 l 456 -221 l 456 -342 l 459 -342 q 486 -342 501 -345 q 515 -348 524 -354 l 524 -354 q 535 -361 540 -372 q 544 -383 544 -395 l 544 -395 q 544 -429 513 -443 q 482 -457 429 -457 l 429 -457 q 383 -457 339 -444 q 295 -432 259 -406 q 222 -381 201 -341 q 180 -302 180 -247 l 180 -247 l 180 -232 q 180 -179 187 -152 q 194 -125 206 -116 q 218 -107 232 -107 l 232 -107 q 244 -107 252 -113 q 260 -119 265 -133 q 270 -148 270 -173 l 270 -173 q 270 -211 259 -226 q 247 -242 227 -242 l 227 -242 q 203 -242 183 -224 q 162 -206 128 -162 l 128 -162 l 104 -277 q 138 -311 179 -334 q 220 -357 273 -357 l 273 -357 q 326 -357 361 -334 q 395 -312 413 -273 q 430 -234 430 -183 l 430 -183 q 430 -121 409 -77 q 387 -33 344 -10 q 301 12 237 12 l 237 12 q 177 12 131 -13 q 85 -39 58 -93 q 31 -147 31 -232 l 31 -232 q 31 -319 61 -384 q 91 -450 146 -494 q 201 -538 276 -559 q 351 -581 440 -581 z m 1238 -581 l 1238 -581 q 1305 -581 1353 -549 q 1401 -517 1427 -456 q 1452 -396 1452 -311 l 1452 -311 q 1452 -208 1422 -135 q 1392 -63 1329 -25 q 1265 12 1166 12 l 1166 12 q 1094 12 1044 0 q 994 -12 943 -35 l 943 -35 l 1005 -147 q 1041 -130 1076 -122 q 1110 -114 1147 -114 l 1147 -114 q 1197 -114 1227 -135 q 1257 -156 1270 -200 q 1283 -244 1283 -312 l 1283 -312 q 1283 -390 1266 -423 q 1249 -457 1225 -457 l 1225 -457 q 1217 -457 1212 -454 q 1206 -452 1201 -447 l 1201 -447 q 1194 -438 1192 -423 q 1189 -408 1189 -376 l 1189 -376 l 1189 -271 l 1024 -271 l 1024 -361 q 1024 -392 1022 -412 q 1019 -433 1011 -443 l 1011 -443 q 1006 -451 999 -454 q 992 -457 983 -457 l 983 -457 q 965 -457 952 -438 q 938 -420 938 -380 l 938 -380 q 938 -356 942 -332 q 945 -309 951 -289 l 951 -289 l 791 -256 q 782 -286 777 -320 q 771 -354 771 -387 l 771 -387 q 771 -438 792 -482 q 813 -526 857 -553 q 900 -581 970 -581 l 970 -581 q 1022 -581 1057 -564 q 1091 -547 1119 -515 l 1119 -515 l 1091 -514 q 1121 -550 1155 -565 q 1189 -581 1238 -581 z"},"ക":{"ha":1023,"x_min":26,"x_max":997,"o":"m 221 12 l 221 12 q 127 12 77 -34 q 26 -81 26 -164 l 26 -164 q 26 -221 50 -258 q 74 -296 114 -318 l 114 -318 q 141 -332 173 -341 q 205 -350 246 -353 q 287 -357 342 -357 l 342 -357 l 706 -357 q 781 -357 829 -348 q 876 -340 913 -318 l 913 -318 q 953 -296 975 -258 q 997 -220 997 -163 l 997 -163 q 997 -75 949 -31 q 901 12 821 12 l 821 12 q 799 12 776 9 q 752 6 730 1 l 730 1 l 756 -115 q 765 -114 773 -113 q 781 -112 789 -112 l 789 -112 q 813 -112 825 -126 q 836 -140 836 -163 l 836 -163 q 836 -182 830 -195 q 823 -208 811 -216 l 811 -216 q 796 -226 773 -229 q 750 -233 705 -233 l 705 -233 l 296 -233 q 261 -233 241 -228 q 220 -224 207 -215 l 207 -215 q 195 -207 189 -195 q 182 -183 182 -167 l 182 -167 q 182 -150 188 -137 q 194 -124 208 -117 q 221 -111 241 -111 l 241 -111 q 266 -111 287 -121 q 308 -131 327 -149 l 327 -149 l 396 -40 q 368 -21 341 -9 q 313 2 284 7 q 255 12 221 12 z m 511 -581 l 511 -581 q 601 -581 656 -545 q 710 -510 735 -444 q 760 -379 760 -287 l 760 -287 q 760 -187 732 -120 q 704 -53 649 -20 q 594 12 512 12 l 512 12 q 444 12 398 -9 q 351 -31 321 -74 l 321 -74 q 291 -113 277 -168 q 262 -223 262 -292 l 262 -292 q 262 -433 325 -507 q 388 -581 511 -581 z m 511 -457 l 511 -457 q 465 -457 446 -417 q 427 -377 427 -283 l 427 -283 q 427 -224 436 -186 q 444 -148 463 -130 q 481 -112 512 -112 l 512 -112 q 541 -112 559 -129 q 577 -147 586 -185 q 595 -224 595 -286 l 595 -286 q 595 -347 587 -384 q 578 -422 560 -439 q 541 -457 511 -457 z"},"ഖ":{"ha":982,"x_min":31,"x_max":931,"o":"m 371 -581 l 371 -581 q 460 -581 520 -556 q 579 -532 614 -491 q 649 -450 664 -399 q 679 -349 679 -297 l 679 -297 q 679 -242 666 -198 q 653 -155 629 -115 q 604 -76 568 -35 l 568 -35 l 545 0 l 501 0 l 441 -75 q 459 -104 475 -137 q 490 -171 500 -209 q 509 -247 509 -291 l 509 -291 q 509 -340 495 -377 q 480 -414 449 -435 q 417 -456 366 -456 l 366 -456 q 319 -456 276 -432 q 233 -408 207 -360 q 180 -313 180 -244 l 180 -244 l 180 -235 q 180 -180 187 -152 q 194 -125 207 -116 q 219 -107 232 -107 l 232 -107 q 244 -107 253 -113 q 261 -119 266 -133 q 270 -148 270 -173 l 270 -173 q 270 -211 259 -226 q 247 -242 228 -242 l 228 -242 q 204 -242 183 -224 q 162 -206 129 -162 l 129 -162 l 104 -277 q 138 -311 180 -334 q 221 -357 273 -357 l 273 -357 q 326 -357 361 -334 q 396 -312 413 -273 q 430 -234 430 -183 l 430 -183 q 430 -121 409 -77 q 387 -33 344 -10 q 301 12 237 12 l 237 12 q 178 12 132 -13 q 85 -39 58 -94 q 31 -149 31 -241 l 31 -241 q 31 -346 73 -422 q 115 -498 192 -539 q 268 -581 371 -581 z m 765 -569 l 931 -569 l 931 0 l 527 0 l 593 -124 l 765 -124 l 765 -569 z"},"ഗ":{"ha":866,"x_min":33,"x_max":833,"o":"m 584 -581 l 584 -581 q 666 -581 722 -546 q 777 -511 805 -449 q 833 -387 833 -305 l 833 -305 q 833 -242 820 -188 q 806 -135 782 -86 q 757 -37 722 13 l 722 13 l 587 -56 q 611 -99 629 -137 q 646 -176 655 -216 q 664 -257 664 -304 l 664 -304 q 664 -362 653 -395 q 641 -428 623 -442 q 604 -456 581 -456 l 581 -456 q 568 -456 558 -452 q 547 -449 540 -441 l 540 -441 q 527 -429 523 -407 q 518 -385 518 -346 l 518 -346 l 518 -246 q 518 -194 511 -154 q 503 -115 488 -87 q 473 -59 449 -38 l 449 -38 q 419 -12 379 0 q 339 12 282 12 l 282 12 q 200 12 145 -23 q 89 -58 61 -120 q 33 -182 33 -264 l 33 -264 q 33 -327 47 -380 q 60 -434 85 -483 q 110 -532 144 -582 l 144 -582 l 279 -513 q 255 -470 238 -431 q 221 -393 212 -352 q 202 -312 202 -265 l 202 -265 q 202 -208 214 -174 q 225 -141 244 -127 q 263 -113 285 -113 l 285 -113 q 299 -113 309 -116 q 319 -120 326 -128 l 326 -128 q 339 -140 344 -162 q 348 -184 348 -223 l 348 -223 l 348 -326 q 348 -402 365 -451 q 382 -501 418 -530 l 418 -530 q 449 -556 488 -568 q 527 -581 584 -581 z"},"ഘ":{"ha":1289,"x_min":26,"x_max":1239,"o":"m 244 -581 l 244 -581 q 322 -581 369 -553 q 415 -525 436 -481 q 457 -438 457 -392 l 457 -392 q 457 -366 450 -337 q 442 -308 429 -286 l 429 -286 l 426 -332 l 625 -332 l 655 -210 l 325 -210 l 273 -281 q 283 -298 291 -323 q 298 -348 298 -380 l 298 -380 q 298 -411 287 -434 q 276 -458 246 -458 l 246 -458 q 228 -458 216 -447 q 203 -437 198 -419 q 192 -402 192 -381 l 192 -381 q 192 -342 203 -312 q 214 -283 231 -252 l 231 -252 l 100 -196 q 68 -236 47 -282 q 26 -328 26 -387 l 26 -387 q 26 -446 53 -489 q 80 -533 129 -557 q 178 -581 244 -581 z m 1072 -569 l 1239 -569 l 1239 0 l 511 0 l 511 -303 q 511 -384 529 -435 q 546 -486 580 -519 l 580 -519 q 610 -549 654 -565 q 698 -581 757 -581 l 757 -581 q 820 -581 865 -564 q 909 -548 938 -517 l 938 -517 q 971 -482 986 -432 q 1001 -383 1001 -304 l 1001 -304 l 1001 -210 l 677 -210 l 677 -124 l 1072 -124 l 1072 -569 z m 757 -457 l 757 -457 q 714 -457 696 -429 q 677 -401 677 -347 l 677 -347 l 677 -332 l 835 -332 l 835 -346 q 835 -401 816 -429 q 796 -457 757 -457 z"},"ങ":{"ha":1040,"x_min":32,"x_max":1011,"o":"m 360 -581 l 360 -581 q 438 -581 492 -558 q 546 -536 591 -481 l 591 -481 l 617 -379 l 646 -239 l 646 0 l 479 0 l 479 -292 q 479 -353 472 -384 q 464 -415 443 -432 l 443 -432 q 429 -444 409 -450 q 388 -457 358 -457 l 358 -457 q 312 -457 272 -434 q 231 -411 206 -363 q 181 -316 181 -241 l 181 -241 l 181 -236 q 181 -181 188 -153 q 195 -125 208 -116 q 220 -107 233 -107 l 233 -107 q 245 -107 254 -113 q 262 -119 267 -133 q 271 -148 271 -173 l 271 -173 q 271 -211 260 -226 q 248 -242 228 -242 l 228 -242 q 204 -242 184 -224 q 163 -206 130 -162 l 130 -162 l 105 -277 q 139 -311 181 -334 q 222 -357 274 -357 l 274 -357 q 327 -357 362 -334 q 397 -312 414 -273 q 431 -234 431 -183 l 431 -183 q 431 -121 410 -77 q 388 -33 345 -10 q 302 12 237 12 l 237 12 q 179 12 133 -13 q 86 -39 59 -95 q 32 -152 32 -245 l 32 -245 q 32 -356 75 -430 q 118 -505 192 -543 q 266 -581 360 -581 z m 784 -581 l 784 -581 q 858 -581 907 -559 q 955 -537 979 -500 q 1002 -463 1002 -415 l 1002 -415 q 1002 -383 994 -357 q 985 -332 966 -313 q 946 -294 915 -279 l 915 -279 l 919 -287 q 964 -270 988 -233 q 1011 -197 1011 -148 l 1011 -148 q 1011 -72 963 -30 q 914 12 814 12 l 814 12 q 789 12 763 8 q 736 4 715 -1 l 715 -1 l 738 -119 q 752 -116 764 -114 q 775 -112 788 -112 l 788 -112 q 817 -112 831 -124 q 845 -137 845 -163 l 845 -163 q 845 -178 839 -189 q 833 -200 823 -207 l 823 -207 q 812 -215 797 -218 q 781 -221 753 -221 l 753 -221 l 733 -221 l 733 -342 l 749 -342 q 775 -342 791 -346 q 807 -350 816 -356 l 816 -356 q 826 -363 831 -374 q 836 -385 836 -400 l 836 -400 q 836 -426 819 -441 q 802 -457 770 -457 l 770 -457 q 741 -457 721 -448 q 701 -439 686 -424 l 686 -424 q 669 -406 660 -381 q 651 -357 649 -326 q 646 -295 646 -256 l 646 -256 l 646 -172 l 499 -186 l 493 -296 l 498 -383 q 516 -442 554 -486 q 591 -531 648 -556 q 705 -581 784 -581 z"},"ച":{"ha":879,"x_min":19,"x_max":829,"o":"m 662 -569 l 829 -569 l 829 0 l 19 0 l 19 -124 l 405 -124 l 329 -100 q 351 -120 364 -150 q 377 -180 377 -213 l 377 -213 q 377 -242 367 -259 q 356 -277 331 -277 l 331 -277 q 309 -277 298 -259 q 287 -242 287 -215 l 287 -215 q 287 -202 289 -193 q 290 -184 291 -177 l 291 -177 l 128 -162 q 125 -175 124 -190 q 122 -206 122 -221 l 122 -221 q 122 -304 174 -352 q 226 -400 331 -400 l 331 -400 q 393 -400 433 -383 q 472 -366 495 -339 q 517 -313 526 -282 q 535 -252 535 -225 l 535 -225 q 535 -202 530 -180 q 525 -158 516 -138 q 507 -119 493 -101 l 493 -101 l 473 -124 l 662 -124 l 662 -569 z"},"ഛ":{"ha":1283,"x_min":19,"x_max":1252,"o":"m 331 -400 l 331 -400 q 393 -400 433 -383 q 472 -366 495 -339 q 517 -313 526 -282 q 535 -252 535 -225 l 535 -225 q 535 -202 530 -180 q 525 -158 516 -138 q 507 -119 493 -101 l 493 -101 l 473 -124 l 679 -124 l 732 0 l 19 0 l 19 -124 l 405 -124 l 329 -100 q 351 -120 364 -150 q 377 -180 377 -213 l 377 -213 q 377 -242 367 -259 q 356 -277 331 -277 l 331 -277 q 309 -277 298 -259 q 287 -242 287 -215 l 287 -215 q 287 -202 289 -193 q 290 -184 291 -177 l 291 -177 l 128 -162 q 125 -175 124 -190 q 122 -206 122 -221 l 122 -221 q 122 -304 174 -352 q 226 -400 331 -400 z m 912 -581 l 912 -581 q 1000 -581 1064 -553 q 1128 -526 1170 -478 q 1212 -430 1232 -368 q 1252 -306 1252 -237 l 1252 -237 q 1252 -153 1228 -97 q 1203 -42 1155 -15 q 1106 12 1032 12 l 1032 12 q 960 12 916 -17 q 871 -46 851 -95 q 830 -144 830 -204 l 830 -204 q 830 -303 876 -355 q 921 -408 1004 -408 l 1004 -408 q 1054 -408 1091 -379 q 1127 -351 1150 -307 q 1172 -263 1179 -217 l 1179 -217 l 1114 -212 q 1110 -237 1101 -256 q 1092 -275 1078 -286 q 1064 -297 1044 -297 l 1044 -297 q 1019 -297 1005 -276 q 991 -255 991 -202 l 991 -202 q 991 -168 997 -148 q 1003 -128 1014 -119 q 1024 -110 1036 -110 l 1036 -110 q 1054 -110 1066 -120 q 1078 -131 1084 -158 q 1089 -186 1089 -234 l 1089 -234 q 1089 -255 1088 -272 q 1087 -290 1085 -305 l 1085 -305 q 1084 -309 1085 -318 q 1085 -327 1084 -331 l 1084 -331 q 1079 -364 1058 -392 q 1036 -420 1001 -437 q 965 -455 918 -455 l 918 -455 q 865 -455 829 -435 q 793 -416 775 -378 q 756 -341 756 -287 l 756 -287 q 756 -245 766 -209 q 775 -173 791 -140 q 806 -108 824 -77 l 824 -77 l 755 0 l 696 0 l 674 -65 q 649 -96 629 -131 q 609 -167 598 -208 q 586 -250 586 -299 l 586 -299 q 586 -352 605 -403 q 623 -454 662 -494 q 700 -534 763 -557 q 825 -581 912 -581 z"},"ജ":{"ha":906,"x_min":25,"x_max":873,"o":"m 284 -581 l 284 -581 q 341 -581 379 -571 q 417 -561 443 -546 q 469 -531 488 -515 l 488 -515 l 464 -510 q 502 -548 547 -564 q 591 -581 645 -581 l 645 -581 q 726 -581 776 -549 q 826 -518 850 -468 q 873 -419 873 -364 l 873 -364 q 873 -321 861 -286 q 848 -252 825 -226 q 802 -200 768 -183 l 768 -183 l 587 -153 l 469 -145 q 435 -141 401 -140 q 366 -139 339 -139 l 339 -139 l 226 -139 q 204 -139 195 -137 q 186 -136 181 -132 l 181 -132 q 177 -129 175 -125 q 173 -121 173 -116 l 173 -116 q 173 -110 177 -105 q 181 -100 190 -97 q 198 -94 212 -94 l 212 -94 q 227 -94 246 -96 q 264 -98 289 -103 q 314 -109 349 -119 l 349 -119 q 373 -125 397 -131 q 420 -137 443 -141 q 465 -146 487 -149 q 508 -153 527 -156 l 527 -156 q 540 -163 564 -176 q 588 -189 616 -202 q 643 -216 668 -225 q 693 -235 708 -235 l 708 -235 q 741 -235 774 -223 q 807 -212 829 -185 q 850 -159 850 -112 l 850 -112 q 850 -51 810 -19 q 770 12 692 12 l 692 12 q 629 12 593 -7 q 556 -26 542 -56 q 527 -87 527 -119 l 527 -119 q 527 -160 547 -188 q 567 -216 587 -230 l 587 -230 l 718 -214 q 704 -207 689 -193 q 674 -179 664 -161 q 654 -144 654 -124 l 654 -124 q 654 -109 661 -97 q 668 -85 687 -85 l 687 -85 q 702 -85 710 -93 q 718 -101 718 -116 l 718 -116 q 718 -126 716 -133 q 713 -141 706 -146 q 699 -151 687 -151 l 687 -151 q 673 -151 660 -142 q 646 -133 627 -113 l 627 -113 l 616 -127 q 601 -113 578 -98 q 555 -83 525 -67 q 495 -51 455 -37 l 455 -37 q 404 -19 361 -8 q 317 2 278 7 q 238 12 199 12 l 199 12 q 148 12 109 0 q 70 -12 48 -39 q 25 -67 25 -113 l 25 -113 q 25 -150 40 -174 q 55 -199 81 -214 l 81 -214 q 108 -230 144 -236 q 180 -242 242 -242 l 242 -242 l 533 -242 q 572 -242 598 -245 q 623 -248 641 -254 q 658 -260 672 -270 l 672 -270 q 693 -284 703 -306 q 712 -329 712 -361 l 712 -361 q 712 -392 702 -413 q 692 -435 674 -447 q 656 -459 631 -459 l 631 -459 q 616 -459 605 -455 q 593 -452 584 -445 l 584 -445 q 570 -432 564 -408 q 558 -385 558 -342 l 558 -342 l 558 -267 l 409 -267 l 409 -308 q 409 -354 403 -388 q 397 -422 375 -444 l 375 -444 q 361 -459 339 -467 q 316 -476 285 -476 l 285 -476 q 254 -476 225 -470 q 196 -465 179 -454 l 179 -454 q 177 -452 174 -444 q 171 -436 170 -433 l 170 -433 q 165 -426 163 -415 q 160 -404 160 -392 l 160 -392 q 160 -362 169 -351 q 177 -340 189 -340 l 189 -340 q 200 -340 206 -344 q 212 -348 215 -357 q 218 -366 218 -380 l 218 -380 q 218 -400 210 -410 q 202 -420 188 -420 l 188 -420 q 176 -420 165 -416 q 154 -412 142 -403 l 142 -403 l 90 -437 q 121 -459 155 -468 q 188 -478 224 -478 l 224 -478 q 258 -478 286 -467 q 314 -457 331 -433 q 348 -409 348 -369 l 348 -369 q 348 -338 334 -310 q 320 -282 287 -264 q 253 -247 192 -247 l 192 -247 q 119 -247 75 -283 q 31 -319 31 -396 l 31 -396 q 31 -450 59 -491 q 87 -533 143 -557 q 199 -581 284 -581 z"},"ഝ":{"ha":1593,"x_min":33,"x_max":1560,"o":"m 656 -581 l 656 -581 q 715 -581 760 -570 q 805 -559 841 -535 l 841 -535 q 894 -501 919 -444 q 944 -388 944 -300 l 944 -300 l 944 -232 q 944 -189 949 -165 q 954 -142 968 -129 l 968 -129 q 976 -122 986 -117 q 995 -113 1009 -113 l 1009 -113 q 1023 -113 1033 -117 q 1043 -122 1052 -129 l 1052 -129 q 1065 -142 1070 -164 q 1074 -187 1074 -227 l 1074 -227 l 1074 -570 l 1240 -570 l 1240 -228 q 1240 -187 1245 -164 q 1250 -141 1263 -128 l 1263 -128 q 1269 -123 1279 -118 q 1288 -113 1301 -113 l 1301 -113 q 1322 -113 1343 -127 q 1363 -142 1377 -175 q 1391 -209 1391 -266 l 1391 -266 q 1391 -310 1382 -350 q 1373 -390 1356 -430 q 1339 -470 1315 -512 l 1315 -512 l 1450 -582 q 1485 -532 1510 -483 q 1534 -434 1547 -381 q 1560 -328 1560 -265 l 1560 -265 q 1560 -184 1532 -121 q 1503 -59 1450 -24 q 1396 11 1320 11 l 1320 11 q 1265 11 1225 -6 q 1185 -23 1147 -62 l 1147 -62 l 1171 -69 q 1148 -41 1122 -23 q 1096 -6 1065 3 q 1034 11 996 11 l 996 11 q 949 11 911 -2 q 872 -16 843 -40 l 843 -40 q 820 -61 806 -89 q 791 -117 784 -155 q 777 -193 777 -243 l 777 -243 l 777 -279 q 777 -320 772 -350 q 767 -380 757 -400 q 747 -421 731 -434 l 731 -434 q 715 -447 695 -454 q 674 -461 647 -461 l 647 -461 q 629 -461 611 -458 q 592 -455 576 -448 l 576 -448 l 551 -438 q 521 -421 498 -388 q 475 -355 463 -312 q 450 -269 450 -220 l 450 -220 q 450 -179 457 -155 q 463 -131 474 -121 q 485 -112 499 -112 l 499 -112 q 513 -112 524 -121 q 535 -130 542 -154 q 549 -178 549 -222 l 549 -222 q 549 -272 537 -315 q 524 -359 502 -391 q 480 -424 452 -440 l 452 -440 l 429 -449 q 414 -455 397 -458 q 379 -461 363 -461 l 363 -461 q 304 -461 269 -438 q 233 -416 218 -376 q 202 -337 202 -288 l 202 -288 q 202 -246 212 -207 q 222 -169 240 -132 q 258 -95 281 -57 l 281 -57 l 152 12 q 117 -27 91 -72 q 64 -118 49 -172 q 33 -227 33 -295 l 33 -295 q 33 -340 48 -390 q 62 -440 98 -483 q 133 -527 195 -554 q 257 -581 352 -581 l 352 -581 q 410 -581 458 -568 q 505 -556 549 -529 l 549 -529 l 569 -494 q 639 -450 677 -387 q 715 -325 715 -221 l 715 -221 q 715 -142 690 -90 q 665 -39 617 -13 q 569 12 499 12 l 499 12 q 430 12 382 -15 q 334 -43 309 -95 q 284 -148 284 -223 l 284 -223 q 284 -286 301 -335 q 318 -385 352 -423 q 386 -462 435 -494 l 435 -494 l 453 -524 q 500 -553 551 -567 q 601 -581 656 -581 z"},"ഞ":{"ha":1428,"x_min":32,"x_max":1395,"o":"m 360 -581 l 360 -581 q 438 -581 492 -558 q 546 -536 593 -481 l 593 -481 l 618 -381 l 646 -224 l 646 0 l 479 0 l 479 -292 q 479 -353 472 -384 q 464 -415 443 -432 l 443 -432 q 429 -444 409 -450 q 388 -457 358 -457 l 358 -457 q 312 -457 272 -434 q 231 -411 206 -363 q 181 -316 181 -241 l 181 -241 l 181 -236 q 181 -181 188 -153 q 195 -125 208 -116 q 220 -107 233 -107 l 233 -107 q 245 -107 254 -113 q 262 -119 267 -133 q 271 -148 271 -173 l 271 -173 q 271 -211 260 -226 q 248 -242 228 -242 l 228 -242 q 204 -242 184 -224 q 163 -206 130 -162 l 130 -162 l 105 -277 q 139 -311 181 -334 q 222 -357 274 -357 l 274 -357 q 327 -357 362 -334 q 397 -312 414 -273 q 431 -234 431 -183 l 431 -183 q 431 -121 410 -77 q 388 -33 345 -10 q 302 12 237 12 l 237 12 q 179 12 133 -13 q 86 -39 59 -95 q 32 -152 32 -245 l 32 -245 q 32 -356 75 -430 q 118 -505 192 -543 q 266 -581 360 -581 z m 785 -581 l 785 -581 q 839 -581 885 -569 q 931 -557 976 -529 l 976 -529 l 994 -494 q 1064 -450 1102 -387 q 1140 -325 1140 -221 l 1140 -221 q 1140 -142 1116 -90 q 1091 -39 1043 -13 q 995 12 924 12 l 924 12 q 855 12 807 -15 q 759 -43 734 -95 q 709 -148 709 -223 l 709 -223 q 709 -287 727 -336 q 744 -385 778 -423 q 812 -462 861 -494 l 861 -494 l 880 -525 q 928 -554 980 -567 q 1031 -581 1089 -581 l 1089 -581 q 1179 -581 1239 -555 q 1298 -530 1333 -487 q 1367 -445 1381 -394 q 1395 -343 1395 -292 l 1395 -292 q 1395 -228 1379 -173 q 1363 -118 1336 -72 q 1309 -27 1275 12 l 1275 12 l 1145 -57 q 1168 -92 1186 -128 q 1204 -165 1215 -203 q 1226 -242 1226 -283 l 1226 -283 q 1226 -337 1211 -377 q 1195 -417 1163 -439 q 1131 -461 1078 -461 l 1078 -461 q 1057 -461 1039 -458 q 1020 -455 1003 -448 l 1003 -448 l 978 -439 q 947 -422 924 -389 q 900 -356 888 -312 q 875 -269 875 -220 l 875 -220 q 875 -179 882 -155 q 888 -131 899 -121 q 910 -112 924 -112 l 924 -112 q 939 -112 950 -121 q 960 -130 967 -154 q 974 -178 974 -222 l 974 -222 q 974 -272 962 -315 q 949 -359 927 -391 q 905 -424 877 -440 l 877 -440 l 855 -449 q 846 -454 833 -456 q 819 -459 806 -460 q 793 -461 782 -461 l 782 -461 q 751 -461 729 -454 q 706 -448 691 -435 l 691 -435 q 667 -416 657 -383 q 646 -350 646 -291 l 646 -291 l 646 -20 l 499 -20 l 499 -232 l 528 -467 q 553 -498 587 -524 q 620 -550 668 -565 q 716 -581 785 -581 z"},"ട":{"ha":547,"x_min":10,"x_max":531,"o":"m 276 -581 l 276 -581 q 356 -581 418 -565 q 479 -549 531 -524 l 531 -524 l 461 -414 q 416 -434 374 -445 q 331 -456 279 -456 l 279 -456 q 248 -456 230 -448 q 211 -441 203 -428 q 194 -416 194 -401 l 194 -401 q 194 -388 199 -379 q 203 -370 210 -365 l 210 -365 q 220 -358 239 -354 q 257 -351 284 -351 l 284 -351 l 293 -351 q 351 -351 392 -340 q 433 -329 463 -306 l 463 -306 q 492 -284 508 -252 q 524 -220 524 -176 l 524 -176 q 524 -122 498 -79 q 471 -37 414 -12 q 357 12 264 12 l 264 12 q 193 12 129 -2 q 65 -16 10 -44 l 10 -44 l 79 -157 q 112 -141 141 -131 q 170 -122 199 -117 q 227 -113 257 -113 l 257 -113 q 294 -113 315 -120 q 335 -127 345 -140 q 354 -154 354 -171 l 354 -171 q 354 -184 350 -194 q 345 -204 337 -210 l 337 -210 q 325 -219 310 -222 q 294 -225 264 -225 l 264 -225 l 256 -225 q 196 -225 149 -237 q 101 -250 69 -279 l 69 -279 q 48 -299 36 -328 q 24 -358 24 -397 l 24 -397 q 24 -450 52 -491 q 79 -533 135 -557 q 191 -581 276 -581 z"},"ഠ":{"ha":641,"x_min":32,"x_max":609,"o":"m 319 -581 l 319 -581 q 413 -581 478 -545 q 542 -510 576 -443 q 609 -377 609 -284 l 609 -284 q 609 -191 575 -124 q 541 -58 477 -23 q 413 12 320 12 l 320 12 q 225 12 161 -24 q 96 -61 64 -128 q 32 -195 32 -285 l 32 -285 q 32 -379 66 -445 q 100 -511 164 -546 q 227 -581 319 -581 z m 320 -114 l 320 -114 q 359 -114 385 -133 q 411 -152 425 -190 q 438 -228 438 -285 l 438 -285 q 438 -340 425 -378 q 412 -416 386 -435 q 360 -455 320 -455 l 320 -455 q 264 -455 234 -414 q 203 -373 203 -285 l 203 -285 q 203 -202 233 -158 q 262 -114 320 -114 z"},"ഡ":{"ha":1167,"x_min":33,"x_max":1134,"o":"m 569 12 l 569 12 q 522 12 483 -1 q 444 -15 416 -39 l 416 -39 q 393 -60 378 -88 q 363 -116 356 -154 q 348 -193 348 -246 l 348 -246 l 348 -346 q 348 -385 344 -407 q 339 -429 326 -441 l 326 -441 q 319 -449 309 -452 q 299 -456 285 -456 l 285 -456 q 263 -456 244 -442 q 225 -428 214 -395 q 202 -362 202 -304 l 202 -304 q 202 -257 212 -216 q 221 -176 238 -137 q 255 -99 279 -56 l 279 -56 l 144 13 q 110 -37 85 -86 q 60 -135 47 -188 q 33 -242 33 -305 l 33 -305 q 33 -387 61 -449 q 89 -511 145 -546 q 200 -581 282 -581 l 282 -581 q 339 -581 379 -569 q 418 -557 448 -531 l 448 -531 q 472 -511 487 -482 q 501 -454 509 -415 q 516 -376 516 -323 l 516 -323 l 516 -233 q 516 -189 521 -165 q 526 -141 540 -128 l 540 -128 q 548 -121 558 -117 q 568 -113 582 -113 l 582 -113 q 596 -113 606 -117 q 616 -121 625 -129 l 625 -129 q 638 -141 643 -163 q 647 -186 647 -226 l 647 -226 l 647 -569 l 814 -569 l 814 -227 q 814 -186 819 -163 q 823 -141 836 -128 l 836 -128 q 842 -122 852 -117 q 862 -113 874 -113 l 874 -113 q 895 -113 916 -127 q 937 -141 951 -174 q 965 -208 965 -266 l 965 -266 q 965 -310 956 -350 q 947 -390 930 -429 q 913 -469 889 -511 l 889 -511 l 1024 -581 q 1058 -531 1083 -482 q 1107 -434 1121 -380 q 1134 -327 1134 -264 l 1134 -264 q 1134 -183 1105 -120 q 1076 -58 1023 -23 q 969 12 893 12 l 893 12 q 839 12 799 -5 q 759 -22 720 -61 l 720 -61 l 745 -69 q 710 -27 669 -7 q 627 12 569 12 z"},"ഢ":{"ha":1293,"x_min":33,"x_max":1261,"o":"m 569 11 l 569 11 q 522 11 483 -2 q 444 -16 416 -40 l 416 -40 q 393 -61 378 -88 q 363 -116 356 -155 q 348 -194 348 -246 l 348 -246 l 348 -346 q 348 -386 344 -407 q 339 -429 326 -442 l 326 -442 q 319 -450 309 -453 q 299 -457 285 -457 l 285 -457 q 263 -457 244 -443 q 225 -429 214 -396 q 202 -363 202 -304 l 202 -304 q 202 -257 212 -217 q 221 -177 238 -138 q 255 -99 279 -57 l 279 -57 l 144 12 q 110 -38 85 -86 q 60 -135 47 -189 q 33 -243 33 -306 l 33 -306 q 33 -388 61 -450 q 89 -512 145 -547 q 200 -582 282 -582 l 282 -582 q 339 -582 379 -569 q 418 -557 448 -531 l 448 -531 q 472 -511 487 -483 q 501 -455 509 -416 q 516 -377 516 -323 l 516 -323 l 516 -234 q 516 -190 521 -166 q 526 -142 540 -129 l 540 -129 q 548 -122 558 -117 q 568 -113 582 -113 l 582 -113 q 596 -113 606 -117 q 616 -122 625 -129 l 625 -129 q 638 -142 643 -164 q 647 -187 647 -227 l 647 -227 l 647 -570 l 814 -570 l 814 -262 l 745 -69 q 710 -27 669 -8 q 627 11 569 11 z m 1056 -581 l 1056 -581 q 1115 -581 1161 -555 q 1207 -530 1234 -473 q 1261 -417 1261 -324 l 1261 -324 q 1261 -214 1219 -139 q 1176 -64 1102 -26 q 1028 12 933 12 l 933 12 q 856 12 802 -10 q 748 -33 702 -88 l 702 -88 l 670 -235 l 669 -535 l 814 -535 l 814 -277 q 814 -217 822 -185 q 830 -154 850 -137 l 850 -137 q 864 -125 885 -118 q 906 -112 935 -112 l 935 -112 q 982 -112 1022 -135 q 1062 -158 1087 -206 q 1112 -254 1112 -328 l 1112 -328 l 1112 -333 q 1112 -389 1105 -416 q 1098 -444 1086 -453 q 1074 -462 1060 -462 l 1060 -462 q 1049 -462 1040 -456 q 1031 -450 1027 -435 q 1022 -421 1022 -396 l 1022 -396 q 1022 -358 1034 -342 q 1045 -327 1065 -327 l 1065 -327 q 1089 -327 1110 -345 q 1130 -363 1163 -407 l 1163 -407 l 1188 -292 q 1154 -258 1113 -235 q 1072 -212 1019 -212 l 1019 -212 q 967 -212 932 -234 q 897 -257 880 -296 q 862 -336 862 -386 l 862 -386 q 862 -448 884 -492 q 905 -536 949 -558 q 992 -581 1056 -581 z"},"ണ":{"ha":1303,"x_min":32,"x_max":1270,"o":"m 360 -581 l 360 -581 q 438 -581 492 -558 q 546 -536 591 -481 l 591 -481 l 545 -498 q 576 -538 618 -559 q 660 -581 715 -581 l 715 -581 q 762 -581 803 -563 q 843 -546 879 -502 l 879 -502 l 856 -508 q 895 -547 935 -564 q 974 -581 1029 -581 l 1029 -581 q 1105 -581 1159 -546 q 1212 -511 1241 -448 q 1270 -386 1270 -305 l 1270 -305 q 1270 -242 1257 -188 q 1243 -135 1218 -86 q 1193 -37 1159 13 l 1159 13 l 1024 -56 q 1048 -99 1066 -139 q 1083 -179 1092 -219 q 1101 -260 1101 -303 l 1101 -303 q 1101 -363 1087 -396 q 1073 -430 1052 -443 q 1031 -456 1009 -456 l 1009 -456 q 997 -456 987 -451 q 977 -447 971 -440 l 971 -440 q 958 -426 954 -404 q 950 -383 950 -342 l 950 -342 l 950 0 l 783 0 l 783 -339 q 783 -382 778 -404 q 773 -427 759 -440 l 759 -440 q 751 -448 741 -452 q 730 -456 714 -456 l 714 -456 q 701 -456 690 -451 q 678 -447 670 -440 l 670 -440 q 657 -427 652 -404 q 646 -381 646 -335 l 646 -335 l 646 0 l 479 0 l 479 -292 q 479 -353 472 -384 q 464 -415 443 -432 l 443 -432 q 429 -444 409 -450 q 388 -457 358 -457 l 358 -457 q 312 -457 272 -434 q 231 -411 206 -363 q 181 -316 181 -241 l 181 -241 l 181 -236 q 181 -181 188 -153 q 195 -125 208 -116 q 220 -107 233 -107 l 233 -107 q 245 -107 254 -113 q 262 -119 267 -133 q 271 -148 271 -173 l 271 -173 q 271 -211 260 -226 q 248 -242 228 -242 l 228 -242 q 204 -242 184 -224 q 163 -206 130 -162 l 130 -162 l 105 -277 q 139 -311 181 -334 q 222 -357 274 -357 l 274 -357 q 327 -357 362 -334 q 397 -312 414 -272 q 431 -233 431 -183 l 431 -183 q 431 -121 410 -77 q 388 -33 345 -10 q 302 12 237 12 l 237 12 q 179 12 133 -13 q 86 -39 59 -95 q 32 -152 32 -246 l 32 -246 q 32 -356 75 -430 q 118 -505 192 -543 q 266 -581 360 -581 z"},"ത":{"ha":1003,"x_min":33,"x_max":970,"o":"m 499 12 l 499 12 q 430 12 382 -15 q 334 -43 309 -95 q 284 -148 284 -223 l 284 -223 q 284 -287 302 -336 q 319 -385 353 -423 q 387 -462 435 -494 l 435 -494 l 455 -525 q 503 -554 555 -567 q 606 -581 664 -581 l 664 -581 q 754 -581 814 -555 q 873 -530 908 -487 q 942 -445 956 -394 q 970 -343 970 -292 l 970 -292 q 970 -228 954 -173 q 938 -118 911 -72 q 884 -27 850 12 l 850 12 l 719 -57 q 743 -92 761 -128 q 779 -165 790 -203 q 801 -242 801 -283 l 801 -283 q 801 -337 786 -377 q 770 -417 738 -439 q 706 -461 653 -461 l 653 -461 q 632 -461 613 -458 q 594 -455 578 -448 l 578 -448 l 553 -439 q 522 -422 499 -389 q 475 -356 463 -312 q 450 -269 450 -220 l 450 -220 q 450 -179 457 -155 q 463 -131 474 -121 q 485 -112 499 -112 l 499 -112 q 513 -112 524 -121 q 535 -130 542 -154 q 549 -178 549 -222 l 549 -222 q 549 -272 537 -315 q 524 -359 503 -391 q 481 -424 453 -440 l 453 -440 l 429 -449 q 414 -455 397 -458 q 379 -461 363 -461 l 363 -461 q 304 -461 269 -438 q 233 -416 218 -376 q 202 -337 202 -288 l 202 -288 q 202 -246 212 -207 q 222 -169 240 -132 q 258 -95 281 -57 l 281 -57 l 152 12 q 118 -27 91 -72 q 64 -118 49 -172 q 33 -227 33 -295 l 33 -295 q 33 -340 48 -390 q 62 -440 98 -483 q 133 -527 195 -554 q 257 -581 352 -581 l 352 -581 q 410 -581 458 -568 q 505 -556 549 -529 l 549 -529 l 569 -494 q 639 -450 677 -387 q 715 -325 715 -221 l 715 -221 q 715 -142 691 -90 q 666 -39 618 -13 q 570 12 499 12 z"},"ഥ":{"ha":861,"x_min":50,"x_max":814,"o":"m 50 -569 l 216 -569 l 216 -124 l 356 -124 l 356 0 l 50 0 l 50 -569 z m 564 -581 l 564 -581 q 625 -581 670 -565 q 715 -550 747 -519 l 747 -519 q 784 -482 799 -432 q 814 -383 814 -305 l 814 -305 l 814 0 l 312 0 l 312 -305 q 312 -358 319 -396 q 325 -435 341 -465 q 356 -496 380 -520 l 380 -520 q 412 -550 458 -565 q 503 -581 564 -581 z m 564 -455 l 564 -455 q 544 -455 530 -449 q 515 -443 505 -432 l 505 -432 q 488 -413 483 -384 q 478 -355 478 -302 l 478 -302 l 478 -124 l 648 -124 l 648 -302 q 648 -355 643 -384 q 638 -414 622 -432 l 622 -432 q 612 -443 599 -449 q 585 -455 564 -455 z"},"ദ":{"ha":631,"x_min":35,"x_max":602,"o":"m 367 -581 l 367 -581 q 446 -581 496 -559 q 545 -537 569 -500 q 593 -463 593 -416 l 593 -416 q 593 -366 573 -333 q 553 -301 507 -279 l 507 -279 l 511 -287 q 555 -270 579 -233 q 602 -197 602 -148 l 602 -148 q 602 -70 553 -29 q 503 12 403 12 l 403 12 q 376 12 347 8 q 318 4 292 -2 l 292 -2 l 315 -120 q 332 -116 347 -114 q 361 -112 377 -112 l 377 -112 q 407 -112 421 -124 q 435 -137 435 -163 l 435 -163 q 435 -178 430 -189 q 424 -200 414 -207 l 414 -207 q 403 -215 387 -218 q 371 -221 344 -221 l 344 -221 l 314 -221 l 314 -342 l 340 -342 q 366 -342 382 -346 q 398 -350 406 -356 l 406 -356 q 417 -363 422 -374 q 426 -385 426 -400 l 426 -400 q 426 -426 409 -441 q 392 -457 360 -457 l 360 -457 q 309 -457 274 -427 q 239 -397 222 -343 q 204 -290 204 -221 l 204 -221 q 204 -169 210 -120 q 216 -71 227 -29 l 227 -29 l 69 4 q 53 -46 44 -108 q 35 -171 35 -226 l 35 -226 q 35 -335 72 -414 q 108 -494 182 -537 q 256 -581 367 -581 z"},"ധ":{"ha":877,"x_min":33,"x_max":844,"o":"m 597 12 l 597 12 q 563 12 535 5 q 507 -2 482 -17 q 457 -33 432 -56 l 432 -56 l 449 -61 q 410 -22 370 -5 q 330 12 274 12 l 274 12 q 198 12 144 -23 q 90 -58 62 -120 q 33 -183 33 -264 l 33 -264 q 33 -327 47 -380 q 60 -434 85 -483 q 110 -533 144 -582 l 144 -582 l 279 -513 q 255 -470 238 -431 q 221 -393 212 -353 q 202 -313 202 -266 l 202 -266 q 202 -209 216 -175 q 229 -142 251 -127 q 273 -113 295 -113 l 295 -113 q 308 -113 318 -116 q 327 -120 333 -127 l 333 -127 q 346 -139 351 -160 q 355 -182 355 -227 l 355 -227 l 355 -569 l 522 -569 l 522 -229 q 522 -186 526 -163 q 530 -140 543 -127 l 543 -127 q 549 -121 559 -117 q 568 -113 582 -113 l 582 -113 q 604 -113 625 -127 q 646 -142 661 -176 q 675 -210 675 -266 l 675 -266 q 675 -310 666 -351 q 657 -392 640 -432 q 623 -472 598 -513 l 598 -513 l 734 -582 q 770 -531 794 -481 q 818 -431 831 -378 q 844 -326 844 -265 l 844 -265 q 844 -187 817 -124 q 789 -62 734 -25 q 679 12 597 12 z"},"ന":{"ha":877,"x_min":33,"x_max":844,"o":"m 280 -581 l 280 -581 q 314 -581 342 -574 q 370 -567 395 -552 q 420 -537 444 -513 l 444 -513 l 428 -508 q 466 -547 507 -564 q 547 -581 602 -581 l 602 -581 q 679 -581 733 -546 q 787 -511 816 -448 q 844 -386 844 -305 l 844 -305 q 844 -242 831 -188 q 817 -135 792 -86 q 767 -37 733 13 l 733 13 l 598 -56 q 622 -99 640 -137 q 657 -176 666 -216 q 675 -257 675 -303 l 675 -303 q 675 -360 661 -393 q 647 -427 626 -441 q 605 -456 582 -456 l 582 -456 q 569 -456 560 -452 q 550 -449 543 -442 l 543 -442 q 531 -431 526 -409 q 521 -387 521 -342 l 521 -342 l 521 0 l 354 0 l 354 -340 q 354 -384 350 -406 q 346 -429 334 -442 l 334 -442 q 327 -448 317 -452 q 307 -456 294 -456 l 294 -456 q 273 -456 252 -441 q 230 -427 216 -393 q 202 -360 202 -303 l 202 -303 q 202 -259 211 -218 q 220 -177 237 -137 q 254 -98 278 -56 l 278 -56 l 143 13 q 108 -38 84 -88 q 59 -138 46 -191 q 33 -244 33 -304 l 33 -304 q 33 -382 61 -444 q 88 -507 143 -544 q 198 -581 280 -581 z"},"ഩ":{"ha":1002,"x_min":32,"x_max":969,"o":"m 360 -581 l 360 -581 q 438 -581 492 -558 q 546 -536 591 -481 l 591 -481 l 543 -501 q 584 -547 628 -564 q 672 -581 727 -581 l 727 -581 q 804 -581 858 -546 q 912 -511 941 -448 q 969 -386 969 -305 l 969 -305 q 969 -242 956 -188 q 942 -135 917 -86 q 892 -37 858 13 l 858 13 l 723 -56 q 747 -99 765 -137 q 782 -176 791 -216 q 800 -257 800 -303 l 800 -303 q 800 -360 786 -393 q 772 -427 751 -441 q 730 -456 707 -456 l 707 -456 q 694 -456 685 -452 q 675 -449 668 -442 l 668 -442 q 656 -431 651 -409 q 646 -387 646 -342 l 646 -342 l 646 0 l 479 0 l 479 -292 q 479 -353 472 -384 q 464 -415 443 -432 l 443 -432 q 429 -444 409 -450 q 388 -457 358 -457 l 358 -457 q 312 -457 272 -434 q 231 -411 206 -363 q 181 -316 181 -241 l 181 -241 l 181 -236 q 181 -181 188 -153 q 195 -125 208 -116 q 220 -107 233 -107 l 233 -107 q 245 -107 254 -113 q 262 -119 267 -133 q 271 -148 271 -173 l 271 -173 q 271 -211 260 -226 q 248 -242 228 -242 l 228 -242 q 204 -242 184 -224 q 163 -206 130 -162 l 130 -162 l 105 -277 q 139 -311 181 -334 q 222 -357 274 -357 l 274 -357 q 327 -357 362 -334 q 397 -312 414 -273 q 431 -234 431 -183 l 431 -183 q 431 -121 410 -77 q 388 -33 345 -10 q 302 12 237 12 l 237 12 q 179 12 133 -13 q 86 -39 59 -95 q 32 -152 32 -245 l 32 -245 q 32 -356 75 -430 q 118 -505 192 -543 q 266 -581 360 -581 z"},"പ":{"ha":854,"x_min":26,"x_max":804,"o":"m 244 -372 l 244 -372 q 322 -372 369 -344 q 415 -316 436 -272 q 457 -229 457 -183 l 457 -183 q 457 -157 450 -128 q 442 -99 429 -77 l 429 -77 l 426 -124 l 637 -124 l 637 -569 l 804 -569 l 804 0 l 325 0 l 273 -72 q 283 -89 291 -114 q 298 -139 298 -171 l 298 -171 q 298 -202 287 -225 q 276 -249 246 -249 l 246 -249 q 228 -249 216 -238 q 203 -228 198 -210 q 192 -193 192 -172 l 192 -172 q 192 -133 203 -103 q 214 -74 231 -43 l 231 -43 l 100 13 q 68 -27 47 -73 q 26 -119 26 -178 l 26 -178 q 26 -237 53 -280 q 80 -324 129 -348 q 178 -372 244 -372 z"},"ഫ":{"ha":1078,"x_min":26,"x_max":1031,"o":"m 244 -372 l 244 -372 q 322 -372 369 -344 q 415 -316 436 -272 q 457 -229 457 -183 l 457 -183 q 457 -157 450 -128 q 442 -99 429 -77 l 429 -77 l 426 -124 l 604 -124 l 605 0 l 325 0 l 273 -72 q 283 -89 291 -114 q 298 -139 298 -171 l 298 -171 q 298 -202 287 -225 q 276 -249 246 -249 l 246 -249 q 228 -249 216 -238 q 203 -228 198 -210 q 192 -193 192 -172 l 192 -172 q 192 -133 203 -103 q 214 -74 231 -43 l 231 -43 l 100 13 q 68 -27 47 -73 q 26 -119 26 -178 l 26 -178 q 26 -237 53 -280 q 80 -324 129 -348 q 178 -372 244 -372 z m 781 -581 l 781 -581 q 842 -581 887 -565 q 932 -550 963 -519 l 963 -519 q 1001 -482 1016 -432 q 1031 -383 1031 -305 l 1031 -305 l 1031 0 l 529 0 l 529 -305 q 529 -358 536 -396 q 542 -435 557 -465 q 572 -496 597 -520 l 597 -520 q 629 -550 674 -565 q 719 -581 781 -581 z m 780 -455 l 780 -455 q 761 -455 746 -449 q 731 -443 721 -432 l 721 -432 q 705 -413 700 -384 q 695 -355 695 -302 l 695 -302 l 695 -124 l 864 -124 l 864 -302 q 864 -355 860 -384 q 855 -414 838 -432 l 838 -432 q 829 -443 815 -449 q 801 -455 780 -455 z"},"ബ":{"ha":1274,"x_min":32,"x_max":1224,"o":"m 360 -581 l 360 -581 q 438 -581 492 -558 q 546 -536 592 -480 l 592 -480 l 621 -404 l 646 -317 l 646 0 l 479 0 l 479 -292 q 479 -353 472 -384 q 464 -415 443 -432 l 443 -432 q 429 -444 409 -450 q 388 -457 358 -457 l 358 -457 q 312 -457 272 -434 q 231 -411 206 -363 q 181 -316 181 -241 l 181 -241 l 181 -236 q 181 -181 188 -153 q 195 -125 208 -116 q 220 -107 233 -107 l 233 -107 q 245 -107 254 -113 q 262 -119 267 -134 q 271 -149 271 -173 l 271 -173 q 271 -211 260 -226 q 248 -242 228 -242 l 228 -242 q 204 -242 184 -224 q 163 -206 130 -162 l 130 -162 l 105 -277 q 139 -311 181 -334 q 222 -357 274 -357 l 274 -357 q 327 -357 362 -334 q 397 -312 414 -273 q 431 -234 431 -183 l 431 -183 q 431 -121 410 -77 q 388 -33 345 -10 q 302 12 237 12 l 237 12 q 179 12 133 -13 q 86 -39 59 -95 q 32 -152 32 -245 l 32 -245 q 32 -356 75 -430 q 118 -505 192 -543 q 266 -581 360 -581 z m 1057 -569 l 1224 -569 l 1224 0 l 799 0 l 732 -71 q 757 -117 772 -155 q 787 -193 794 -228 q 800 -264 800 -303 l 800 -303 q 800 -360 786 -393 q 772 -427 751 -441 q 730 -456 707 -456 l 707 -456 q 694 -456 685 -452 q 675 -449 668 -442 l 668 -442 q 656 -431 651 -409 q 646 -387 646 -342 l 646 -342 l 646 -10 l 500 -10 l 500 -232 l 528 -424 l 543 -501 q 584 -547 628 -564 q 672 -581 727 -581 l 727 -581 q 804 -581 858 -546 q 912 -511 941 -448 q 969 -386 969 -305 l 969 -305 q 969 -263 963 -228 q 956 -194 944 -164 q 932 -134 913 -104 l 913 -104 l 882 -124 l 1057 -124 l 1057 -569 z"},"ഭ":{"ha":674,"x_min":35,"x_max":648,"o":"m 403 -581 l 403 -581 q 480 -581 535 -563 q 589 -545 619 -510 q 648 -475 648 -423 l 648 -423 q 648 -392 638 -367 q 628 -342 607 -327 l 607 -327 q 584 -311 552 -306 q 519 -301 476 -301 l 476 -301 l 462 -301 q 449 -301 442 -299 q 434 -298 429 -295 l 429 -295 q 425 -292 423 -287 q 420 -283 420 -277 l 420 -277 q 420 -263 433 -260 q 445 -257 458 -257 l 458 -257 l 469 -257 q 512 -257 544 -250 q 575 -243 597 -228 l 597 -228 q 620 -212 633 -187 q 646 -163 646 -129 l 646 -129 q 646 -90 627 -58 q 608 -26 563 -7 q 518 12 443 12 l 443 12 q 408 12 376 9 q 344 5 316 -2 q 287 -9 259 -18 l 259 -18 l 307 -127 q 342 -116 371 -111 q 400 -106 433 -106 l 433 -106 q 466 -106 480 -112 q 493 -118 493 -130 l 493 -130 q 493 -140 486 -145 q 478 -150 459 -150 l 459 -150 l 451 -150 q 395 -150 362 -158 q 328 -166 305 -186 l 305 -186 q 287 -202 277 -225 q 267 -248 267 -276 l 267 -276 q 267 -310 280 -333 q 292 -356 312 -371 l 312 -371 q 337 -388 370 -395 q 402 -403 448 -403 l 448 -403 l 457 -403 q 478 -403 485 -408 q 492 -414 492 -424 l 492 -424 q 492 -441 470 -450 q 447 -459 405 -459 l 405 -459 q 332 -459 288 -430 q 243 -402 224 -349 q 204 -296 204 -221 l 204 -221 q 204 -169 210 -120 q 216 -71 227 -29 l 227 -29 l 69 4 q 53 -46 44 -108 q 35 -171 35 -226 l 35 -226 q 35 -335 72 -414 q 109 -494 190 -537 q 271 -581 403 -581 z"},"മ":{"ha":735,"x_min":45,"x_max":690,"o":"m 360 -581 l 360 -581 q 445 -581 506 -562 q 566 -543 605 -506 l 605 -506 q 633 -481 652 -448 q 671 -415 681 -368 q 690 -322 690 -251 l 690 -251 l 690 0 l 45 0 l 45 -249 q 45 -322 56 -370 q 66 -419 86 -452 q 106 -486 135 -511 l 135 -511 q 173 -545 230 -563 q 287 -581 360 -581 z m 278 -449 l 278 -449 q 264 -449 254 -441 q 243 -434 234 -421 l 234 -421 q 223 -402 217 -370 q 210 -339 210 -274 l 210 -274 l 210 -68 l 171 -69 q 211 -116 244 -169 q 276 -223 296 -278 q 316 -334 316 -388 l 316 -388 q 316 -409 312 -422 q 308 -436 300 -442 q 291 -449 278 -449 z m 480 -355 l 480 -355 q 480 -312 469 -272 q 457 -233 436 -194 q 414 -156 384 -114 l 384 -114 l 375 -119 q 393 -122 414 -122 q 435 -123 457 -123 l 457 -123 l 526 -123 l 526 -268 q 526 -331 516 -370 q 505 -409 485 -431 q 464 -454 432 -467 l 432 -467 l 431 -474 q 455 -452 468 -422 q 480 -392 480 -355 z"},"യ":{"ha":1010,"x_min":31,"x_max":975,"o":"m 645 12 l 645 12 q 593 12 544 -1 q 495 -14 454 -40 l 454 -40 q 447 -45 442 -54 q 436 -64 428 -69 l 428 -69 q 384 -101 352 -143 q 320 -185 303 -236 q 286 -288 286 -346 l 286 -346 q 286 -386 296 -419 q 305 -453 319 -478 l 319 -478 l 347 -517 q 364 -538 388 -552 q 412 -567 443 -574 q 474 -581 508 -581 l 508 -581 q 616 -581 673 -517 q 729 -454 729 -345 l 729 -345 q 729 -248 688 -176 q 646 -104 579 -60 l 579 -60 q 572 -56 564 -48 q 556 -40 548 -35 l 548 -35 q 504 -12 460 0 q 415 12 363 12 l 363 12 q 276 12 214 -15 q 151 -42 111 -89 q 70 -136 51 -197 q 31 -258 31 -327 l 31 -327 q 31 -403 58 -459 q 84 -516 137 -548 q 189 -581 268 -581 l 268 -581 q 327 -581 375 -554 q 422 -527 453 -472 l 453 -472 l 338 -410 q 323 -436 306 -447 q 289 -459 271 -459 l 271 -459 q 249 -459 233 -444 q 216 -430 207 -402 q 198 -374 198 -334 l 198 -334 q 198 -264 219 -213 q 240 -163 279 -135 q 317 -107 368 -107 l 368 -107 q 389 -107 408 -111 q 426 -115 442 -122 l 442 -122 q 450 -126 458 -127 q 465 -129 472 -133 l 472 -133 q 502 -155 523 -189 q 543 -224 553 -265 q 563 -307 563 -348 l 563 -348 q 563 -389 556 -413 q 548 -437 536 -447 q 523 -457 508 -457 l 508 -457 q 494 -457 481 -448 q 468 -439 460 -415 q 452 -392 452 -347 l 452 -347 q 452 -310 461 -270 q 470 -231 488 -196 q 505 -162 530 -139 l 530 -139 q 538 -133 549 -129 q 560 -126 570 -122 l 570 -122 q 586 -116 604 -111 q 622 -107 642 -107 l 642 -107 q 695 -107 732 -130 q 768 -153 787 -198 q 805 -243 805 -311 l 805 -311 q 805 -360 792 -411 q 778 -462 748 -516 l 748 -516 l 890 -581 q 934 -516 955 -449 q 975 -383 975 -313 l 975 -313 q 975 -254 961 -196 q 946 -138 910 -91 q 874 -45 810 -16 q 745 12 645 12 z"},"ര":{"ha":732,"x_min":33,"x_max":702,"o":"m 361 -581 l 361 -581 q 449 -581 513 -553 q 577 -526 619 -478 q 661 -430 682 -368 q 702 -306 702 -237 l 702 -237 q 702 -153 677 -97 q 652 -42 604 -15 q 555 12 482 12 l 482 12 q 409 12 365 -17 q 320 -46 300 -95 q 279 -144 279 -204 l 279 -204 q 279 -303 325 -355 q 370 -408 453 -408 l 453 -408 q 503 -408 540 -379 q 576 -351 599 -307 q 621 -263 628 -217 l 628 -217 l 564 -212 q 559 -237 550 -256 q 541 -275 527 -286 q 513 -297 493 -297 l 493 -297 q 468 -297 454 -276 q 440 -255 440 -202 l 440 -202 q 440 -168 446 -148 q 452 -128 463 -119 q 473 -110 485 -110 l 485 -110 q 503 -110 515 -120 q 527 -131 533 -158 q 538 -186 538 -234 l 538 -234 q 538 -255 537 -272 q 536 -290 534 -305 l 534 -305 q 534 -309 534 -318 q 534 -327 533 -331 l 533 -331 q 528 -364 507 -392 q 485 -420 450 -437 q 414 -455 367 -455 l 367 -455 q 314 -455 278 -435 q 241 -416 223 -378 q 204 -341 204 -287 l 204 -287 q 204 -243 214 -204 q 224 -166 242 -129 q 260 -92 285 -55 l 285 -55 l 154 13 q 118 -26 91 -71 q 64 -116 49 -171 q 33 -226 33 -294 l 33 -294 q 33 -348 51 -399 q 69 -451 109 -492 q 148 -533 211 -557 q 273 -581 361 -581 z"},"റ":{"ha":656,"x_min":32,"x_max":624,"o":"m 329 -581 l 329 -581 q 412 -581 469 -556 q 526 -532 560 -490 q 594 -449 609 -397 q 624 -346 624 -292 l 624 -292 q 624 -227 608 -172 q 592 -118 565 -72 q 537 -26 502 13 l 502 13 l 370 -56 q 396 -93 415 -130 q 433 -167 443 -207 q 453 -247 453 -291 l 453 -291 q 453 -340 439 -377 q 425 -414 399 -434 q 372 -455 331 -455 l 331 -455 q 293 -455 264 -436 q 235 -417 220 -380 q 204 -343 204 -291 l 204 -291 q 204 -245 214 -206 q 224 -167 242 -130 q 260 -93 285 -56 l 285 -56 l 153 13 q 118 -26 91 -70 q 63 -115 48 -170 q 32 -226 32 -294 l 32 -294 q 32 -343 47 -393 q 62 -444 96 -486 q 130 -529 187 -555 q 244 -581 329 -581 z"},"ല":{"ha":824,"x_min":47,"x_max":774,"o":"m 607 -569 l 774 -569 l 774 0 l 47 0 l 47 -303 q 47 -384 65 -435 q 82 -486 115 -519 l 115 -519 q 146 -549 190 -565 q 233 -581 292 -581 l 292 -581 q 355 -581 400 -564 q 444 -548 474 -517 l 474 -517 q 506 -482 522 -432 q 537 -383 537 -304 l 537 -304 l 537 -210 l 212 -210 l 212 -124 l 607 -124 l 607 -569 z m 292 -457 l 292 -457 q 250 -457 231 -429 q 212 -401 212 -347 l 212 -347 l 212 -332 l 371 -332 l 371 -346 q 371 -401 351 -429 q 331 -457 292 -457 z"},"ള":{"ha":708,"x_min":30,"x_max":680,"o":"m 372 -460 l 372 -460 q 333 -460 301 -454 q 268 -448 243 -438 q 218 -429 201 -416 q 183 -404 174 -391 l 174 -391 q 168 -381 169 -373 q 170 -366 168 -355 l 168 -355 q 168 -348 167 -334 q 165 -321 165 -307 l 165 -307 q 165 -273 176 -258 q 186 -243 203 -243 l 203 -243 q 221 -243 230 -256 q 239 -269 239 -290 l 239 -290 q 239 -306 235 -316 q 230 -326 221 -330 q 212 -335 201 -335 l 201 -335 q 186 -335 171 -328 q 156 -321 136 -305 l 136 -305 l 87 -351 q 106 -371 131 -388 q 155 -406 185 -417 q 214 -428 246 -428 l 246 -428 q 293 -428 325 -410 q 356 -393 372 -361 q 388 -330 388 -286 l 388 -286 q 388 -246 373 -211 q 357 -176 319 -154 q 280 -133 211 -133 l 211 -133 q 158 -133 117 -154 q 75 -175 53 -217 q 30 -260 30 -323 l 30 -323 q 30 -373 49 -419 q 68 -465 110 -501 q 151 -538 219 -559 q 286 -581 383 -581 l 383 -581 q 476 -581 540 -560 q 604 -539 638 -500 q 671 -461 671 -407 l 671 -407 q 671 -359 647 -326 q 623 -294 576 -276 q 528 -259 459 -256 l 459 -256 l 426 -321 l 426 -343 l 430 -343 q 449 -343 464 -346 q 479 -349 489 -356 l 489 -356 q 497 -362 501 -371 q 505 -380 505 -393 l 505 -393 q 505 -415 489 -430 q 472 -445 442 -452 q 412 -460 372 -460 z m 680 -159 l 680 -159 q 680 -116 663 -86 q 646 -56 621 -37 l 621 -37 q 601 -22 575 -14 q 549 -6 516 -3 q 482 0 439 0 l 439 0 l 294 0 q 260 0 245 2 q 229 4 220 9 l 220 9 q 210 13 205 21 q 200 28 200 39 l 200 39 q 200 49 205 57 q 209 64 217 69 l 217 69 q 226 75 243 78 q 259 81 295 81 l 295 81 l 667 81 l 667 206 l 298 206 q 225 206 184 200 q 142 193 111 176 l 111 176 q 76 158 55 126 q 33 93 33 44 l 33 44 q 33 1 49 -30 q 65 -61 93 -81 l 93 -81 q 116 -97 144 -106 q 171 -115 208 -119 q 245 -123 299 -123 l 299 -123 l 423 -123 q 454 -123 471 -125 q 488 -128 498 -136 l 498 -136 q 506 -142 510 -151 q 514 -160 514 -173 l 514 -173 q 514 -188 508 -198 q 501 -208 490 -214 l 490 -214 q 480 -219 467 -221 q 454 -223 432 -223 l 432 -223 l 426 -223 l 426 -335 l 570 -296 q 626 -279 653 -243 q 680 -207 680 -159 z"},"ഴ":{"ha":670,"x_min":28,"x_max":642,"o":"m 245 -417 l 245 -417 q 245 -490 293 -535 q 341 -581 436 -581 l 436 -581 q 511 -581 556 -553 q 601 -526 622 -484 q 642 -442 642 -398 l 642 -398 q 642 -325 613 -272 q 583 -219 523 -189 q 463 -160 373 -160 l 373 -160 l 324 -160 q 235 -160 169 -188 q 102 -217 65 -271 q 28 -326 28 -404 l 28 -404 q 28 -448 43 -493 q 57 -538 82 -581 l 82 -581 l 224 -523 q 211 -495 204 -467 q 196 -439 196 -410 l 196 -410 q 196 -363 213 -331 q 230 -299 262 -283 q 294 -268 339 -268 l 339 -268 l 359 -268 q 401 -268 427 -286 q 453 -304 466 -335 q 478 -366 478 -405 l 478 -405 q 478 -438 468 -452 q 458 -466 440 -466 l 440 -466 q 430 -466 422 -460 q 413 -454 409 -443 q 404 -432 404 -416 l 404 -416 q 404 -386 416 -355 q 428 -324 443 -290 q 458 -256 470 -218 q 481 -181 481 -138 l 481 -138 q 481 -101 466 -66 q 450 -31 412 -9 q 373 12 302 12 l 302 12 q 260 12 219 5 q 178 -2 136 -18 l 136 -18 l 185 -132 q 210 -120 231 -116 q 251 -113 272 -113 l 272 -113 q 300 -113 311 -128 q 322 -143 322 -160 l 322 -160 q 322 -189 310 -219 q 298 -250 283 -282 q 268 -314 257 -347 q 245 -381 245 -417 z"},"വ":{"ha":925,"x_min":32,"x_max":875,"o":"m 329 -581 l 329 -581 q 412 -581 469 -556 q 525 -532 559 -491 q 593 -450 608 -399 q 622 -349 622 -297 l 622 -297 q 622 -242 609 -198 q 596 -155 571 -115 q 546 -76 511 -35 l 511 -35 l 559 -124 l 708 -124 l 708 -569 l 875 -569 l 875 0 l 453 0 l 383 -77 q 402 -105 418 -138 q 433 -171 443 -209 q 453 -247 453 -291 l 453 -291 q 453 -340 439 -377 q 425 -414 399 -435 q 372 -456 331 -456 l 331 -456 q 293 -456 264 -436 q 235 -417 220 -380 q 204 -343 204 -291 l 204 -291 q 204 -245 214 -205 q 224 -166 242 -129 q 260 -93 285 -56 l 285 -56 l 153 14 q 118 -25 91 -70 q 63 -115 48 -170 q 32 -226 32 -294 l 32 -294 q 32 -343 47 -393 q 62 -444 96 -486 q 130 -529 187 -555 q 244 -581 329 -581 z"},"ശ":{"ha":1014,"x_min":33,"x_max":984,"o":"m 642 -581 l 642 -581 q 729 -581 794 -553 q 858 -526 901 -478 q 943 -430 964 -368 q 984 -306 984 -237 l 984 -237 q 984 -153 959 -97 q 934 -42 886 -15 q 837 12 764 12 l 764 12 q 692 12 647 -17 q 602 -46 582 -95 q 562 -144 562 -204 l 562 -204 q 562 -303 608 -355 q 653 -408 735 -408 l 735 -408 q 786 -408 823 -379 q 859 -351 882 -307 q 904 -263 911 -217 l 911 -217 l 846 -212 q 842 -237 833 -256 q 824 -275 810 -286 q 796 -297 776 -297 l 776 -297 q 750 -297 737 -276 q 723 -255 723 -202 l 723 -202 q 723 -168 729 -148 q 735 -128 745 -119 q 755 -110 768 -110 l 768 -110 q 786 -110 798 -120 q 809 -131 815 -158 q 821 -186 821 -234 l 821 -234 q 821 -255 820 -272 q 818 -290 816 -305 l 816 -305 q 816 -309 816 -318 q 816 -327 815 -331 l 815 -331 q 811 -364 789 -392 q 767 -420 733 -437 q 698 -455 653 -455 l 653 -455 q 622 -455 599 -449 q 576 -443 559 -430 l 559 -430 q 534 -410 524 -375 q 513 -341 513 -277 l 513 -277 l 513 -238 q 513 -163 497 -116 q 481 -69 447 -39 l 447 -39 q 417 -13 376 0 q 335 12 280 12 l 280 12 q 199 12 144 -23 q 89 -58 61 -120 q 33 -182 33 -264 l 33 -264 q 33 -327 47 -380 q 60 -434 85 -483 q 110 -532 144 -582 l 144 -582 l 279 -513 q 255 -470 238 -431 q 221 -393 212 -352 q 202 -312 202 -265 l 202 -265 q 202 -208 214 -174 q 225 -141 244 -127 q 263 -113 285 -113 l 285 -113 q 298 -113 308 -116 q 318 -120 325 -128 l 325 -128 q 336 -140 340 -159 q 344 -178 344 -219 l 344 -219 l 344 -295 q 344 -383 371 -440 q 397 -498 446 -530 l 446 -530 q 483 -556 532 -568 q 581 -581 642 -581 z"},"ഷ":{"ha":1146,"x_min":26,"x_max":1096,"o":"m 244 -372 l 244 -372 q 322 -372 369 -344 q 415 -316 436 -272 q 457 -229 457 -183 l 457 -183 q 457 -157 450 -128 q 442 -99 429 -77 l 429 -77 l 426 -124 l 668 -124 l 669 0 l 325 0 l 273 -72 q 283 -89 291 -114 q 298 -139 298 -171 l 298 -171 q 298 -202 287 -225 q 276 -249 246 -249 l 246 -249 q 228 -249 216 -238 q 203 -228 198 -210 q 192 -193 192 -172 l 192 -172 q 192 -133 203 -103 q 214 -74 231 -43 l 231 -43 l 100 13 q 68 -27 47 -73 q 26 -119 26 -178 l 26 -178 q 26 -237 53 -280 q 80 -324 129 -348 q 178 -372 244 -372 z m 1096 0 l 641 0 l 641 -407 q 641 -422 640 -433 q 639 -444 634 -451 l 634 -451 q 630 -455 626 -457 q 621 -460 614 -460 l 614 -460 q 600 -460 592 -448 q 583 -436 583 -413 l 583 -413 q 583 -391 589 -375 q 595 -359 614 -349 q 632 -340 666 -340 l 666 -340 l 714 -340 q 759 -340 794 -362 q 829 -384 856 -419 q 882 -455 902 -494 q 921 -534 934 -569 l 934 -569 l 1096 -569 l 1096 0 z m 621 -581 l 621 -581 q 665 -581 696 -571 q 727 -561 749 -543 l 749 -543 q 777 -520 790 -481 q 803 -443 803 -389 l 803 -389 l 803 -124 l 933 -124 l 933 -263 q 933 -286 935 -307 q 936 -329 938 -347 q 939 -366 941 -379 l 941 -379 l 944 -365 q 925 -322 890 -290 q 855 -258 813 -240 q 771 -223 727 -223 l 727 -223 l 665 -223 q 580 -223 530 -249 q 479 -276 456 -319 q 433 -362 433 -411 l 433 -411 q 433 -456 455 -495 q 476 -534 518 -557 q 560 -581 621 -581 z"},"സ":{"ha":1167,"x_min":33,"x_max":1134,"o":"m 598 -581 l 598 -581 q 645 -581 684 -567 q 723 -554 751 -530 l 751 -530 q 774 -509 789 -481 q 804 -453 811 -415 q 818 -377 818 -323 l 818 -323 l 818 -223 q 818 -184 823 -162 q 828 -140 841 -128 l 841 -128 q 848 -120 859 -116 q 869 -113 882 -113 l 882 -113 q 904 -113 923 -127 q 941 -141 953 -174 q 965 -208 965 -265 l 965 -265 q 965 -312 956 -352 q 947 -393 930 -431 q 912 -470 888 -513 l 888 -513 l 1023 -582 q 1057 -532 1082 -483 q 1107 -434 1121 -380 q 1134 -327 1134 -264 l 1134 -264 q 1134 -182 1106 -120 q 1077 -58 1022 -23 q 967 12 885 12 l 885 12 q 828 12 789 0 q 750 -12 719 -38 l 719 -38 q 696 -59 681 -87 q 665 -115 658 -154 q 650 -194 650 -246 l 650 -246 l 650 -336 q 650 -380 646 -404 q 641 -428 627 -441 l 627 -441 q 619 -448 609 -452 q 599 -456 585 -456 l 585 -456 q 571 -456 561 -452 q 550 -448 542 -440 l 542 -440 q 529 -428 525 -406 q 520 -384 520 -343 l 520 -343 l 520 0 l 353 0 l 353 -342 q 353 -383 349 -405 q 345 -428 331 -441 l 331 -441 q 324 -448 315 -452 q 305 -456 293 -456 l 293 -456 q 271 -456 251 -442 q 230 -428 216 -394 q 202 -361 202 -303 l 202 -303 q 202 -260 211 -219 q 220 -179 237 -139 q 254 -100 278 -58 l 278 -58 l 143 12 q 110 -38 85 -86 q 59 -135 46 -188 q 33 -242 33 -305 l 33 -305 q 33 -386 62 -448 q 90 -511 144 -546 q 198 -581 274 -581 l 274 -581 q 328 -581 368 -564 q 408 -547 446 -508 l 446 -508 l 422 -500 q 457 -542 499 -561 q 540 -581 598 -581 z"},"ഹ":{"ha":1145,"x_min":26,"x_max":1112,"o":"m 244 -372 l 244 -372 q 322 -372 369 -344 q 415 -316 436 -272 q 457 -229 457 -183 l 457 -183 q 457 -157 450 -128 q 442 -99 429 -77 l 429 -77 l 426 -124 l 642 -124 l 670 0 l 325 0 l 273 -72 q 283 -89 291 -114 q 298 -139 298 -171 l 298 -171 q 298 -202 287 -225 q 276 -249 246 -249 l 246 -249 q 228 -249 216 -238 q 203 -228 198 -210 q 192 -193 192 -172 l 192 -172 q 192 -133 203 -103 q 214 -74 231 -43 l 231 -43 l 100 13 q 68 -27 47 -73 q 26 -119 26 -178 l 26 -178 q 26 -237 53 -280 q 80 -324 129 -348 q 178 -372 244 -372 z m 817 -581 l 817 -581 q 901 -581 958 -556 q 1014 -532 1048 -490 q 1082 -449 1097 -397 q 1112 -346 1112 -292 l 1112 -292 q 1112 -227 1097 -172 q 1081 -118 1054 -72 q 1026 -26 990 14 l 990 14 l 858 -56 q 884 -92 903 -129 q 921 -167 931 -207 q 941 -247 941 -291 l 941 -291 q 941 -340 928 -377 q 914 -414 887 -434 q 860 -455 819 -455 l 819 -455 q 781 -455 753 -436 q 724 -417 708 -380 q 692 -343 692 -291 l 692 -291 q 692 -247 702 -210 q 711 -173 727 -140 q 742 -108 760 -77 l 760 -77 l 691 0 l 631 0 l 609 -65 q 583 -96 563 -130 q 543 -165 532 -206 q 521 -247 521 -299 l 521 -299 q 521 -346 536 -395 q 550 -445 584 -487 q 618 -529 675 -555 q 732 -581 817 -581 z"},"ഺ":{"ha":661,"x_min":14,"x_max":642,"o":"m 202 -124 l 642 -124 l 642 0 l 441 0 l 441 202 l 275 202 l 275 0 l 98 0 l 14 -105 l 191 -578 l 355 -525 l 202 -124 z"},"഻":{"ha":0,"x_min":-333,"x_max":-225,"o":"m -333 -603 l -333 -864 l -225 -864 l -225 -603 l -333 -603 z"},"഼":{"ha":0,"x_min":-274,"x_max":15,"o":"m -274 -729 l -274 -729 q -274 -788 -237 -826 q -200 -864 -130 -864 l -130 -864 q -60 -864 -22 -826 q 15 -788 15 -729 l 15 -729 q 15 -670 -22 -631 q -59 -593 -130 -593 l -130 -593 q -201 -593 -237 -631 q -274 -669 -274 -729 z m -166 -729 l -166 -729 q -166 -706 -157 -694 q -148 -682 -130 -682 l -130 -682 q -111 -682 -102 -694 q -93 -707 -93 -729 l -93 -729 q -93 -751 -102 -763 q -112 -775 -130 -775 l -130 -775 q -148 -775 -157 -763 q -166 -751 -166 -729 z"},"ഽ":{"ha":475,"x_min":-63,"x_max":538,"o":"m 355 -805 l 355 -805 q 414 -805 450 -782 q 485 -760 506 -723 q 526 -687 538 -646 l 538 -646 l 396 -616 q 391 -641 386 -655 q 381 -669 374 -675 q 366 -681 356 -681 l 356 -681 q 349 -681 344 -679 q 338 -677 334 -672 l 334 -672 q 327 -664 324 -647 q 321 -630 321 -595 l 321 -595 l 321 -17 q 321 55 309 109 q 297 163 255 199 l 255 199 q 231 220 198 232 q 165 244 120 244 l 120 244 q 61 244 26 222 q -10 199 -30 163 q -50 126 -63 85 l -63 85 l 79 55 q 84 80 89 94 q 94 108 102 114 q 109 120 118 120 l 118 120 q 125 120 131 118 q 136 116 140 111 l 140 111 q 148 103 151 86 q 153 68 153 34 l 153 34 l 153 -544 q 153 -616 166 -670 q 178 -724 220 -760 l 220 -760 q 244 -782 277 -793 q 309 -805 355 -805 z"},"ാ":{"ha":518,"x_min":13,"x_max":484,"o":"m 484 -287 l 484 -287 q 484 -218 473 -162 q 461 -107 434 -68 q 406 -30 360 -9 q 314 12 245 12 l 245 12 q 180 12 139 -5 q 97 -22 72 -50 q 47 -78 34 -113 q 20 -149 13 -186 l 13 -186 l 182 -216 q 188 -182 197 -159 q 205 -136 218 -124 q 230 -112 250 -112 l 250 -112 q 273 -112 287 -131 q 301 -150 308 -189 q 314 -228 314 -288 l 314 -288 q 314 -345 308 -382 q 301 -419 287 -438 q 273 -457 250 -457 l 250 -457 q 232 -457 220 -445 q 207 -433 199 -410 q 190 -387 184 -353 l 184 -353 l 15 -384 q 25 -422 42 -457 q 58 -493 85 -520 q 111 -548 152 -564 q 193 -581 254 -581 l 254 -581 q 321 -581 366 -558 q 410 -536 436 -496 q 462 -456 473 -402 q 484 -349 484 -287 z"},"ി":{"ha":267,"x_min":-231,"x_max":217,"o":"m -14 -853 l -14 -853 q 32 -853 70 -841 q 107 -829 133 -808 l 133 -808 q 165 -784 183 -749 q 201 -714 209 -668 q 217 -622 217 -563 l 217 -563 l 217 0 l 50 0 l 50 -544 q 50 -589 48 -622 q 46 -656 40 -679 q 33 -702 21 -714 l 21 -714 q 14 -722 5 -725 q -5 -729 -17 -729 l -17 -729 q -33 -729 -44 -722 q -55 -715 -60 -703 q -65 -692 -65 -676 l -65 -676 q -65 -665 -63 -655 q -62 -645 -60 -638 l -60 -638 l -223 -618 q -227 -631 -229 -646 q -231 -662 -231 -680 l -231 -680 q -231 -738 -204 -776 q -178 -814 -129 -833 q -81 -853 -14 -853 z"},"ീ":{"ha":267,"x_min":-278,"x_max":217,"o":"m -80 -853 l -80 -853 q -20 -853 28 -839 q 75 -825 113 -798 l 113 -798 q 172 -755 195 -689 q 217 -624 217 -523 l 217 -523 l 217 0 l 50 0 l 50 -514 q 50 -581 45 -624 q 39 -668 27 -694 q 15 -720 -6 -734 l -6 -734 q -26 -746 -50 -751 q -75 -756 -103 -756 l -103 -756 q -117 -756 -129 -751 q -141 -747 -147 -738 q -154 -729 -154 -713 l -154 -713 q -154 -699 -147 -690 q -140 -682 -126 -682 l -126 -682 q -110 -682 -103 -692 q -97 -702 -97 -718 l -97 -718 q -97 -743 -111 -762 q -125 -781 -146 -795 l -146 -795 l -14 -780 q -4 -770 4 -747 q 11 -725 11 -702 l 11 -702 q 11 -670 -4 -642 q -19 -615 -49 -598 q -80 -581 -129 -581 l -129 -581 q -176 -581 -209 -596 q -243 -611 -260 -640 q -278 -669 -278 -711 l -278 -711 q -278 -752 -257 -783 q -237 -815 -193 -834 q -149 -853 -80 -853 z"},"ു":{"ha":359,"x_min":-25,"x_max":367,"o":"m 171 241 l 171 241 q 73 241 24 188 q -25 135 -25 53 l -25 53 q -25 -3 -4 -45 q 17 -88 60 -112 q 103 -136 170 -136 l 170 -136 q 235 -136 279 -112 q 322 -89 345 -46 q 367 -3 367 55 l 367 55 q 367 111 345 153 q 322 195 279 218 q 235 241 171 241 z m 172 124 l 172 124 q 194 124 207 107 q 220 90 220 53 l 220 53 q 220 16 208 -1 q 195 -19 172 -19 l 172 -19 q 148 -19 135 -1 q 122 16 122 53 l 122 53 q 122 88 135 106 q 148 124 172 124 z m 141 -581 l 141 -581 q 202 -581 240 -556 q 278 -532 296 -491 q 313 -451 313 -402 l 313 -402 q 313 -327 298 -257 q 282 -188 255 -104 l 255 -104 l 102 -119 q 120 -191 132 -255 q 144 -320 144 -383 l 144 -383 q 144 -413 133 -434 q 122 -455 91 -455 l 91 -455 q 81 -455 71 -454 q 60 -453 48 -450 l 48 -450 l 24 -567 q 49 -572 77 -576 q 104 -581 141 -581 z"},"ൂ":{"ha":359,"x_min":-25,"x_max":367,"o":"m 171 241 l 171 241 q 73 241 24 188 q -25 135 -25 53 l -25 53 q -25 -3 -4 -45 q 17 -88 60 -112 q 103 -136 170 -136 l 170 -136 q 235 -136 279 -112 q 322 -89 345 -46 q 367 -3 367 55 l 367 55 q 367 111 345 153 q 322 195 279 218 q 235 241 171 241 z m 170 -38 l 170 -38 q 140 -38 114 -17 q 88 4 88 53 l 88 53 q 88 103 113 124 q 137 145 172 145 l 172 145 q 205 145 230 125 q 254 105 254 53 l 254 53 q 254 4 230 -17 q 206 -38 170 -38 z m 173 102 l 173 102 q 123 102 97 72 q 71 41 71 -16 l 71 -16 q 71 -34 81 -55 q 91 -77 110 -102 l 110 -102 l 159 -77 q 145 -66 133 -54 q 121 -43 121 -27 l 121 -27 q 121 -11 128 -1 q 135 8 147 12 q 159 16 172 16 l 172 16 q 190 16 202 10 q 213 4 219 -5 q 224 -15 224 -26 l 224 -26 q 224 -38 215 -51 q 206 -64 190 -73 l 190 -73 l 237 -102 q 258 -78 266 -57 q 274 -37 274 -15 l 274 -15 q 274 17 264 44 q 253 70 231 86 q 209 102 173 102 z m 141 -581 l 141 -581 q 202 -581 240 -556 q 278 -532 296 -491 q 313 -451 313 -402 l 313 -402 q 313 -327 298 -257 q 282 -188 255 -104 l 255 -104 l 102 -119 q 120 -191 132 -255 q 144 -320 144 -383 l 144 -383 q 144 -413 133 -434 q 122 -455 91 -455 l 91 -455 q 81 -455 71 -454 q 60 -453 48 -450 l 48 -450 l 24 -567 q 49 -572 77 -576 q 104 -581 141 -581 z"},"ൃ":{"ha":291,"x_min":-143,"x_max":291,"o":"m 62 336 l 62 336 q -1 336 -47 319 q -93 301 -118 264 q -143 227 -143 172 l -143 172 q -143 106 -96 64 q -49 21 37 21 l 37 21 q 85 21 124 37 q 162 53 195 83 l 195 83 l 149 173 q 127 155 106 146 q 84 136 59 136 l 59 136 q 36 136 24 147 q 12 157 12 175 l 12 175 q 12 195 25 205 q 38 215 60 215 l 60 215 q 83 215 99 205 q 114 194 122 174 q 129 153 129 122 l 129 122 q 129 104 126 81 q 123 57 113 20 q 103 -17 83 -76 l 83 -76 q 61 -138 49 -193 q 36 -249 36 -310 l 36 -310 q 36 -387 56 -451 q 75 -515 103 -569 l 103 -569 l 274 -569 q 250 -520 235 -478 q 219 -437 211 -399 q 203 -361 203 -320 l 203 -320 q 203 -273 213 -228 q 222 -184 240 -129 l 240 -129 q 259 -71 270 -28 q 281 15 286 49 q 291 83 291 118 l 291 118 q 291 196 261 244 q 230 292 179 314 q 127 336 62 336 z"},"ൄ":{"ha":291,"x_min":-261,"x_max":290,"o":"m -12 336 l -12 336 q -92 336 -147 315 q -203 293 -232 253 q -261 212 -261 155 l -261 155 q -261 96 -226 59 q -192 22 -134 22 l -134 22 q -102 22 -82 35 q -62 47 -46 70 l -46 70 l -68 65 q -53 45 -32 34 q -12 22 12 22 l 12 22 q 44 22 63 33 q 82 44 92 62 q 101 80 105 101 q 108 121 108 139 l 108 139 l 108 174 l 23 174 l 23 157 q 23 141 18 134 q 13 126 3 126 l 3 126 q -7 126 -12 134 q -17 141 -17 156 l -17 156 l -17 174 l -99 174 l -99 156 q -99 139 -104 133 q -109 126 -118 126 l -118 126 q -130 126 -135 134 q -140 141 -140 154 l -140 154 q -140 186 -108 202 q -77 218 -13 218 l -13 218 q 55 218 90 196 q 124 174 124 116 l 124 116 q 124 96 122 73 q 120 49 111 14 q 102 -21 84 -75 l 84 -75 q 62 -138 49 -193 q 36 -249 36 -310 l 36 -310 q 36 -387 56 -451 q 75 -515 103 -569 l 103 -569 l 274 -569 q 250 -520 235 -478 q 219 -437 211 -399 q 203 -361 203 -320 l 203 -320 q 203 -273 213 -228 q 222 -183 240 -127 l 240 -127 q 259 -71 270 -29 q 280 12 285 47 q 290 81 290 117 l 290 117 q 290 180 260 230 q 230 279 164 308 q 97 336 -12 336 z"},"െ":{"ha":713,"x_min":32,"x_max":680,"o":"m 238 12 l 238 12 q 180 12 133 -13 q 86 -38 59 -93 q 32 -148 32 -239 l 32 -239 q 32 -311 54 -373 q 76 -436 119 -483 q 162 -530 226 -555 q 289 -581 372 -581 l 372 -581 q 462 -581 522 -555 q 581 -529 616 -486 q 650 -444 665 -392 q 680 -341 680 -290 l 680 -290 q 680 -227 664 -172 q 648 -117 621 -71 q 593 -25 558 14 l 558 14 l 426 -56 q 452 -92 471 -128 q 489 -165 499 -204 q 509 -243 509 -287 l 509 -287 q 509 -338 494 -376 q 478 -414 446 -435 q 414 -456 362 -456 l 362 -456 q 309 -456 268 -429 q 226 -402 204 -352 q 181 -303 181 -237 l 181 -237 q 181 -182 188 -153 q 195 -125 208 -116 q 220 -107 233 -107 l 233 -107 q 245 -107 254 -113 q 262 -119 267 -133 q 271 -148 271 -173 l 271 -173 q 271 -211 260 -226 q 248 -242 228 -242 l 228 -242 q 204 -242 184 -224 q 163 -206 130 -162 l 130 -162 l 105 -277 q 139 -311 180 -334 q 221 -357 274 -357 l 274 -357 q 327 -357 362 -334 q 397 -312 414 -272 q 431 -233 431 -183 l 431 -183 q 431 -122 410 -78 q 388 -35 345 -11 q 302 12 238 12 z"},"േ":{"ha":599,"x_min":32,"x_max":571,"o":"m 347 12 l 347 12 q 276 12 218 -4 q 160 -21 119 -57 q 77 -93 55 -150 q 32 -207 32 -288 l 32 -288 q 32 -362 55 -416 q 78 -471 121 -508 q 164 -545 224 -563 q 284 -581 358 -581 l 358 -581 q 439 -581 486 -559 q 532 -538 552 -503 q 571 -469 571 -428 l 571 -428 q 571 -382 551 -351 q 531 -321 496 -306 q 460 -291 412 -291 l 412 -291 q 351 -291 317 -309 q 283 -327 270 -357 q 256 -387 256 -423 l 256 -423 q 256 -443 264 -465 q 271 -488 278 -500 l 278 -500 l 405 -510 q 391 -493 382 -473 q 372 -454 372 -433 l 372 -433 q 372 -412 381 -402 q 390 -393 404 -393 l 404 -393 q 420 -393 427 -402 q 434 -411 434 -427 l 434 -427 q 434 -445 422 -460 q 409 -475 380 -475 l 380 -475 q 368 -475 353 -474 q 338 -474 326 -474 l 326 -474 q 285 -469 256 -444 q 227 -420 212 -380 q 196 -340 196 -287 l 196 -287 q 196 -232 208 -192 q 219 -152 246 -127 q 273 -103 319 -96 l 319 -96 q 329 -95 344 -94 q 359 -94 372 -94 l 372 -94 q 394 -94 406 -101 q 418 -109 423 -120 q 428 -131 428 -142 l 428 -142 q 428 -158 421 -167 q 414 -177 398 -177 l 398 -177 q 384 -177 375 -167 q 366 -158 366 -136 l 366 -136 q 366 -115 373 -97 q 380 -79 397 -60 l 397 -60 l 264 -80 q 259 -91 255 -109 q 250 -127 250 -143 l 250 -143 q 250 -178 264 -209 q 278 -240 312 -259 q 346 -279 405 -279 l 405 -279 q 453 -279 489 -263 q 525 -248 545 -216 q 565 -185 565 -139 l 565 -139 q 565 -99 545 -64 q 524 -30 477 -9 q 429 12 347 12 z"},"ൈ":{"ha":1427,"x_min":32,"x_max":1394,"o":"m 238 12 l 238 12 q 180 12 133 -13 q 86 -38 59 -93 q 32 -148 32 -239 l 32 -239 q 32 -311 54 -373 q 76 -436 119 -483 q 162 -530 226 -555 q 289 -581 372 -581 l 372 -581 q 462 -581 522 -555 q 581 -529 616 -486 q 650 -444 665 -392 q 680 -341 680 -290 l 680 -290 q 680 -227 664 -172 q 648 -117 621 -71 q 593 -25 558 14 l 558 14 l 426 -56 q 452 -92 471 -128 q 489 -165 499 -204 q 509 -243 509 -287 l 509 -287 q 509 -338 494 -376 q 478 -414 446 -435 q 414 -456 362 -456 l 362 -456 q 309 -456 268 -429 q 226 -402 204 -352 q 181 -303 181 -237 l 181 -237 q 181 -182 188 -153 q 195 -125 208 -116 q 220 -107 233 -107 l 233 -107 q 245 -107 254 -113 q 262 -119 267 -133 q 271 -148 271 -173 l 271 -173 q 271 -211 260 -226 q 248 -242 228 -242 l 228 -242 q 204 -242 184 -224 q 163 -206 130 -162 l 130 -162 l 105 -277 q 139 -311 180 -334 q 221 -357 274 -357 l 274 -357 q 327 -357 362 -334 q 397 -312 414 -272 q 431 -233 431 -183 l 431 -183 q 431 -122 410 -78 q 388 -35 345 -11 q 302 12 238 12 z m 951 12 l 951 12 q 893 12 846 -13 q 799 -38 772 -93 q 745 -148 745 -239 l 745 -239 q 745 -311 767 -373 q 789 -436 832 -483 q 875 -530 939 -555 q 1002 -581 1085 -581 l 1085 -581 q 1175 -581 1235 -555 q 1294 -529 1329 -486 q 1363 -444 1378 -392 q 1393 -341 1393 -290 l 1393 -290 q 1393 -227 1377 -172 q 1361 -117 1334 -71 q 1306 -25 1271 14 l 1271 14 l 1139 -56 q 1165 -92 1184 -128 q 1202 -165 1212 -204 q 1222 -243 1222 -287 l 1222 -287 q 1222 -338 1207 -376 q 1191 -414 1159 -435 q 1127 -456 1075 -456 l 1075 -456 q 1022 -456 981 -429 q 939 -402 917 -352 q 894 -303 894 -237 l 894 -237 q 894 -182 901 -153 q 908 -125 921 -116 q 933 -107 946 -107 l 946 -107 q 958 -107 967 -113 q 975 -119 980 -133 q 984 -148 984 -173 l 984 -173 q 984 -211 973 -226 q 961 -242 941 -242 l 941 -242 q 917 -242 897 -224 q 876 -206 843 -162 l 843 -162 l 818 -277 q 852 -311 893 -334 q 934 -357 987 -357 l 987 -357 q 1040 -357 1075 -334 q 1110 -312 1127 -272 q 1144 -233 1144 -183 l 1144 -183 q 1144 -122 1123 -78 q 1101 -35 1058 -11 q 1015 12 951 12 z"},"ൊ":{"ha":1434,"x_min":32,"x_max":1400,"o":"m 238 12 l 238 12 q 180 12 133 -13 q 86 -38 59 -93 q 32 -148 32 -239 l 32 -239 q 32 -311 54 -373 q 76 -436 119 -483 q 162 -530 226 -555 q 289 -581 372 -581 l 372 -581 q 462 -581 522 -555 q 581 -529 616 -486 q 650 -444 665 -392 q 680 -341 680 -290 l 680 -290 q 680 -227 664 -172 q 648 -117 621 -71 q 593 -25 558 14 l 558 14 l 426 -56 q 452 -92 471 -128 q 489 -165 499 -204 q 509 -243 509 -287 l 509 -287 q 509 -338 494 -376 q 478 -414 446 -435 q 414 -456 362 -456 l 362 -456 q 309 -456 268 -429 q 226 -402 204 -352 q 181 -303 181 -237 l 181 -237 q 181 -182 188 -153 q 195 -125 208 -116 q 220 -107 233 -107 l 233 -107 q 245 -107 254 -113 q 262 -119 267 -133 q 271 -148 271 -173 l 271 -173 q 271 -211 260 -226 q 248 -242 228 -242 l 228 -242 q 204 -242 184 -224 q 163 -206 130 -162 l 130 -162 l 105 -277 q 139 -311 180 -334 q 221 -357 274 -357 l 274 -357 q 327 -357 362 -334 q 397 -312 414 -272 q 431 -233 431 -183 l 431 -183 q 431 -122 410 -78 q 388 -35 345 -11 q 302 12 238 12 z m 825 -202 l 825 -202 q 782 -202 755 -226 q 728 -250 728 -295 l 728 -295 q 728 -342 754 -366 q 780 -390 825 -390 l 825 -390 q 868 -390 893 -366 q 918 -342 918 -295 l 918 -295 q 918 -250 893 -226 q 867 -202 825 -202 z m 1400 -287 l 1400 -287 q 1400 -218 1389 -162 q 1377 -107 1350 -68 q 1322 -30 1276 -9 q 1230 12 1161 12 l 1161 12 q 1096 12 1055 -5 q 1013 -22 988 -50 q 963 -78 950 -113 q 936 -149 929 -186 l 929 -186 l 1098 -216 q 1104 -182 1113 -159 q 1121 -136 1134 -124 q 1146 -112 1166 -112 l 1166 -112 q 1189 -112 1203 -131 q 1217 -150 1224 -189 q 1230 -228 1230 -288 l 1230 -288 q 1230 -345 1224 -382 q 1217 -419 1203 -438 q 1189 -457 1166 -457 l 1166 -457 q 1148 -457 1136 -445 q 1123 -433 1115 -410 q 1106 -387 1100 -353 l 1100 -353 l 931 -384 q 941 -422 958 -457 q 974 -493 1001 -520 q 1027 -548 1068 -564 q 1109 -581 1170 -581 l 1170 -581 q 1237 -581 1282 -558 q 1326 -536 1352 -496 q 1378 -456 1389 -402 q 1400 -349 1400 -287 z"},"ോ":{"ha":1294,"x_min":32,"x_max":1260,"o":"m 347 12 l 347 12 q 276 12 218 -4 q 160 -21 119 -57 q 77 -93 55 -150 q 32 -207 32 -288 l 32 -288 q 32 -362 55 -416 q 78 -471 121 -508 q 164 -545 224 -563 q 284 -581 358 -581 l 358 -581 q 439 -581 486 -559 q 532 -538 552 -503 q 571 -469 571 -428 l 571 -428 q 571 -382 551 -351 q 531 -321 496 -306 q 460 -291 412 -291 l 412 -291 q 351 -291 317 -309 q 283 -327 270 -357 q 256 -387 256 -423 l 256 -423 q 256 -443 264 -465 q 271 -488 278 -500 l 278 -500 l 405 -510 q 391 -493 382 -473 q 372 -454 372 -433 l 372 -433 q 372 -412 381 -402 q 390 -393 404 -393 l 404 -393 q 420 -393 427 -402 q 434 -411 434 -427 l 434 -427 q 434 -445 422 -460 q 409 -475 380 -475 l 380 -475 q 368 -475 353 -474 q 338 -474 326 -474 l 326 -474 q 285 -469 256 -444 q 227 -420 212 -380 q 196 -340 196 -287 l 196 -287 q 196 -232 208 -192 q 219 -152 246 -127 q 273 -103 319 -96 l 319 -96 q 329 -95 344 -94 q 359 -94 372 -94 l 372 -94 q 394 -94 406 -101 q 418 -109 423 -120 q 428 -131 428 -142 l 428 -142 q 428 -158 421 -167 q 414 -177 398 -177 l 398 -177 q 384 -177 375 -167 q 366 -158 366 -136 l 366 -136 q 366 -115 373 -97 q 380 -79 397 -60 l 397 -60 l 264 -80 q 259 -91 255 -109 q 250 -127 250 -143 l 250 -143 q 250 -178 264 -209 q 278 -240 312 -259 q 346 -279 405 -279 l 405 -279 q 453 -279 489 -263 q 525 -248 545 -216 q 565 -185 565 -139 l 565 -139 q 565 -99 545 -64 q 524 -30 477 -9 q 429 12 347 12 z m 685 -202 l 685 -202 q 642 -202 615 -226 q 588 -250 588 -295 l 588 -295 q 588 -342 614 -366 q 640 -390 685 -390 l 685 -390 q 728 -390 753 -366 q 778 -342 778 -295 l 778 -295 q 778 -250 753 -226 q 727 -202 685 -202 z m 1260 -287 l 1260 -287 q 1260 -218 1249 -162 q 1237 -107 1210 -68 q 1182 -30 1136 -9 q 1090 12 1021 12 l 1021 12 q 956 12 915 -5 q 873 -22 848 -50 q 823 -78 810 -113 q 796 -149 789 -186 l 789 -186 l 958 -216 q 964 -182 973 -159 q 981 -136 994 -124 q 1006 -112 1026 -112 l 1026 -112 q 1049 -112 1063 -131 q 1077 -150 1084 -189 q 1090 -228 1090 -288 l 1090 -288 q 1090 -345 1084 -382 q 1077 -419 1063 -438 q 1049 -457 1026 -457 l 1026 -457 q 1008 -457 996 -445 q 983 -433 975 -410 q 966 -387 960 -353 l 960 -353 l 791 -384 q 801 -422 818 -457 q 834 -493 861 -520 q 887 -548 928 -564 q 969 -581 1030 -581 l 1030 -581 q 1097 -581 1142 -558 q 1186 -536 1212 -496 q 1238 -456 1249 -402 q 1260 -349 1260 -287 z"},"ൌ":{"ha":1673,"x_min":32,"x_max":1640,"o":"m 238 12 l 238 12 q 180 12 133 -13 q 86 -38 59 -93 q 32 -148 32 -239 l 32 -239 q 32 -311 54 -373 q 76 -436 119 -483 q 162 -530 226 -555 q 289 -581 372 -581 l 372 -581 q 462 -581 522 -555 q 581 -529 616 -486 q 650 -444 665 -392 q 680 -341 680 -290 l 680 -290 q 680 -227 664 -172 q 648 -117 621 -71 q 593 -25 558 14 l 558 14 l 426 -56 q 452 -92 471 -128 q 489 -165 499 -204 q 509 -243 509 -287 l 509 -287 q 509 -338 494 -376 q 478 -414 446 -435 q 414 -456 362 -456 l 362 -456 q 309 -456 268 -429 q 226 -402 204 -352 q 181 -303 181 -237 l 181 -237 q 181 -182 188 -153 q 195 -125 208 -116 q 220 -107 233 -107 l 233 -107 q 245 -107 254 -113 q 262 -119 267 -133 q 271 -148 271 -173 l 271 -173 q 271 -211 260 -226 q 248 -242 228 -242 l 228 -242 q 204 -242 184 -224 q 163 -206 130 -162 l 130 -162 l 105 -277 q 139 -311 180 -334 q 221 -357 274 -357 l 274 -357 q 327 -357 362 -334 q 397 -312 414 -272 q 431 -233 431 -183 l 431 -183 q 431 -122 410 -78 q 388 -35 345 -11 q 302 12 238 12 z m 825 -202 l 825 -202 q 782 -202 755 -226 q 728 -250 728 -295 l 728 -295 q 728 -342 754 -366 q 780 -390 825 -390 l 825 -390 q 868 -390 893 -366 q 918 -342 918 -295 l 918 -295 q 918 -250 893 -226 q 867 -202 825 -202 z m 1426 -581 l 1426 -581 q 1493 -581 1541 -549 q 1589 -517 1615 -456 q 1640 -396 1640 -311 l 1640 -311 q 1640 -208 1610 -135 q 1580 -63 1517 -25 q 1453 12 1354 12 l 1354 12 q 1282 12 1232 0 q 1182 -12 1131 -35 l 1131 -35 l 1193 -147 q 1229 -130 1264 -122 q 1298 -114 1335 -114 l 1335 -114 q 1385 -114 1415 -135 q 1445 -156 1458 -200 q 1471 -244 1471 -312 l 1471 -312 q 1471 -390 1454 -423 q 1437 -457 1413 -457 l 1413 -457 q 1405 -457 1400 -454 q 1394 -452 1389 -447 l 1389 -447 q 1382 -438 1380 -423 q 1377 -408 1377 -376 l 1377 -376 l 1377 -271 l 1212 -271 l 1212 -361 q 1212 -392 1210 -412 q 1207 -433 1199 -443 l 1199 -443 q 1194 -451 1187 -454 q 1180 -457 1171 -457 l 1171 -457 q 1153 -457 1140 -438 q 1126 -420 1126 -380 l 1126 -380 q 1126 -356 1130 -332 q 1133 -309 1139 -289 l 1139 -289 l 979 -256 q 970 -286 965 -320 q 959 -354 959 -387 l 959 -387 q 959 -438 980 -482 q 1001 -526 1045 -553 q 1088 -581 1158 -581 l 1158 -581 q 1210 -581 1245 -564 q 1279 -547 1307 -515 l 1307 -515 l 1279 -514 q 1309 -550 1343 -565 q 1377 -581 1426 -581 z"},"്":{"ha":0,"x_min":-313,"x_max":76,"o":"m -120 -599 l -120 -599 q -190 -599 -232 -620 q -275 -641 -294 -678 q -313 -716 -313 -764 l -313 -764 q -313 -788 -308 -807 q -303 -827 -298 -840 l -298 -840 l -156 -816 q -159 -807 -161 -794 q -163 -782 -163 -770 l -163 -770 q -163 -752 -158 -739 q -153 -726 -142 -720 q -132 -714 -116 -714 l -116 -714 q -101 -714 -90 -720 q -80 -726 -74 -738 q -68 -751 -68 -770 l -68 -770 q -68 -783 -70 -795 q -72 -807 -74 -816 l -74 -816 l 63 -840 q 67 -828 72 -808 q 76 -788 76 -764 l 76 -764 q 76 -716 58 -678 q 39 -641 -3 -620 q -46 -599 -120 -599 z"},"ൎ":{"ha":0,"x_min":-367,"x_max":-191,"o":"m -367 -844 l -191 -844 l -200 -638 l -359 -638 l -367 -844 z"},"൏":{"ha":1226,"x_min":40,"x_max":1189,"o":"m 583 -581 l 583 -581 q 660 -581 714 -558 q 768 -536 814 -481 l 814 -481 l 766 -501 q 807 -547 851 -564 q 894 -581 950 -581 l 950 -581 q 1028 -581 1082 -539 q 1135 -498 1162 -422 q 1189 -347 1189 -245 l 1189 -245 q 1189 -85 1130 26 q 1070 137 943 195 q 816 252 613 252 l 613 252 q 482 252 386 227 q 289 202 223 156 q 157 110 117 49 q 76 -12 58 -85 q 40 -159 40 -239 l 40 -239 q 40 -317 60 -401 q 79 -486 113 -564 l 113 -564 l 251 -512 q 223 -446 208 -376 q 193 -306 193 -239 l 193 -239 q 193 -176 205 -121 q 217 -66 245 -21 q 273 23 321 55 q 369 87 441 104 q 513 120 613 120 l 613 120 q 743 120 823 92 q 903 64 946 15 q 988 -35 1004 -102 q 1019 -169 1019 -246 l 1019 -246 q 1019 -325 1006 -371 q 993 -417 973 -436 q 952 -456 929 -456 l 929 -456 q 917 -456 908 -452 q 898 -449 891 -442 l 891 -442 q 878 -431 873 -409 q 868 -387 868 -342 l 868 -342 l 868 0 l 702 0 l 702 -292 q 702 -353 694 -384 q 686 -415 665 -432 l 665 -432 q 651 -444 631 -450 q 610 -457 581 -457 l 581 -457 q 535 -457 494 -434 q 453 -411 428 -363 q 403 -316 403 -241 l 403 -241 l 403 -236 q 403 -181 411 -153 q 418 -125 430 -116 q 442 -107 455 -107 l 455 -107 q 467 -107 476 -113 q 484 -119 489 -133 q 493 -148 493 -173 l 493 -173 q 493 -211 482 -226 q 471 -242 451 -242 l 451 -242 q 427 -242 406 -224 q 385 -206 352 -162 l 352 -162 l 328 -277 q 361 -311 403 -334 q 444 -357 496 -357 l 496 -357 q 550 -357 585 -334 q 619 -312 636 -273 q 653 -234 653 -183 l 653 -183 q 653 -121 632 -77 q 610 -33 567 -10 q 524 12 460 12 l 460 12 q 401 12 355 -13 q 308 -39 282 -95 q 255 -152 255 -245 l 255 -245 q 255 -356 298 -430 q 340 -505 414 -543 q 488 -581 583 -581 z"},"ൔ":{"ha":647,"x_min":45,"x_max":640,"o":"m 204 -803 l 204 -803 q 239 -803 265 -795 q 291 -788 308 -776 l 308 -776 q 339 -754 350 -718 q 361 -683 361 -627 l 361 -627 l 361 -474 q 361 -445 367 -415 q 373 -386 389 -356 q 404 -326 433 -296 l 433 -296 l 463 -276 q 494 -242 541 -196 q 588 -151 640 -105 l 640 -105 l 589 0 l 45 0 l 45 -249 q 45 -321 56 -370 q 66 -419 86 -452 q 106 -486 134 -511 l 134 -511 q 172 -544 226 -561 q 280 -579 342 -579 l 342 -579 q 409 -579 461 -557 q 513 -536 543 -493 q 573 -450 573 -387 l 573 -387 q 573 -328 547 -287 q 520 -246 481 -211 l 481 -211 l 452 -198 q 435 -180 412 -158 q 388 -137 362 -117 q 336 -97 311 -80 l 311 -80 l 321 -112 q 340 -116 364 -117 q 387 -118 398 -118 l 398 -118 l 408 -118 q 423 -118 447 -117 q 470 -116 493 -115 q 515 -114 526 -112 l 526 -112 l 506 -59 q 461 -98 432 -124 q 402 -151 377 -182 l 377 -182 l 338 -212 q 293 -251 264 -294 q 235 -338 221 -390 q 207 -443 207 -507 l 207 -507 l 207 -616 q 207 -641 203 -653 q 199 -665 190 -672 l 190 -672 q 185 -675 178 -677 q 170 -680 159 -680 l 159 -680 q 147 -680 135 -678 q 123 -677 111 -673 l 111 -673 l 85 -787 q 112 -796 143 -799 q 173 -803 204 -803 z m 210 -246 l 210 -68 l 161 -78 q 194 -106 227 -138 q 260 -170 290 -203 q 320 -237 343 -267 l 343 -267 l 380 -296 q 394 -314 406 -338 q 417 -362 417 -385 l 417 -385 q 417 -409 407 -427 q 397 -445 378 -455 q 358 -466 329 -466 l 329 -466 q 298 -466 272 -452 q 245 -439 233 -416 l 233 -416 q 225 -401 220 -383 q 215 -366 213 -334 q 210 -303 210 -246 l 210 -246 z"},"ൕ":{"ha":1008,"x_min":32,"x_max":980,"o":"m 668 12 l 668 12 q 624 12 586 6 q 547 0 515 -11 q 483 -23 456 -40 l 456 -40 q 448 -45 443 -54 q 437 -64 429 -69 l 429 -69 q 384 -101 352 -143 q 320 -185 304 -236 q 287 -288 287 -346 l 287 -346 q 287 -386 296 -419 q 305 -453 320 -478 l 320 -478 l 347 -517 q 364 -538 388 -552 q 412 -567 443 -574 q 474 -581 508 -581 l 508 -581 q 616 -581 673 -517 q 729 -454 729 -345 l 729 -345 q 729 -280 709 -226 q 689 -172 656 -130 q 622 -88 580 -60 l 580 -60 q 572 -56 564 -48 q 556 -40 548 -35 l 548 -35 q 505 -12 460 0 q 415 12 364 12 l 364 12 q 277 12 214 -15 q 151 -42 111 -89 q 70 -136 51 -197 q 32 -258 32 -327 l 32 -327 q 32 -403 58 -459 q 84 -516 137 -548 q 190 -581 269 -581 l 269 -581 q 327 -581 375 -554 q 422 -527 454 -472 l 454 -472 l 339 -410 q 323 -436 307 -447 q 290 -459 271 -459 l 271 -459 q 249 -459 233 -444 q 216 -430 207 -402 q 198 -374 198 -334 l 198 -334 q 198 -264 219 -213 q 240 -163 279 -135 q 317 -107 368 -107 l 368 -107 q 389 -107 408 -111 q 426 -115 443 -122 l 443 -122 q 450 -126 458 -127 q 465 -129 472 -133 l 472 -133 q 502 -155 523 -189 q 543 -224 553 -265 q 563 -307 563 -348 l 563 -348 q 563 -389 556 -413 q 548 -437 536 -447 q 523 -457 509 -457 l 509 -457 q 494 -457 481 -448 q 468 -439 461 -415 q 453 -392 453 -347 l 453 -347 q 453 -310 462 -270 q 471 -231 489 -197 q 506 -163 531 -140 l 531 -140 q 539 -134 551 -130 q 562 -126 572 -122 l 572 -122 q 587 -116 607 -111 q 626 -107 657 -107 l 657 -107 q 709 -107 743 -126 q 776 -145 793 -178 q 810 -212 810 -255 l 810 -255 q 810 -284 804 -313 q 798 -342 784 -375 q 770 -409 745 -451 l 745 -451 q 715 -504 697 -539 q 679 -574 672 -602 q 664 -631 664 -662 l 664 -662 q 664 -704 684 -735 q 704 -767 742 -785 q 780 -803 834 -803 l 834 -803 q 872 -803 902 -798 q 931 -794 952 -787 l 952 -787 l 928 -671 q 916 -674 901 -677 q 886 -680 871 -680 l 871 -680 q 850 -680 840 -669 q 830 -658 830 -641 l 830 -641 q 830 -628 835 -613 q 840 -599 853 -576 q 865 -553 888 -514 l 888 -514 q 923 -454 943 -409 q 963 -364 972 -324 q 980 -285 980 -243 l 980 -243 q 980 -208 971 -172 q 962 -136 941 -103 q 919 -71 883 -44 q 847 -18 794 -3 q 741 12 668 12 z"},"ൖ":{"ha":766,"x_min":28,"x_max":738,"o":"m 292 -190 l 292 -190 q 292 -167 300 -149 q 308 -131 324 -121 q 339 -112 362 -112 l 362 -112 q 390 -112 405 -125 q 419 -138 419 -161 l 419 -161 q 419 -191 410 -218 q 401 -245 389 -273 q 377 -301 368 -334 q 359 -367 359 -411 l 359 -411 q 359 -461 382 -499 q 405 -538 445 -559 q 485 -581 535 -581 l 535 -581 q 608 -581 653 -553 q 697 -526 718 -484 q 738 -442 738 -398 l 738 -398 q 738 -327 707 -273 q 676 -220 611 -190 q 545 -161 443 -161 l 443 -161 l 377 -161 q 338 -161 306 -164 q 274 -168 242 -175 l 242 -175 l 193 -185 q 150 -201 112 -229 q 74 -257 51 -299 q 28 -342 28 -404 l 28 -404 q 28 -448 42 -493 q 55 -538 82 -581 l 82 -581 l 220 -525 q 206 -498 198 -469 q 190 -440 190 -411 l 190 -411 q 190 -374 199 -357 q 208 -340 219 -320 l 219 -320 l 272 -286 q 296 -277 326 -272 q 355 -268 385 -268 l 385 -268 l 425 -268 q 479 -268 512 -285 q 545 -302 560 -333 q 574 -365 574 -405 l 574 -405 q 574 -438 564 -452 q 554 -466 536 -466 l 536 -466 q 526 -466 518 -460 q 510 -454 506 -443 q 501 -432 501 -416 l 501 -416 q 501 -386 513 -354 q 525 -323 540 -289 q 555 -256 567 -220 q 578 -184 578 -145 l 578 -145 q 578 -117 569 -89 q 559 -61 536 -38 q 513 -16 472 -2 q 430 12 366 12 l 366 12 q 304 12 256 -8 q 207 -29 179 -72 q 151 -116 151 -185 l 151 -185 q 151 -227 161 -268 q 171 -309 191 -357 q 211 -406 240 -469 l 240 -469 q 259 -511 272 -542 q 284 -573 291 -596 q 297 -619 297 -636 l 297 -636 q 297 -655 286 -667 q 275 -680 252 -680 l 252 -680 q 238 -680 226 -678 q 213 -676 201 -673 l 201 -673 l 174 -786 q 201 -795 233 -799 q 265 -803 296 -803 l 296 -803 q 363 -803 398 -781 q 432 -760 446 -726 q 459 -693 459 -658 l 459 -658 q 459 -634 454 -609 q 448 -585 437 -557 q 426 -529 409 -493 q 391 -457 367 -410 l 367 -410 q 346 -368 332 -335 q 317 -303 309 -277 q 300 -251 296 -230 q 292 -209 292 -190 z"},"ൗ":{"ha":740,"x_min":26,"x_max":707,"o":"m 493 -581 l 493 -581 q 560 -581 608 -549 q 656 -517 682 -456 q 707 -396 707 -311 l 707 -311 q 707 -208 677 -135 q 647 -63 584 -25 q 520 12 421 12 l 421 12 q 349 12 299 0 q 249 -12 198 -35 l 198 -35 l 260 -147 q 296 -130 331 -122 q 365 -114 402 -114 l 402 -114 q 452 -114 482 -135 q 512 -156 525 -200 q 538 -244 538 -312 l 538 -312 q 538 -390 521 -423 q 504 -457 480 -457 l 480 -457 q 472 -457 467 -454 q 461 -452 456 -447 l 456 -447 q 449 -438 447 -423 q 444 -408 444 -376 l 444 -376 l 444 -271 l 279 -271 l 279 -361 q 279 -392 277 -412 q 274 -433 266 -443 l 266 -443 q 261 -451 254 -454 q 247 -457 238 -457 l 238 -457 q 220 -457 207 -438 q 193 -420 193 -380 l 193 -380 q 193 -356 197 -332 q 200 -309 206 -289 l 206 -289 l 46 -256 q 37 -286 32 -320 q 26 -354 26 -387 l 26 -387 q 26 -438 47 -482 q 68 -526 112 -553 q 155 -581 225 -581 l 225 -581 q 277 -581 312 -564 q 346 -547 374 -515 l 374 -515 l 346 -514 q 376 -550 410 -565 q 444 -581 493 -581 z"},"൘":{"ha":1163,"x_min":33,"x_max":1125,"o":"m 577 12 l 577 12 q 523 12 482 -9 q 441 -31 411 -71 l 411 -71 l 437 -56 q 401 -21 363 -4 q 324 12 273 12 l 273 12 q 194 12 141 -25 q 87 -62 60 -124 q 33 -187 33 -265 l 33 -265 q 33 -326 46 -378 q 58 -431 83 -480 q 107 -530 142 -581 l 142 -581 l 278 -511 q 253 -471 236 -431 q 219 -391 211 -350 q 202 -310 202 -266 l 202 -266 q 202 -209 215 -175 q 228 -142 248 -127 q 268 -113 288 -113 l 288 -113 q 302 -113 312 -117 q 321 -121 326 -128 l 326 -128 q 338 -141 341 -164 q 344 -187 344 -227 l 344 -227 l 344 -569 l 511 -569 l 511 -234 q 511 -187 517 -164 q 522 -142 534 -129 l 534 -129 q 542 -122 553 -117 q 564 -113 577 -113 l 577 -113 q 591 -113 602 -117 q 612 -121 619 -129 l 619 -129 q 632 -142 637 -165 q 642 -188 642 -230 l 642 -230 l 642 -569 l 809 -569 l 809 -261 l 739 -67 q 703 -23 663 -5 q 623 12 577 12 z m 885 12 l 885 12 q 831 12 793 -6 q 754 -24 716 -63 l 716 -63 l 651 -260 l 651 -559 l 809 -559 l 809 -229 q 809 -189 813 -165 q 817 -141 830 -128 l 830 -128 q 837 -121 847 -117 q 856 -113 869 -113 l 869 -113 q 900 -113 919 -142 q 937 -171 947 -218 q 956 -266 956 -320 l 956 -320 q 956 -380 947 -438 q 938 -497 917 -548 q 895 -599 856 -637 q 816 -676 756 -698 q 695 -720 608 -720 l 608 -720 q 548 -720 488 -712 q 427 -705 381 -694 l 381 -694 l 359 -820 q 397 -830 438 -836 q 478 -842 525 -845 q 571 -849 624 -849 l 624 -849 q 730 -849 812 -825 q 894 -801 953 -755 q 1012 -709 1051 -645 q 1089 -581 1107 -501 q 1125 -421 1125 -329 l 1125 -329 q 1125 -219 1099 -143 q 1073 -67 1020 -27 q 967 12 885 12 z"},"൙":{"ha":1110,"x_min":33,"x_max":1092,"o":"m 360 -581 l 360 -581 q 449 -581 514 -552 q 579 -524 620 -474 q 661 -425 681 -363 q 701 -301 701 -233 l 701 -233 q 701 -147 676 -93 q 651 -39 603 -13 q 555 12 485 12 l 485 12 q 411 12 368 -13 q 325 -39 307 -79 q 288 -119 288 -163 l 288 -163 q 288 -217 312 -257 q 335 -297 376 -321 l 376 -321 q 400 -334 428 -342 q 455 -350 491 -354 q 526 -358 572 -358 l 572 -358 l 644 -358 l 644 -234 l 570 -234 q 528 -234 508 -229 q 487 -225 474 -216 l 474 -216 q 460 -207 455 -192 q 449 -178 449 -160 l 449 -160 q 449 -139 459 -125 q 468 -112 485 -112 l 485 -112 q 500 -112 512 -121 q 523 -130 530 -154 q 536 -179 536 -224 l 536 -224 q 536 -241 536 -257 q 535 -273 533 -287 l 533 -287 l 532 -310 q 523 -352 503 -384 q 483 -417 450 -436 q 416 -455 366 -455 l 366 -455 q 313 -455 277 -435 q 240 -416 222 -378 q 204 -341 204 -287 l 204 -287 q 204 -243 214 -204 q 224 -166 242 -129 q 260 -92 285 -55 l 285 -55 l 154 13 q 118 -26 91 -71 q 64 -116 49 -171 q 33 -226 33 -294 l 33 -294 q 33 -348 51 -399 q 69 -451 109 -492 q 148 -533 210 -557 q 272 -581 360 -581 z m 913 -569 l 913 -569 q 979 -569 1019 -546 q 1058 -523 1075 -486 q 1092 -450 1092 -410 l 1092 -410 q 1092 -364 1076 -329 q 1060 -295 1032 -275 l 1032 -275 q 1007 -258 981 -249 q 955 -241 923 -237 q 890 -234 844 -234 l 844 -234 l 620 -234 l 620 -358 l 861 -358 q 892 -358 907 -361 q 922 -364 930 -370 l 930 -370 q 938 -376 941 -385 q 944 -394 944 -408 l 944 -408 q 944 -427 935 -437 q 926 -448 912 -448 l 912 -448 q 892 -448 884 -434 q 875 -421 875 -400 l 875 -400 q 875 -370 887 -348 q 898 -326 912 -310 l 912 -310 l 767 -302 q 753 -322 743 -352 q 733 -382 733 -411 l 733 -411 q 733 -463 757 -498 q 781 -533 822 -551 q 862 -569 913 -569 z"},"൚":{"ha":1044,"x_min":33,"x_max":998,"o":"m 668 -581 l 668 -581 q 754 -581 814 -562 q 874 -543 914 -506 l 914 -506 q 942 -481 961 -448 q 979 -415 989 -368 q 998 -321 998 -251 l 998 -251 l 998 0 l 516 0 l 516 -114 q 543 -150 568 -194 q 593 -238 609 -287 q 625 -337 625 -388 l 625 -388 q 625 -409 621 -422 q 616 -436 608 -442 q 600 -449 587 -449 l 587 -449 q 573 -449 562 -441 q 551 -434 543 -421 l 543 -421 q 532 -404 526 -373 q 520 -342 520 -283 l 520 -283 l 520 -230 l 354 -230 l 354 -340 q 354 -384 350 -406 q 346 -429 334 -442 l 334 -442 q 327 -448 317 -452 q 307 -456 294 -456 l 294 -456 q 273 -456 252 -441 q 230 -427 216 -393 q 202 -360 202 -303 l 202 -303 q 202 -260 211 -218 q 220 -177 237 -137 q 254 -98 278 -56 l 278 -56 l 143 13 q 108 -38 84 -88 q 59 -138 46 -191 q 33 -244 33 -304 l 33 -304 q 33 -382 61 -444 q 88 -507 144 -544 q 199 -581 282 -581 l 282 -581 q 318 -581 348 -573 q 378 -566 407 -549 q 436 -532 464 -505 l 464 -505 l 430 -494 q 459 -523 495 -542 q 530 -561 573 -571 q 616 -581 668 -581 z m 789 -355 l 789 -355 q 789 -312 778 -272 q 766 -233 745 -194 q 723 -156 693 -114 l 693 -114 l 684 -119 q 701 -122 723 -122 q 744 -123 766 -123 l 766 -123 l 834 -123 l 834 -268 q 834 -331 824 -370 q 813 -409 793 -431 q 772 -454 740 -467 l 740 -467 l 740 -474 q 764 -452 777 -422 q 789 -392 789 -355 z"},"൛":{"ha":925,"x_min":50,"x_max":893,"o":"m 596 12 l 596 12 q 513 12 456 -12 q 399 -37 366 -78 q 332 -119 317 -169 q 302 -220 302 -272 l 302 -272 q 302 -327 316 -370 q 329 -414 354 -453 q 378 -493 414 -534 l 414 -534 l 365 -445 l 217 -445 l 217 0 l 50 0 l 50 -569 l 471 -569 l 542 -492 q 524 -465 508 -431 q 492 -398 482 -360 q 472 -322 472 -278 l 472 -278 q 472 -230 486 -192 q 499 -155 527 -134 q 554 -113 594 -113 l 594 -113 q 632 -113 661 -133 q 689 -153 705 -189 q 721 -226 721 -278 l 721 -278 q 721 -324 711 -363 q 701 -403 683 -439 q 665 -476 640 -513 l 640 -513 l 772 -583 q 807 -545 835 -499 q 862 -454 878 -399 q 893 -344 893 -275 l 893 -275 q 893 -226 878 -175 q 863 -125 829 -82 q 795 -40 738 -14 q 680 12 596 12 z"},"൜":{"ha":1452,"x_min":33,"x_max":1419,"o":"m 872 -581 l 872 -581 q 930 -581 972 -566 q 1013 -552 1041 -526 l 1041 -526 q 1062 -507 1076 -480 q 1090 -453 1097 -415 q 1103 -378 1103 -323 l 1103 -323 l 1103 -223 q 1103 -184 1108 -162 q 1113 -140 1126 -128 l 1126 -128 q 1133 -120 1144 -116 q 1154 -113 1167 -113 l 1167 -113 q 1189 -113 1208 -127 q 1226 -141 1238 -174 q 1250 -208 1250 -265 l 1250 -265 q 1250 -312 1241 -352 q 1232 -393 1215 -431 q 1197 -470 1173 -513 l 1173 -513 l 1308 -582 q 1342 -532 1367 -483 q 1392 -434 1406 -380 q 1419 -327 1419 -264 l 1419 -264 q 1419 -182 1391 -120 q 1362 -58 1307 -23 q 1252 12 1170 12 l 1170 12 q 1113 12 1074 0 q 1035 -12 1004 -38 l 1004 -38 q 981 -59 966 -87 q 950 -115 943 -154 q 935 -194 935 -246 l 935 -246 l 935 -339 q 935 -380 932 -404 q 928 -428 914 -441 l 914 -441 q 907 -448 897 -452 q 887 -456 873 -456 l 873 -456 q 858 -456 848 -451 q 837 -447 830 -439 l 830 -439 q 818 -425 814 -401 q 810 -377 810 -341 l 810 -341 l 810 -245 q 810 -193 804 -155 q 797 -117 783 -90 q 769 -63 748 -43 l 748 -43 q 720 -16 678 -2 q 636 12 580 12 l 580 12 q 522 12 481 -2 q 439 -16 411 -42 l 411 -42 q 390 -63 376 -89 q 362 -116 355 -154 q 348 -192 348 -245 l 348 -245 l 348 -346 q 348 -383 344 -406 q 339 -429 326 -441 l 326 -441 q 319 -449 309 -452 q 299 -456 285 -456 l 285 -456 q 263 -456 244 -442 q 225 -428 214 -395 q 202 -362 202 -304 l 202 -304 q 202 -257 212 -216 q 221 -176 238 -137 q 255 -99 279 -56 l 279 -56 l 144 13 q 110 -37 85 -86 q 60 -135 47 -188 q 33 -242 33 -305 l 33 -305 q 33 -387 61 -449 q 89 -511 145 -546 q 200 -581 282 -581 l 282 -581 q 339 -581 379 -569 q 419 -557 449 -531 l 449 -531 q 472 -511 487 -482 q 502 -454 510 -415 q 517 -376 517 -323 l 517 -323 l 517 -229 q 517 -189 521 -165 q 525 -141 538 -128 l 538 -128 q 546 -121 556 -117 q 565 -113 579 -113 l 579 -113 q 594 -113 605 -117 q 615 -122 622 -130 l 622 -130 q 635 -144 639 -168 q 642 -192 642 -227 l 642 -227 l 642 -324 q 642 -377 649 -415 q 656 -453 670 -480 q 684 -507 705 -527 l 705 -527 q 734 -553 776 -567 q 817 -581 872 -581 z"},"൝":{"ha":1903,"x_min":8,"x_max":1870,"o":"m 736 -581 l 736 -581 q 794 -581 836 -566 q 877 -552 905 -526 l 905 -526 q 926 -507 940 -480 q 954 -453 961 -415 q 968 -378 968 -323 l 968 -323 l 968 -229 q 968 -189 972 -165 q 976 -141 990 -128 l 990 -128 q 997 -121 1007 -117 q 1017 -113 1031 -113 l 1031 -113 q 1046 -113 1056 -117 q 1066 -122 1073 -130 l 1073 -130 q 1086 -144 1090 -168 q 1093 -192 1093 -227 l 1093 -227 l 1093 -324 q 1093 -377 1100 -415 q 1107 -453 1121 -480 q 1135 -507 1156 -527 l 1156 -527 q 1185 -553 1227 -567 q 1268 -581 1324 -581 l 1324 -581 q 1381 -581 1423 -566 q 1464 -552 1492 -526 l 1492 -526 q 1513 -507 1527 -480 q 1541 -453 1548 -415 q 1555 -378 1555 -323 l 1555 -323 l 1555 -223 q 1555 -184 1560 -162 q 1564 -140 1577 -128 l 1577 -128 q 1584 -120 1595 -116 q 1605 -113 1618 -113 l 1618 -113 q 1641 -113 1660 -127 q 1678 -141 1690 -174 q 1701 -208 1701 -265 l 1701 -265 q 1701 -312 1692 -352 q 1683 -393 1666 -431 q 1648 -470 1624 -513 l 1624 -513 l 1759 -582 q 1794 -532 1819 -483 q 1843 -434 1857 -380 q 1870 -327 1870 -264 l 1870 -264 q 1870 -182 1842 -120 q 1814 -58 1759 -23 q 1703 12 1621 12 l 1621 12 q 1564 12 1525 0 q 1486 -12 1455 -38 l 1455 -38 q 1432 -59 1417 -87 q 1402 -115 1395 -154 q 1387 -194 1387 -246 l 1387 -246 l 1387 -339 q 1387 -380 1383 -404 q 1379 -428 1365 -441 l 1365 -441 q 1358 -448 1348 -452 q 1338 -456 1324 -456 l 1324 -456 q 1309 -456 1299 -451 q 1289 -447 1282 -439 l 1282 -439 q 1269 -425 1266 -401 q 1262 -377 1262 -341 l 1262 -341 l 1262 -245 q 1262 -193 1255 -155 q 1248 -117 1234 -90 q 1220 -63 1199 -43 l 1199 -43 q 1171 -16 1130 -2 q 1088 12 1031 12 l 1031 12 q 973 12 932 -2 q 891 -16 862 -42 l 862 -42 q 841 -63 827 -89 q 813 -116 807 -154 q 800 -192 800 -245 l 800 -245 l 800 -339 q 800 -380 796 -404 q 792 -428 778 -441 l 778 -441 q 771 -448 761 -452 q 751 -456 737 -456 l 737 -456 q 722 -456 712 -451 q 702 -447 694 -439 l 694 -439 q 682 -425 679 -401 q 675 -377 675 -341 l 675 -341 l 675 -246 q 675 -168 659 -119 q 642 -70 606 -39 l 606 -39 q 579 -15 540 -1 q 501 12 453 12 l 453 12 q 396 12 352 -7 q 308 -27 278 -69 l 278 -69 l 302 -61 q 276 -34 252 -18 q 228 -2 200 5 q 172 12 137 12 l 137 12 q 100 12 70 5 q 39 -3 8 -20 l 8 -20 l 54 -132 q 74 -124 94 -118 q 113 -113 133 -113 l 133 -113 q 153 -113 165 -116 q 177 -120 186 -128 l 186 -128 q 200 -141 204 -163 q 208 -186 208 -227 l 208 -227 l 208 -569 l 375 -569 l 375 -226 q 375 -186 380 -163 q 384 -141 397 -129 l 397 -129 q 406 -121 416 -117 q 426 -113 440 -113 l 440 -113 q 454 -113 464 -117 q 474 -121 482 -128 l 482 -128 q 496 -141 501 -165 q 506 -189 506 -233 l 506 -233 l 506 -324 q 506 -377 513 -415 q 520 -453 534 -480 q 548 -507 569 -527 l 569 -527 q 598 -553 640 -567 q 681 -581 736 -581 z"},"൞":{"ha":1356,"x_min":33,"x_max":1330,"o":"m 360 -581 l 360 -581 q 449 -581 514 -552 q 579 -524 620 -474 q 661 -425 681 -363 q 701 -301 701 -233 l 701 -233 q 701 -147 676 -93 q 651 -39 603 -13 q 555 12 485 12 l 485 12 q 411 12 368 -13 q 325 -39 307 -79 q 288 -119 288 -163 l 288 -163 q 288 -217 312 -257 q 335 -297 376 -321 l 376 -321 q 400 -334 428 -342 q 455 -350 491 -354 q 526 -358 572 -358 l 572 -358 l 644 -358 l 644 -234 l 570 -234 q 528 -234 508 -229 q 487 -225 474 -216 l 474 -216 q 460 -207 455 -192 q 449 -178 449 -160 l 449 -160 q 449 -139 459 -125 q 468 -112 485 -112 l 485 -112 q 500 -112 512 -121 q 523 -130 530 -154 q 536 -179 536 -224 l 536 -224 q 536 -241 536 -257 q 535 -273 533 -287 l 533 -287 l 532 -310 q 523 -352 503 -384 q 483 -417 450 -436 q 417 -455 366 -455 l 366 -455 q 313 -455 277 -435 q 240 -416 222 -378 q 204 -341 204 -287 l 204 -287 q 204 -243 214 -204 q 224 -166 242 -129 q 260 -92 285 -55 l 285 -55 l 154 13 q 118 -26 91 -71 q 64 -116 49 -171 q 33 -226 33 -294 l 33 -294 q 33 -348 51 -399 q 69 -451 109 -492 q 148 -533 210 -557 q 272 -581 360 -581 z m 1112 -197 l 1112 -197 q 1035 -197 988 -225 q 941 -254 920 -297 q 899 -341 899 -387 l 899 -387 q 899 -413 907 -441 q 915 -470 927 -492 l 927 -492 l 931 -445 l 806 -445 l 820 -496 q 832 -480 843 -454 q 854 -428 854 -397 l 854 -397 q 854 -344 833 -307 q 811 -271 767 -252 q 723 -234 654 -234 l 654 -234 l 626 -234 l 626 -358 l 664 -358 q 687 -358 700 -364 q 712 -371 717 -381 q 721 -392 721 -405 l 721 -405 q 721 -421 716 -435 q 710 -450 704 -457 l 704 -457 l 745 -569 l 1032 -569 l 1083 -497 q 1074 -481 1066 -456 q 1058 -431 1058 -398 l 1058 -398 q 1058 -367 1070 -343 q 1081 -320 1110 -320 l 1110 -320 q 1129 -320 1141 -330 q 1153 -341 1159 -358 q 1164 -376 1164 -397 l 1164 -397 q 1164 -436 1154 -465 q 1143 -495 1125 -526 l 1125 -526 l 1257 -582 q 1289 -543 1310 -496 q 1330 -450 1330 -391 l 1330 -391 q 1330 -332 1304 -288 q 1277 -245 1228 -221 q 1179 -197 1112 -197 z"},"ൟ":{"ha":1344,"x_min":21,"x_max":1323,"o":"m 21 -273 l 21 -273 q 21 -335 58 -375 q 95 -415 165 -415 l 165 -415 q 233 -415 271 -375 q 309 -335 309 -273 l 309 -273 q 309 -212 273 -171 q 236 -131 165 -131 l 165 -131 q 93 -131 57 -171 q 21 -211 21 -273 z m 128 -273 l 128 -273 q 128 -250 137 -237 q 146 -224 165 -224 l 165 -224 q 183 -224 193 -237 q 202 -250 202 -273 l 202 -273 q 202 -297 193 -309 q 183 -322 165 -322 l 165 -322 q 147 -322 138 -309 q 128 -297 128 -273 z m 1035 -273 l 1035 -273 q 1035 -335 1072 -375 q 1108 -415 1178 -415 l 1178 -415 q 1247 -415 1285 -375 q 1323 -335 1323 -273 l 1323 -273 q 1323 -212 1287 -171 q 1250 -131 1178 -131 l 1178 -131 q 1107 -131 1071 -171 q 1035 -211 1035 -273 z m 1142 -273 l 1142 -273 q 1142 -250 1151 -237 q 1160 -224 1178 -224 l 1178 -224 q 1197 -224 1207 -237 q 1216 -250 1216 -273 l 1216 -273 q 1216 -297 1207 -309 q 1197 -322 1178 -322 l 1178 -322 q 1161 -322 1152 -309 q 1142 -297 1142 -273 z m 666 -581 l 666 -581 q 754 -581 818 -553 q 882 -526 924 -478 q 966 -430 986 -368 q 1006 -306 1006 -237 l 1006 -237 q 1006 -153 982 -97 q 957 -42 909 -15 q 860 12 786 12 l 786 12 q 714 12 670 -17 q 625 -46 605 -95 q 584 -144 584 -204 l 584 -204 q 584 -303 630 -355 q 675 -408 758 -408 l 758 -408 q 808 -408 845 -379 q 881 -351 904 -307 q 926 -263 933 -217 l 933 -217 l 868 -212 q 864 -237 855 -256 q 846 -275 832 -286 q 818 -297 798 -297 l 798 -297 q 773 -297 759 -276 q 745 -255 745 -202 l 745 -202 q 745 -168 751 -148 q 757 -128 768 -119 q 778 -110 790 -110 l 790 -110 q 808 -110 820 -120 q 832 -131 838 -158 q 843 -186 843 -234 l 843 -234 q 843 -255 842 -272 q 841 -290 839 -305 l 839 -305 q 838 -309 839 -318 q 839 -327 838 -331 l 838 -331 q 833 -364 812 -392 q 790 -420 755 -437 q 719 -455 672 -455 l 672 -455 q 618 -455 582 -435 q 546 -416 528 -378 q 509 -341 509 -287 l 509 -287 q 509 -243 519 -204 q 529 -166 547 -129 q 565 -92 590 -55 l 590 -55 l 459 13 q 423 -26 396 -71 q 368 -116 353 -171 q 338 -226 338 -294 l 338 -294 q 338 -348 356 -399 q 374 -451 414 -492 q 453 -533 516 -557 q 578 -581 666 -581 z"},"ൠ":{"ha":903,"x_min":28,"x_max":875,"o":"m 666 -581 l 666 -581 q 764 -581 820 -518 q 875 -455 875 -350 l 875 -350 q 875 -281 856 -233 q 836 -185 801 -152 l 801 -152 q 753 -105 688 -85 q 622 -65 530 -65 l 530 -65 l 483 -65 l 416 -65 l 376 -65 q 280 -65 215 -85 q 149 -105 102 -152 l 102 -152 q 67 -187 48 -235 q 28 -284 28 -354 l 28 -354 q 28 -420 53 -471 q 78 -522 127 -551 q 175 -581 244 -581 l 244 -581 q 305 -581 348 -557 q 391 -534 414 -493 q 437 -452 437 -400 l 437 -400 q 437 -335 415 -296 q 392 -257 352 -240 q 312 -223 258 -223 l 258 -223 q 226 -223 192 -238 q 158 -254 130 -278 q 101 -303 80 -329 l 80 -329 l 124 -418 q 144 -389 160 -370 q 176 -352 192 -342 q 208 -333 227 -333 l 227 -333 q 249 -333 263 -348 q 277 -363 277 -405 l 277 -405 q 277 -435 266 -450 q 255 -465 237 -465 l 237 -465 q 221 -465 208 -454 q 194 -444 187 -421 q 180 -398 180 -358 l 180 -358 q 180 -341 182 -326 q 183 -312 185 -299 l 185 -299 l 190 -263 q 204 -234 229 -216 q 254 -198 288 -188 q 321 -178 361 -174 q 400 -171 444 -171 l 444 -171 l 458 -171 q 502 -171 542 -174 q 581 -178 615 -188 q 648 -198 674 -216 q 699 -234 713 -263 l 713 -263 l 717 -298 q 720 -312 722 -326 q 723 -341 723 -358 l 723 -358 q 723 -398 716 -421 q 709 -444 697 -454 q 684 -465 669 -465 l 669 -465 q 649 -465 638 -449 q 626 -433 626 -400 l 626 -400 q 626 -362 640 -347 q 653 -333 673 -333 l 673 -333 q 694 -333 710 -341 q 726 -350 742 -369 q 758 -388 778 -418 l 778 -418 l 822 -329 q 803 -303 774 -278 q 745 -254 711 -238 q 677 -223 640 -223 l 640 -223 q 589 -223 550 -240 q 510 -257 488 -294 q 466 -332 466 -394 l 466 -394 q 466 -452 491 -494 q 516 -536 561 -558 q 605 -581 666 -581 z m 455 261 l 455 261 q 339 261 258 242 q 177 222 135 178 q 92 133 92 59 l 92 59 q 92 6 119 -29 q 145 -65 189 -86 q 232 -108 285 -117 q 337 -127 389 -127 l 389 -127 l 513 -127 q 565 -127 618 -117 q 670 -108 714 -86 q 758 -65 785 -29 q 811 6 811 59 l 811 59 q 811 133 769 178 q 726 222 647 242 q 567 261 455 261 z m 452 140 l 452 140 q 521 140 567 131 q 612 121 635 100 q 657 78 657 43 l 657 43 q 657 14 643 -4 q 629 -23 603 -34 q 577 -45 540 -49 q 502 -54 457 -54 l 457 -54 l 446 -54 q 385 -54 340 -45 q 294 -37 270 -16 q 245 4 245 43 l 245 43 q 245 78 268 100 q 291 121 337 131 q 383 140 452 140 z m 521 -38 l 521 -38 q 550 -38 569 -27 q 588 -16 599 1 q 609 18 614 37 q 618 56 618 72 l 618 72 l 618 108 l 531 108 l 531 95 q 531 77 528 66 q 525 55 512 55 l 512 55 q 500 55 497 66 q 493 76 493 94 l 493 94 l 493 108 l 409 108 l 409 94 q 409 76 406 66 q 402 55 390 55 l 390 55 q 377 55 374 67 q 371 78 371 95 l 371 95 l 371 108 l 284 108 l 284 74 q 284 57 288 38 q 292 18 302 1 q 312 -16 331 -27 q 350 -38 380 -38 l 380 -38 q 406 -38 422 -29 q 437 -20 451 -6 l 451 -6 q 467 -23 484 -30 q 500 -38 521 -38 z"},"ൡ":{"ha":1306,"x_min":32,"x_max":1286,"o":"m 360 -581 l 360 -581 q 438 -581 492 -558 q 546 -536 591 -481 l 591 -481 l 619 -383 l 646 -221 l 646 0 l 479 0 l 479 -292 q 479 -353 472 -384 q 464 -415 443 -432 l 443 -432 q 429 -444 409 -450 q 388 -457 358 -457 l 358 -457 q 312 -457 272 -434 q 231 -411 206 -363 q 181 -316 181 -241 l 181 -241 l 181 -236 q 181 -181 188 -153 q 195 -126 208 -117 q 220 -108 233 -108 l 233 -108 q 245 -108 254 -114 q 262 -120 267 -134 q 271 -149 271 -174 l 271 -174 q 271 -211 260 -226 q 248 -242 228 -242 l 228 -242 q 204 -242 184 -224 q 163 -206 130 -162 l 130 -162 l 105 -277 q 139 -311 181 -334 q 222 -357 274 -357 l 274 -357 q 327 -357 362 -334 q 397 -312 414 -273 q 431 -234 431 -183 l 431 -183 q 431 -121 410 -77 q 388 -33 345 -10 q 302 12 237 12 l 237 12 q 179 12 133 -13 q 86 -39 59 -95 q 32 -152 32 -245 l 32 -245 q 32 -356 75 -430 q 118 -505 192 -543 q 266 -581 360 -581 z m 780 -581 l 780 -581 q 870 -581 935 -550 q 999 -519 1039 -463 q 1079 -408 1095 -332 l 1095 -332 q 1098 -309 1100 -284 q 1102 -260 1102 -235 l 1102 -235 q 1102 -153 1080 -98 q 1057 -43 1011 -15 q 965 12 893 12 l 893 12 q 828 12 784 -13 q 739 -38 716 -83 q 693 -128 693 -189 l 693 -189 q 693 -296 765 -353 q 836 -410 962 -410 l 962 -410 q 975 -410 987 -409 q 999 -408 1010 -407 l 1010 -407 l 1046 -405 q 1117 -392 1171 -353 q 1224 -314 1255 -251 q 1286 -189 1286 -102 l 1286 -102 q 1286 -45 1272 10 q 1258 64 1224 107 q 1189 150 1129 176 q 1068 201 975 201 l 975 201 q 937 201 903 195 q 868 189 834 178 l 834 178 l 877 60 q 904 68 927 71 q 950 74 973 74 l 973 74 q 1024 74 1055 57 q 1086 40 1102 12 q 1117 -16 1123 -47 q 1128 -78 1128 -105 l 1128 -105 q 1128 -152 1121 -186 q 1114 -221 1098 -245 q 1081 -269 1052 -283 l 1052 -283 l 1007 -290 q 996 -293 985 -293 q 973 -294 960 -294 l 960 -294 q 919 -294 896 -279 q 873 -264 864 -240 q 854 -216 854 -187 l 854 -187 q 854 -160 859 -143 q 864 -127 874 -119 q 884 -112 897 -112 l 897 -112 q 921 -112 935 -136 q 948 -160 948 -232 l 948 -232 q 948 -261 945 -286 q 942 -311 936 -332 l 936 -332 l 923 -371 q 908 -399 888 -417 q 867 -436 841 -445 q 814 -455 781 -455 l 781 -455 q 753 -455 732 -448 q 710 -442 693 -430 l 693 -430 q 675 -416 665 -395 q 654 -375 650 -345 q 646 -316 646 -277 l 646 -277 l 646 -212 l 516 -443 q 548 -488 585 -518 q 622 -549 670 -565 q 718 -581 780 -581 z"},"ൢ":{"ha":0,"x_min":-805,"x_max":-22,"o":"m -569 -29 l -569 -29 q -505 -29 -455 -4 q -405 21 -372 75 l -372 75 l -346 168 l -346 334 l -479 334 l -479 182 q -479 148 -483 124 q -488 100 -502 86 l -502 86 q -514 73 -531 67 q -549 60 -574 60 l -574 60 q -602 60 -624 69 q -646 77 -661 94 q -677 111 -685 137 l -685 137 q -687 146 -688 157 q -689 168 -689 186 l -689 186 q -689 223 -678 237 q -668 250 -653 250 l -653 250 q -638 250 -630 241 q -623 231 -623 209 l -623 209 q -623 189 -631 180 q -640 171 -656 171 l -656 171 q -677 171 -696 185 q -715 199 -738 229 l -738 229 l -763 159 q -737 129 -700 108 q -663 86 -627 86 l -627 86 q -567 86 -538 120 q -509 153 -509 209 l -509 209 q -509 265 -541 301 q -574 337 -644 337 l -644 337 q -722 337 -763 293 q -805 248 -805 170 l -805 170 q -805 104 -773 60 q -742 16 -688 -6 q -635 -29 -569 -29 z m -246 -29 l -246 -29 q -183 -29 -132 -7 q -82 15 -52 61 q -22 106 -22 175 l -22 175 q -22 253 -59 295 q -97 337 -173 337 l -173 337 q -223 337 -254 319 q -285 300 -299 269 q -314 238 -314 199 l -314 199 q -314 156 -297 128 q -280 100 -252 87 q -224 73 -191 73 l -191 73 q -159 73 -134 86 q -110 99 -90 126 q -71 152 -57 194 l -57 194 l -114 200 q -120 180 -132 164 q -144 147 -164 147 l -164 147 q -178 147 -188 158 q -198 169 -198 199 l -198 199 q -198 226 -190 238 q -182 250 -170 250 l -170 250 q -154 250 -146 235 q -139 220 -139 180 l -139 180 q -139 168 -140 156 q -141 144 -144 133 l -144 133 l -149 116 q -160 93 -176 81 q -192 69 -210 65 q -229 60 -248 60 l -248 60 q -266 60 -281 65 q -297 69 -310 79 l -310 79 q -326 92 -335 117 q -345 142 -346 191 l -346 191 l -460 160 q -452 84 -419 44 q -387 3 -340 -13 q -294 -29 -246 -29 z"},"ൣ":{"ha":0,"x_min":-805,"x_max":101,"o":"m -569 -29 l -569 -29 q -505 -29 -455 -4 q -405 21 -372 75 l -372 75 l -346 168 l -346 334 l -479 334 l -479 182 q -479 148 -483 124 q -488 100 -502 86 l -502 86 q -514 73 -531 67 q -549 60 -574 60 l -574 60 q -602 60 -624 69 q -646 77 -661 94 q -677 111 -685 137 l -685 137 q -687 146 -688 157 q -689 168 -689 186 l -689 186 q -689 223 -678 237 q -668 250 -653 250 l -653 250 q -638 250 -630 241 q -623 231 -623 209 l -623 209 q -623 189 -631 180 q -640 171 -656 171 l -656 171 q -677 171 -696 185 q -715 199 -738 229 l -738 229 l -763 159 q -737 129 -700 108 q -663 86 -627 86 l -627 86 q -567 86 -538 120 q -509 153 -509 209 l -509 209 q -509 265 -541 301 q -574 337 -644 337 l -644 337 q -722 337 -763 293 q -805 248 -805 170 l -805 170 q -805 104 -773 60 q -742 16 -688 -6 q -635 -29 -569 -29 z m -246 -29 l -246 -29 q -185 -29 -135 -6 q -86 17 -56 62 q -27 107 -27 174 l -27 174 q -27 230 -43 266 q -59 302 -91 320 q -124 337 -173 337 l -173 337 q -224 337 -255 319 q -286 301 -300 271 q -314 241 -314 205 l -314 205 q -314 130 -262 97 q -210 64 -127 64 l -127 64 q -115 64 -102 65 q -90 65 -79 66 l -79 66 q -29 70 12 90 q 52 110 77 150 q 101 189 101 253 l 101 253 q 101 287 93 316 q 84 344 73 364 l 73 364 l -33 328 q -27 315 -22 296 q -17 277 -17 250 l -17 250 q -17 207 -30 183 q -43 158 -72 146 l -72 146 l -93 139 q -100 137 -107 137 q -114 136 -121 136 l -121 136 q -151 136 -174 150 q -198 163 -198 204 l -198 204 q -198 228 -190 239 q -182 250 -170 250 l -170 250 q -154 250 -146 236 q -139 221 -139 187 l -139 187 q -139 165 -140 154 q -141 143 -144 133 l -144 133 l -149 116 q -160 92 -177 80 q -195 68 -213 64 q -231 60 -248 60 l -248 60 q -267 60 -282 65 q -297 69 -310 79 l -310 79 q -326 92 -335 117 q -345 142 -346 191 l -346 191 l -457 160 q -450 102 -428 66 q -406 29 -375 8 q -345 -13 -311 -21 q -277 -29 -246 -29 z"},"൦":{"ha":554,"x_min":35,"x_max":520,"o":"m 278 -33 l 278 -33 q 202 -33 148 -60 q 93 -88 64 -143 q 35 -199 35 -281 l 35 -281 q 35 -362 64 -418 q 93 -475 148 -503 q 202 -532 277 -532 l 277 -532 q 359 -532 413 -501 q 467 -471 494 -414 q 520 -358 520 -281 l 520 -281 q 520 -203 491 -147 q 462 -91 408 -62 q 354 -33 278 -33 z m 276 -155 l 276 -155 q 301 -155 319 -168 q 336 -182 346 -210 q 355 -238 355 -282 l 355 -282 q 355 -349 334 -379 q 313 -410 277 -410 l 277 -410 q 241 -410 221 -379 q 200 -349 200 -282 l 200 -282 q 200 -217 220 -186 q 240 -155 276 -155 z"},"൧":{"ha":862,"x_min":11,"x_max":815,"o":"m 373 81 l 373 206 l 277 206 q 203 206 162 200 q 121 193 89 176 l 89 176 q 54 158 33 126 q 11 93 11 44 l 11 44 q 11 1 28 -30 q 44 -61 72 -81 l 72 -81 q 95 -97 122 -106 q 149 -116 187 -120 q 224 -124 277 -124 l 277 -124 l 417 -124 l 468 0 l 273 0 q 238 0 223 2 q 208 4 199 9 l 199 9 q 189 13 184 21 q 179 28 179 39 l 179 39 q 179 59 195 69 l 195 69 q 204 75 221 78 q 238 81 274 81 l 274 81 l 373 81 z m 565 -581 l 565 -581 q 626 -581 671 -565 q 716 -550 747 -519 l 747 -519 q 785 -482 800 -432 q 815 -383 815 -305 l 815 -305 l 815 0 l 313 0 l 313 -305 q 313 -358 320 -396 q 326 -435 342 -465 q 357 -496 381 -520 l 381 -520 q 413 -550 458 -565 q 503 -581 565 -581 z m 564 -455 l 564 -455 q 545 -455 531 -449 q 516 -443 505 -432 l 505 -432 q 489 -413 484 -384 q 479 -355 479 -302 l 479 -302 l 479 -124 l 648 -124 l 648 -302 q 648 -355 644 -384 q 639 -414 623 -432 l 623 -432 q 613 -443 599 -449 q 585 -455 564 -455 z"},"൨":{"ha":799,"x_min":32,"x_max":780,"o":"m 329 -581 l 329 -581 q 412 -581 469 -556 q 525 -532 559 -491 q 593 -450 608 -399 q 622 -349 622 -297 l 622 -297 q 622 -242 609 -198 q 596 -155 571 -115 q 546 -76 511 -35 l 511 -35 l 559 -124 l 780 -124 l 780 0 l 453 0 l 383 -77 q 402 -105 418 -138 q 433 -171 443 -209 q 453 -247 453 -291 l 453 -291 q 453 -340 439 -377 q 425 -414 399 -435 q 372 -456 331 -456 l 331 -456 q 293 -456 264 -436 q 235 -417 220 -380 q 204 -343 204 -291 l 204 -291 q 204 -245 214 -205 q 224 -166 242 -129 q 260 -93 285 -56 l 285 -56 l 153 14 q 118 -25 91 -70 q 63 -115 48 -170 q 32 -226 32 -294 l 32 -294 q 32 -343 47 -393 q 62 -444 96 -486 q 130 -529 187 -555 q 244 -581 329 -581 z"},"൩":{"ha":1012,"x_min":33,"x_max":993,"o":"m 280 -581 l 280 -581 q 314 -581 342 -574 q 370 -567 395 -552 q 420 -537 444 -513 l 444 -513 l 428 -508 q 466 -547 507 -564 q 547 -581 602 -581 l 602 -581 q 679 -581 733 -546 q 787 -511 816 -448 q 844 -386 844 -305 l 844 -305 q 844 -263 838 -228 q 831 -194 819 -164 q 807 -134 788 -104 l 788 -104 l 750 0 l 674 0 l 607 -71 q 632 -117 647 -155 q 662 -193 669 -228 q 675 -264 675 -303 l 675 -303 q 675 -360 661 -393 q 647 -427 626 -441 q 605 -456 582 -456 l 582 -456 q 569 -456 560 -452 q 550 -449 543 -442 l 543 -442 q 531 -431 526 -409 q 521 -387 521 -342 l 521 -342 l 521 0 l 354 0 l 354 -340 q 354 -384 350 -406 q 346 -429 334 -442 l 334 -442 q 327 -448 317 -452 q 307 -456 294 -456 l 294 -456 q 273 -456 252 -441 q 230 -427 216 -393 q 202 -360 202 -303 l 202 -303 q 202 -259 211 -218 q 220 -177 237 -137 q 254 -98 278 -56 l 278 -56 l 143 13 q 108 -38 84 -88 q 59 -138 46 -191 q 33 -244 33 -304 l 33 -304 q 33 -382 61 -444 q 88 -507 143 -544 q 198 -581 280 -581 z m 715 0 l 762 -124 l 993 -124 l 993 0 l 715 0 z"},"൪":{"ha":776,"x_min":33,"x_max":772,"o":"m 363 -581 l 363 -581 q 442 -581 501 -556 q 559 -532 608 -489 l 608 -489 q 658 -443 687 -378 q 715 -314 715 -234 l 715 -234 q 715 -155 691 -100 q 667 -45 617 -16 q 567 12 488 12 l 488 12 q 415 12 368 -15 q 321 -42 298 -87 q 275 -133 275 -188 l 275 -188 q 275 -250 300 -299 q 324 -348 374 -393 q 424 -439 502 -490 l 502 -490 q 542 -517 565 -536 q 587 -555 597 -574 q 607 -594 607 -621 l 607 -621 q 607 -642 601 -660 q 595 -678 587 -688 l 587 -688 l 735 -753 q 752 -726 762 -695 q 772 -664 772 -630 l 772 -630 q 772 -581 754 -543 q 736 -506 697 -470 q 657 -435 591 -392 l 591 -392 q 534 -354 501 -320 q 468 -287 454 -254 q 440 -222 440 -185 l 440 -185 q 440 -156 452 -133 q 463 -110 492 -110 l 492 -110 q 515 -110 527 -122 q 538 -135 543 -159 q 548 -183 548 -214 l 548 -214 q 548 -267 534 -319 q 520 -372 489 -407 l 489 -407 q 466 -431 438 -445 q 409 -460 368 -460 l 368 -460 q 317 -460 281 -440 q 244 -420 224 -382 q 204 -345 204 -291 l 204 -291 q 204 -245 214 -206 q 223 -167 241 -130 q 259 -93 284 -56 l 284 -56 l 154 14 q 118 -25 91 -70 q 64 -115 49 -170 q 33 -226 33 -294 l 33 -294 q 33 -345 50 -396 q 67 -448 106 -489 q 145 -531 209 -556 q 272 -581 363 -581 z"},"൫":{"ha":996,"x_min":37,"x_max":959,"o":"m 505 -732 l 505 -732 q 621 -732 707 -698 q 792 -665 848 -605 q 904 -545 932 -464 q 959 -383 959 -287 l 959 -287 q 959 -219 947 -141 q 934 -64 903 12 l 903 12 l 763 -38 q 776 -77 784 -115 q 792 -154 795 -194 q 798 -235 798 -280 l 798 -280 q 798 -355 780 -415 q 761 -476 725 -519 q 688 -562 633 -584 q 578 -607 507 -607 l 507 -607 q 420 -607 350 -571 q 279 -535 238 -458 q 196 -382 196 -259 l 196 -259 q 196 -193 209 -136 q 222 -80 249 -37 q 276 5 319 29 q 362 53 422 53 l 422 53 q 499 53 537 18 q 575 -18 575 -78 l 575 -78 q 575 -109 564 -133 q 553 -157 533 -170 q 512 -183 484 -183 l 484 -183 l 478 -183 l 478 -304 l 484 -304 q 511 -304 527 -308 q 542 -312 551 -318 l 551 -318 q 562 -326 567 -337 q 571 -348 571 -364 l 571 -364 q 571 -390 556 -404 q 540 -418 514 -418 l 514 -418 q 485 -418 465 -399 q 444 -381 433 -346 q 422 -311 422 -262 l 422 -262 q 422 -205 437 -154 q 451 -104 474 -51 l 474 -51 l 331 5 q 297 -58 276 -125 q 255 -192 255 -268 l 255 -268 q 255 -352 288 -413 q 321 -475 381 -509 q 441 -543 521 -543 l 521 -543 q 593 -543 641 -520 q 689 -498 713 -461 q 737 -424 737 -377 l 737 -377 q 737 -349 729 -321 q 720 -293 696 -270 q 671 -247 625 -230 l 625 -230 l 626 -252 q 676 -233 709 -184 q 741 -135 741 -69 l 741 -69 q 741 13 703 68 q 664 123 594 151 q 524 178 432 178 l 432 178 q 306 178 218 127 q 129 75 83 -22 q 37 -119 37 -255 l 37 -255 q 37 -376 74 -466 q 110 -556 175 -615 q 239 -674 324 -703 q 408 -732 505 -732 z"},"൬":{"ha":1163,"x_min":33,"x_max":1125,"o":"m 577 -581 l 577 -581 q 623 -581 663 -563 q 703 -546 739 -502 l 739 -502 l 809 -308 l 809 0 l 642 0 l 642 -339 q 642 -381 637 -404 q 632 -427 619 -440 l 619 -440 q 612 -448 602 -452 q 591 -456 577 -456 l 577 -456 q 564 -456 553 -451 q 542 -447 534 -440 l 534 -440 q 522 -427 517 -404 q 511 -382 511 -335 l 511 -335 l 511 0 l 344 0 l 344 -342 q 344 -382 341 -405 q 338 -428 326 -441 l 326 -441 q 321 -448 312 -452 q 302 -456 288 -456 l 288 -456 q 268 -456 248 -441 q 228 -427 215 -393 q 202 -360 202 -303 l 202 -303 q 202 -260 211 -219 q 219 -178 236 -138 q 253 -99 278 -58 l 278 -58 l 142 12 q 107 -39 83 -88 q 58 -138 46 -191 q 33 -244 33 -304 l 33 -304 q 33 -382 60 -444 q 87 -507 141 -544 q 194 -581 273 -581 l 273 -581 q 324 -581 363 -565 q 401 -549 437 -513 l 437 -513 l 411 -498 q 441 -538 482 -559 q 523 -581 577 -581 z m 885 -581 l 885 -581 q 1007 -581 1066 -491 q 1125 -401 1125 -234 l 1125 -234 q 1125 -88 1093 9 q 1060 105 983 153 q 906 201 773 201 l 773 201 q 750 201 723 199 q 696 197 669 192 l 669 192 l 681 68 q 699 72 720 74 q 741 75 763 75 l 763 75 q 823 75 861 52 q 899 29 920 -12 q 940 -54 948 -110 q 956 -166 956 -232 l 956 -232 q 956 -295 947 -346 q 937 -397 919 -426 q 900 -456 869 -456 l 869 -456 q 856 -456 847 -452 q 837 -448 830 -441 l 830 -441 q 817 -428 813 -404 q 809 -380 809 -340 l 809 -340 l 809 -10 l 651 -10 l 651 -309 l 716 -506 q 754 -545 793 -563 q 831 -581 885 -581 z"},"൭":{"ha":732,"x_min":32,"x_max":695,"o":"m 373 -581 l 373 -581 q 462 -581 524 -551 q 585 -522 623 -470 q 661 -419 678 -353 q 695 -287 695 -214 l 695 -214 q 695 -111 672 -33 q 649 44 604 97 q 559 149 491 175 q 422 201 330 201 l 330 201 q 301 201 273 199 q 244 197 217 191 l 217 191 l 230 68 q 252 72 273 74 q 293 75 313 75 l 313 75 q 372 75 413 54 q 453 33 478 -5 q 503 -44 514 -96 q 525 -149 525 -212 l 525 -212 q 525 -332 482 -394 q 438 -456 357 -456 l 357 -456 q 309 -456 269 -430 q 229 -404 205 -355 q 181 -306 181 -239 l 181 -239 l 181 -232 q 181 -179 188 -152 q 195 -125 208 -116 q 220 -107 233 -107 l 233 -107 q 245 -107 254 -113 q 262 -119 267 -133 q 271 -148 271 -173 l 271 -173 q 271 -211 260 -226 q 248 -242 229 -242 l 229 -242 q 205 -242 184 -224 q 163 -206 130 -162 l 130 -162 l 105 -277 q 139 -311 181 -334 q 222 -357 274 -357 l 274 -357 q 327 -357 362 -334 q 397 -312 414 -273 q 431 -234 431 -183 l 431 -183 q 431 -122 410 -78 q 388 -35 345 -11 q 302 12 238 12 l 238 12 q 180 12 133 -13 q 86 -38 59 -92 q 32 -146 32 -233 l 32 -233 q 32 -335 72 -413 q 111 -492 187 -536 q 263 -581 373 -581 z"},"൮":{"ha":925,"x_min":32,"x_max":875,"o":"m 329 -581 l 329 -581 q 412 -581 469 -556 q 525 -532 559 -491 q 593 -450 608 -399 q 622 -349 622 -297 l 622 -297 q 622 -242 609 -198 q 596 -155 571 -115 q 546 -76 511 -35 l 511 -35 l 559 -124 l 708 -124 l 708 -569 l 875 -569 l 875 -175 l 805 0 l 453 0 l 383 -77 q 402 -105 418 -138 q 433 -171 443 -209 q 453 -247 453 -291 l 453 -291 q 453 -340 439 -377 q 425 -414 399 -435 q 372 -456 331 -456 l 331 -456 q 293 -456 264 -436 q 235 -417 220 -380 q 204 -343 204 -291 l 204 -291 q 204 -245 214 -205 q 224 -166 242 -129 q 260 -93 285 -56 l 285 -56 l 153 14 q 118 -25 91 -70 q 63 -115 48 -170 q 32 -226 32 -294 l 32 -294 q 32 -343 47 -393 q 62 -444 96 -486 q 130 -529 187 -555 q 244 -581 329 -581 z m 560 201 l 560 201 q 535 201 505 198 q 474 195 448 189 l 448 189 l 465 66 q 483 71 506 73 q 529 75 552 75 l 552 75 q 602 75 633 63 q 664 51 681 31 q 697 10 704 -15 q 710 -41 711 -67 l 711 -67 l 875 -307 l 875 -131 q 875 -63 866 -13 q 857 37 837 73 q 817 109 785 136 l 785 136 q 747 170 691 186 q 635 201 560 201 z"},"൯":{"ha":1078,"x_min":33,"x_max":1074,"o":"m 282 -581 l 282 -581 q 316 -581 345 -574 q 373 -567 401 -550 q 428 -534 458 -505 l 458 -505 l 521 -212 l 521 0 l 354 0 l 354 -340 q 354 -384 350 -406 q 346 -429 334 -442 l 334 -442 q 327 -448 317 -452 q 307 -456 294 -456 l 294 -456 q 273 -456 252 -441 q 230 -427 216 -393 q 202 -360 202 -303 l 202 -303 q 202 -259 211 -218 q 220 -177 237 -137 q 254 -98 278 -56 l 278 -56 l 143 13 q 108 -38 84 -88 q 59 -138 46 -191 q 33 -244 33 -304 l 33 -304 q 33 -382 61 -444 q 88 -507 144 -544 q 199 -581 282 -581 z m 653 -581 l 653 -581 q 743 -581 803 -556 q 862 -531 910 -486 l 910 -486 q 960 -440 989 -377 q 1017 -314 1017 -234 l 1017 -234 q 1017 -155 993 -100 q 969 -45 919 -16 q 869 12 790 12 l 790 12 q 717 12 670 -15 q 623 -42 600 -87 q 577 -133 577 -188 l 577 -188 q 577 -250 602 -299 q 626 -348 676 -393 q 726 -439 804 -490 l 804 -490 q 844 -517 867 -536 q 889 -555 899 -574 q 909 -594 909 -621 l 909 -621 q 909 -642 903 -660 q 897 -678 889 -688 l 889 -688 l 1037 -753 q 1054 -726 1064 -695 q 1074 -664 1074 -630 l 1074 -630 q 1074 -581 1056 -543 q 1038 -506 999 -470 q 959 -435 893 -392 l 893 -392 q 836 -354 803 -320 q 770 -287 756 -254 q 742 -222 742 -185 l 742 -185 q 742 -156 754 -133 q 765 -110 794 -110 l 794 -110 q 817 -110 829 -122 q 840 -135 845 -159 q 850 -183 850 -214 l 850 -214 q 850 -270 835 -320 q 819 -371 788 -406 l 788 -406 q 765 -430 735 -445 q 705 -460 654 -460 l 654 -460 q 624 -460 603 -453 q 581 -446 566 -434 l 566 -434 q 549 -420 539 -400 q 529 -380 525 -350 q 521 -321 521 -279 l 521 -279 l 521 -29 l 362 -29 l 362 -312 l 400 -468 q 427 -500 460 -525 q 492 -551 539 -566 q 585 -581 653 -581 z"},"൰":{"ha":981,"x_min":-27,"x_max":948,"o":"m 158 -569 l 325 -569 l 325 -168 l 317 -132 q 317 -46 305 15 q 292 76 260 120 l 260 120 q 231 158 183 180 q 135 201 61 201 l 61 201 q 40 201 17 199 q -6 197 -27 191 l -27 191 l -14 68 q -4 71 11 73 q 26 75 41 75 l 41 75 q 72 75 91 69 q 110 62 124 49 l 124 49 q 145 29 152 -7 q 158 -43 158 -108 l 158 -108 l 158 -569 z m 705 12 l 705 12 q 653 12 614 -4 q 574 -21 538 -57 l 538 -57 l 564 -71 q 530 -28 494 -8 q 457 12 406 12 l 406 12 q 368 12 342 1 q 315 -10 295 -28 q 274 -47 254 -71 l 254 -71 l 180 -258 l 182 -551 l 325 -525 l 325 -231 q 325 -187 331 -164 q 336 -142 349 -129 l 349 -129 q 358 -121 369 -117 q 379 -113 395 -113 l 395 -113 q 409 -113 420 -117 q 430 -122 439 -129 l 439 -129 q 452 -142 458 -165 q 463 -188 463 -234 l 463 -234 l 463 -569 l 630 -569 l 630 -226 q 630 -184 634 -162 q 637 -140 649 -128 l 649 -128 q 655 -121 665 -117 q 675 -113 689 -113 l 689 -113 q 711 -113 732 -127 q 752 -142 766 -176 q 779 -210 779 -267 l 779 -267 q 779 -310 771 -351 q 762 -392 746 -431 q 729 -471 704 -511 l 704 -511 l 838 -581 q 873 -530 898 -480 q 923 -431 936 -378 q 948 -325 948 -264 l 948 -264 q 948 -186 921 -123 q 893 -61 839 -24 q 785 12 705 12 z"},"൱":{"ha":881,"x_min":33,"x_max":843,"o":"m 282 -581 l 282 -581 q 316 -581 345 -574 q 373 -567 401 -550 q 428 -534 458 -505 l 458 -505 l 521 -212 l 521 0 l 354 0 l 354 -340 q 354 -384 350 -406 q 346 -429 334 -442 l 334 -442 q 327 -448 317 -452 q 307 -456 294 -456 l 294 -456 q 273 -456 252 -441 q 230 -427 216 -393 q 202 -360 202 -303 l 202 -303 q 202 -259 211 -218 q 220 -177 237 -137 q 254 -98 278 -56 l 278 -56 l 143 13 q 108 -38 84 -88 q 59 -138 46 -191 q 33 -244 33 -304 l 33 -304 q 33 -382 61 -444 q 88 -507 144 -544 q 199 -581 282 -581 z m 599 -581 l 599 -581 q 683 -581 737 -541 q 790 -501 817 -423 q 843 -346 843 -234 l 843 -234 q 843 -88 811 9 q 778 105 701 153 q 624 201 491 201 l 491 201 q 468 201 441 199 q 414 197 387 192 l 387 192 l 399 68 q 417 72 438 74 q 459 75 481 75 l 481 75 q 541 75 579 52 q 617 29 638 -12 q 658 -54 666 -110 q 674 -166 674 -232 l 674 -232 q 674 -295 665 -346 q 656 -397 636 -426 q 616 -456 584 -456 l 584 -456 q 570 -456 560 -452 q 550 -448 543 -441 l 543 -441 q 529 -427 525 -403 q 521 -380 521 -340 l 521 -340 l 521 -10 l 364 -10 l 364 -309 l 428 -506 q 467 -545 507 -563 q 546 -581 599 -581 z"},"൲":{"ha":1382,"x_min":32,"x_max":1364,"o":"m 1184 -569 l 1184 -569 q 1251 -569 1291 -546 q 1330 -523 1347 -486 q 1364 -450 1364 -410 l 1364 -410 q 1364 -364 1348 -329 q 1331 -295 1303 -275 l 1303 -275 q 1279 -258 1253 -249 q 1227 -241 1195 -237 q 1162 -234 1116 -234 l 1116 -234 l 914 -234 l 914 -358 l 1133 -358 q 1163 -358 1179 -361 q 1194 -364 1202 -370 l 1202 -370 q 1209 -376 1213 -385 q 1216 -394 1216 -408 l 1216 -408 q 1216 -427 1207 -437 q 1197 -448 1183 -448 l 1183 -448 q 1164 -448 1156 -434 q 1147 -421 1147 -400 l 1147 -400 q 1147 -370 1158 -348 q 1169 -326 1183 -310 l 1183 -310 l 1039 -302 q 1025 -322 1015 -352 q 1005 -382 1005 -411 l 1005 -411 q 1005 -463 1029 -498 q 1053 -533 1094 -551 q 1134 -569 1184 -569 z m 281 -581 l 281 -581 q 316 -581 346 -573 q 376 -566 405 -548 q 433 -531 463 -502 l 463 -502 l 520 -220 l 520 0 l 354 0 l 354 -340 q 354 -384 350 -406 q 345 -429 333 -442 l 333 -442 q 326 -448 317 -452 q 307 -456 293 -456 l 293 -456 q 272 -456 251 -441 q 229 -427 215 -393 q 201 -360 201 -303 l 201 -303 q 201 -259 210 -218 q 219 -177 236 -137 q 253 -98 277 -56 l 277 -56 l 142 13 q 107 -38 83 -88 q 58 -138 45 -191 q 32 -244 32 -304 l 32 -304 q 32 -382 60 -444 q 87 -507 143 -544 q 198 -581 281 -581 z m 647 -581 l 647 -581 q 728 -581 789 -553 q 850 -526 891 -478 q 931 -430 952 -368 q 973 -306 973 -235 l 973 -235 q 973 -147 948 -92 q 922 -38 874 -13 q 826 12 756 12 l 756 12 q 683 12 640 -13 q 597 -39 579 -79 q 560 -119 560 -163 l 560 -163 q 560 -217 584 -257 q 607 -297 648 -321 l 648 -321 q 672 -334 700 -342 q 727 -350 763 -354 q 798 -358 844 -358 l 844 -358 l 1069 -358 l 1069 -234 l 845 -234 q 800 -234 779 -229 q 758 -225 745 -216 l 745 -216 q 732 -207 727 -192 q 721 -178 721 -160 l 721 -160 q 721 -139 731 -125 q 740 -112 757 -112 l 757 -112 q 772 -112 784 -121 q 795 -130 802 -155 q 808 -180 808 -227 l 808 -227 q 808 -241 808 -254 q 808 -267 806 -280 l 806 -280 l 802 -315 q 794 -357 774 -388 q 754 -420 723 -437 q 692 -455 648 -455 l 648 -455 q 625 -455 605 -450 q 584 -445 566 -431 l 566 -431 q 550 -418 540 -399 q 529 -380 525 -350 q 520 -321 520 -279 l 520 -279 l 520 -183 l 428 -241 l 422 -486 q 444 -512 476 -533 q 507 -555 550 -568 q 593 -581 647 -581 z"},"൳":{"ha":689,"x_min":32,"x_max":667,"o":"m 237 12 l 237 12 q 178 12 132 -13 q 85 -38 59 -92 q 32 -146 32 -234 l 32 -234 q 32 -312 60 -370 q 87 -429 141 -466 l 141 -466 q 179 -492 222 -507 q 264 -522 320 -528 q 375 -534 451 -534 l 451 -534 l 667 -534 l 667 -407 l 450 -407 q 402 -407 367 -405 q 332 -403 308 -397 q 283 -392 264 -384 l 264 -384 q 234 -372 215 -352 q 196 -332 186 -309 l 186 -309 l 182 -270 q 181 -260 181 -250 q 180 -240 180 -229 l 180 -229 q 180 -177 188 -151 q 195 -125 207 -116 q 219 -107 232 -107 l 232 -107 q 244 -107 253 -113 q 261 -119 266 -133 q 270 -148 270 -173 l 270 -173 q 270 -211 259 -226 q 248 -242 228 -242 l 228 -242 q 204 -242 183 -224 q 162 -206 129 -162 l 129 -162 l 105 -277 q 138 -311 180 -334 q 221 -357 273 -357 l 273 -357 q 326 -357 361 -334 q 396 -312 413 -273 q 430 -234 430 -183 l 430 -183 q 430 -121 409 -77 q 387 -33 345 -10 q 302 12 237 12 z"},"൴":{"ha":916,"x_min":31,"x_max":883,"o":"m 449 -789 l 616 -789 l 616 -209 q 616 -186 617 -170 q 618 -154 622 -143 q 626 -132 631 -124 l 631 -124 q 637 -117 645 -113 q 653 -109 664 -109 l 664 -109 q 679 -109 690 -118 q 701 -128 708 -152 q 714 -176 714 -217 l 714 -217 q 714 -261 702 -300 q 690 -339 668 -370 q 646 -402 617 -423 q 587 -445 551 -455 l 551 -455 l 505 -455 q 492 -457 479 -458 q 465 -459 451 -459 l 451 -459 q 399 -459 351 -446 q 302 -433 264 -407 q 225 -381 203 -339 q 180 -298 180 -240 l 180 -240 l 180 -227 q 180 -177 187 -151 q 194 -125 207 -116 q 219 -107 232 -107 l 232 -107 q 244 -107 253 -113 q 261 -119 266 -133 q 270 -148 270 -173 l 270 -173 q 270 -211 259 -226 q 247 -242 227 -242 l 227 -242 q 203 -242 183 -224 q 162 -206 129 -162 l 129 -162 l 104 -277 q 138 -311 180 -334 q 221 -357 273 -357 l 273 -357 q 326 -357 361 -334 q 396 -312 413 -273 q 430 -234 430 -183 l 430 -183 q 430 -122 409 -78 q 387 -35 344 -11 q 301 12 236 12 l 236 12 q 178 12 132 -13 q 85 -38 58 -91 q 31 -145 31 -231 l 31 -231 q 31 -319 63 -384 q 94 -450 152 -494 q 209 -538 288 -559 q 366 -581 460 -581 l 460 -581 q 477 -581 492 -580 q 507 -580 522 -578 l 522 -578 l 566 -575 q 621 -568 677 -543 q 732 -519 779 -475 q 825 -432 854 -369 q 883 -307 883 -223 l 883 -223 q 883 -153 858 -100 q 832 -47 784 -17 q 735 12 661 12 l 661 12 q 612 12 577 1 q 541 -11 516 -32 l 516 -32 q 491 -54 476 -84 q 461 -114 455 -155 q 449 -197 449 -253 l 449 -253 l 449 -789 z"},"൵":{"ha":1203,"x_min":32,"x_max":1199,"o":"m 360 -581 l 360 -581 q 438 -581 492 -558 q 546 -536 591 -481 l 591 -481 l 616 -377 l 646 -221 l 646 0 l 479 0 l 479 -292 q 479 -353 472 -384 q 464 -415 443 -432 l 443 -432 q 429 -444 409 -450 q 388 -457 358 -457 l 358 -457 q 312 -457 272 -434 q 231 -411 206 -363 q 181 -316 181 -241 l 181 -241 l 181 -236 q 181 -181 188 -153 q 195 -125 208 -116 q 220 -107 233 -107 l 233 -107 q 245 -107 254 -113 q 262 -119 267 -133 q 271 -148 271 -173 l 271 -173 q 271 -211 260 -226 q 248 -242 228 -242 l 228 -242 q 204 -242 184 -224 q 163 -206 130 -162 l 130 -162 l 105 -277 q 139 -311 181 -334 q 222 -357 274 -357 l 274 -357 q 327 -357 362 -334 q 397 -312 414 -273 q 431 -234 431 -183 l 431 -183 q 431 -121 410 -77 q 388 -33 345 -10 q 302 12 237 12 l 237 12 q 179 12 133 -13 q 86 -39 59 -95 q 32 -152 32 -245 l 32 -245 q 32 -356 75 -430 q 118 -505 192 -543 q 266 -581 360 -581 z m 778 -581 l 778 -581 q 868 -581 928 -556 q 987 -531 1035 -486 l 1035 -486 q 1085 -440 1114 -377 q 1142 -314 1142 -234 l 1142 -234 q 1142 -155 1118 -100 q 1094 -45 1044 -16 q 994 12 915 12 l 915 12 q 842 12 795 -15 q 748 -42 725 -87 q 702 -133 702 -188 l 702 -188 q 702 -250 727 -299 q 751 -348 801 -393 q 851 -439 929 -490 l 929 -490 q 969 -517 992 -536 q 1014 -555 1024 -574 q 1034 -594 1034 -621 l 1034 -621 q 1034 -642 1028 -660 q 1022 -678 1014 -688 l 1014 -688 l 1162 -753 q 1179 -726 1189 -695 q 1199 -664 1199 -630 l 1199 -630 q 1199 -581 1181 -543 q 1163 -506 1124 -470 q 1084 -435 1018 -392 l 1018 -392 q 961 -354 928 -320 q 895 -287 881 -254 q 867 -222 867 -185 l 867 -185 q 867 -156 879 -133 q 890 -110 919 -110 l 919 -110 q 942 -110 954 -122 q 965 -135 970 -159 q 975 -183 975 -214 l 975 -214 q 975 -270 960 -320 q 944 -371 913 -406 l 913 -406 q 890 -430 860 -445 q 830 -460 779 -460 l 779 -460 q 749 -460 728 -453 q 706 -446 691 -434 l 691 -434 q 674 -420 664 -400 q 654 -380 650 -350 q 646 -321 646 -279 l 646 -279 l 646 -29 l 487 -29 l 487 -312 l 525 -468 q 552 -500 585 -525 q 617 -551 664 -566 q 710 -581 778 -581 z"},"൶":{"ha":1294,"x_min":26,"x_max":1248,"o":"m 244 -372 l 244 -372 q 322 -372 369 -344 q 415 -316 436 -272 q 457 -229 457 -183 l 457 -183 q 457 -157 450 -128 q 442 -99 429 -77 l 429 -77 l 426 -124 l 636 -124 l 664 0 l 325 0 l 273 -72 q 283 -89 291 -114 q 298 -139 298 -171 l 298 -171 q 298 -202 287 -225 q 276 -249 246 -249 l 246 -249 q 228 -249 216 -238 q 203 -228 198 -210 q 192 -193 192 -172 l 192 -172 q 192 -133 203 -103 q 214 -74 231 -43 l 231 -43 l 100 13 q 68 -27 47 -73 q 26 -119 26 -178 l 26 -178 q 26 -237 53 -280 q 80 -324 129 -348 q 178 -372 244 -372 z m 918 -581 l 918 -581 q 1004 -581 1064 -562 q 1124 -543 1164 -506 l 1164 -506 q 1192 -481 1211 -448 q 1229 -415 1239 -368 q 1248 -322 1248 -251 l 1248 -251 l 1248 0 l 604 0 l 604 -249 q 604 -322 615 -370 q 625 -419 645 -452 q 665 -486 693 -511 l 693 -511 q 732 -545 789 -563 q 846 -581 918 -581 z m 837 -449 l 837 -449 q 823 -449 812 -441 q 801 -434 793 -421 l 793 -421 q 781 -402 775 -370 q 768 -339 768 -274 l 768 -274 l 768 -68 l 730 -69 q 769 -116 802 -169 q 835 -223 855 -278 q 874 -334 874 -388 l 874 -388 q 874 -409 870 -422 q 866 -436 858 -442 q 850 -449 837 -449 z m 1038 -355 l 1038 -355 q 1038 -312 1027 -272 q 1015 -233 994 -194 q 973 -156 943 -114 l 943 -114 l 934 -119 q 951 -122 973 -122 q 994 -123 1016 -123 l 1016 -123 l 1084 -123 l 1084 -268 q 1084 -331 1074 -370 q 1063 -409 1043 -431 q 1022 -454 990 -467 l 990 -467 l 990 -474 q 1014 -452 1026 -422 q 1038 -392 1038 -355 z"},"൷":{"ha":1682,"x_min":26,"x_max":1662,"o":"m 244 -372 l 244 -372 q 322 -372 369 -344 q 415 -316 436 -272 q 457 -229 457 -183 l 457 -183 q 457 -157 450 -128 q 442 -99 429 -77 l 429 -77 l 426 -124 l 642 -124 l 670 0 l 325 0 l 273 -72 q 283 -89 291 -114 q 298 -139 298 -171 l 298 -171 q 298 -202 287 -225 q 276 -249 246 -249 l 246 -249 q 228 -249 216 -238 q 203 -228 198 -210 q 192 -193 192 -172 l 192 -172 q 192 -133 203 -103 q 214 -74 231 -43 l 231 -43 l 100 13 q 68 -27 47 -73 q 26 -119 26 -178 l 26 -178 q 26 -237 53 -280 q 80 -324 129 -348 q 178 -372 244 -372 z m 770 -581 l 770 -581 q 805 -581 835 -573 q 865 -566 894 -548 q 922 -531 952 -502 l 952 -502 l 1009 -319 l 1009 -231 l 843 -231 l 843 -340 q 843 -384 839 -406 q 834 -429 822 -442 l 822 -442 q 815 -448 806 -452 q 796 -456 782 -456 l 782 -456 q 761 -456 740 -441 q 718 -427 704 -393 q 690 -360 690 -303 l 690 -303 q 690 -242 707 -186 q 724 -130 757 -71 l 757 -71 l 691 0 l 619 0 l 579 -100 q 560 -131 547 -162 q 534 -194 528 -228 q 521 -263 521 -304 l 521 -304 q 521 -382 549 -444 q 576 -507 632 -544 q 688 -581 770 -581 z m 1136 -581 l 1136 -581 q 1218 -581 1279 -553 q 1340 -526 1381 -478 q 1421 -430 1442 -368 q 1462 -306 1462 -235 l 1462 -235 q 1462 -147 1437 -92 q 1411 -38 1363 -13 q 1315 12 1245 12 l 1245 12 q 1172 12 1129 -13 q 1086 -39 1068 -79 q 1049 -119 1049 -163 l 1049 -163 q 1049 -217 1073 -257 q 1096 -297 1137 -321 l 1137 -321 q 1161 -334 1189 -342 q 1216 -350 1252 -354 q 1287 -358 1333 -358 l 1333 -358 l 1373 -358 l 1373 -234 l 1334 -234 q 1289 -234 1268 -229 q 1247 -225 1234 -216 l 1234 -216 q 1221 -207 1216 -192 q 1210 -178 1210 -160 l 1210 -160 q 1210 -139 1220 -125 q 1229 -112 1247 -112 l 1247 -112 q 1262 -112 1274 -121 q 1285 -130 1292 -155 q 1299 -180 1299 -227 l 1299 -227 q 1299 -241 1299 -254 q 1298 -267 1296 -280 l 1296 -280 l 1292 -315 q 1283 -357 1263 -388 q 1243 -420 1212 -437 q 1181 -455 1137 -455 l 1137 -455 q 1114 -455 1094 -450 q 1073 -445 1055 -431 l 1055 -431 q 1039 -418 1029 -399 q 1018 -380 1014 -350 q 1009 -321 1009 -279 l 1009 -279 l 1009 -253 l 917 -241 l 911 -486 q 933 -512 965 -533 q 996 -555 1039 -568 q 1082 -581 1136 -581 z m 1492 -448 l 1650 -479 q 1655 -465 1659 -445 q 1662 -425 1662 -402 l 1662 -402 q 1662 -359 1649 -328 q 1636 -297 1612 -278 l 1612 -278 q 1579 -252 1534 -243 q 1488 -234 1423 -234 l 1423 -234 l 1352 -234 l 1352 -358 l 1409 -358 q 1436 -358 1454 -362 q 1471 -366 1482 -376 l 1482 -376 q 1490 -383 1494 -393 q 1497 -404 1497 -418 l 1497 -418 q 1497 -425 1496 -433 q 1494 -442 1492 -448 l 1492 -448 z"},"൸":{"ha":2076,"x_min":8,"x_max":2031,"o":"m 1318 -581 l 1318 -581 q 1347 -581 1371 -576 q 1395 -572 1416 -562 q 1437 -552 1457 -536 q 1476 -521 1497 -499 l 1497 -499 l 1463 -494 q 1491 -523 1527 -542 q 1562 -561 1606 -571 q 1649 -581 1701 -581 l 1701 -581 q 1786 -581 1846 -562 q 1906 -543 1946 -506 l 1946 -506 q 1974 -481 1993 -448 q 2012 -415 2022 -368 q 2031 -321 2031 -251 l 2031 -251 l 2031 0 l 1548 0 l 1548 -114 q 1575 -150 1600 -194 q 1624 -238 1641 -287 q 1657 -337 1657 -388 l 1657 -388 q 1657 -409 1653 -422 q 1649 -436 1641 -442 q 1632 -449 1620 -449 l 1620 -449 q 1605 -449 1595 -441 q 1584 -434 1575 -421 l 1575 -421 q 1565 -404 1559 -373 q 1552 -342 1552 -283 l 1552 -283 l 1552 -230 l 1387 -230 l 1387 -339 q 1387 -380 1383 -404 q 1379 -428 1365 -441 l 1365 -441 q 1358 -448 1348 -452 q 1338 -456 1324 -456 l 1324 -456 q 1309 -456 1299 -451 q 1289 -447 1282 -439 l 1282 -439 q 1269 -425 1266 -401 q 1262 -377 1262 -341 l 1262 -341 l 1262 -245 q 1262 -193 1255 -155 q 1248 -117 1234 -90 q 1220 -63 1199 -43 l 1199 -43 q 1171 -16 1130 -2 q 1088 12 1031 12 l 1031 12 q 973 12 932 -2 q 891 -16 862 -42 l 862 -42 q 841 -63 827 -89 q 813 -116 807 -154 q 800 -192 800 -245 l 800 -245 l 800 -339 q 800 -380 796 -404 q 792 -428 778 -441 l 778 -441 q 771 -448 761 -452 q 751 -456 737 -456 l 737 -456 q 722 -456 712 -451 q 702 -447 694 -439 l 694 -439 q 682 -425 679 -401 q 675 -377 675 -341 l 675 -341 l 675 -246 q 675 -168 659 -119 q 642 -70 606 -39 l 606 -39 q 579 -15 540 -1 q 501 12 453 12 l 453 12 q 396 12 352 -7 q 308 -27 278 -69 l 278 -69 l 302 -61 q 276 -34 252 -18 q 228 -2 200 5 q 172 12 137 12 l 137 12 q 100 12 70 5 q 39 -3 8 -20 l 8 -20 l 54 -132 q 74 -124 94 -118 q 113 -113 133 -113 l 133 -113 q 153 -113 165 -116 q 177 -120 186 -128 l 186 -128 q 200 -141 204 -163 q 208 -186 208 -227 l 208 -227 l 208 -569 l 375 -569 l 375 -226 q 375 -186 380 -163 q 384 -141 397 -129 l 397 -129 q 406 -121 416 -117 q 426 -113 440 -113 l 440 -113 q 454 -113 464 -117 q 474 -121 482 -128 l 482 -128 q 496 -141 501 -165 q 506 -189 506 -233 l 506 -233 l 506 -324 q 506 -377 513 -415 q 520 -453 534 -480 q 548 -507 569 -527 l 569 -527 q 598 -553 640 -567 q 681 -581 736 -581 l 736 -581 q 794 -581 836 -566 q 877 -552 905 -526 l 905 -526 q 926 -507 940 -480 q 954 -453 961 -415 q 968 -378 968 -323 l 968 -323 l 968 -229 q 968 -189 972 -165 q 976 -141 990 -128 l 990 -128 q 997 -121 1007 -117 q 1017 -113 1031 -113 l 1031 -113 q 1046 -113 1056 -117 q 1066 -122 1073 -130 l 1073 -130 q 1086 -144 1090 -168 q 1093 -192 1093 -227 l 1093 -227 l 1093 -324 q 1093 -377 1100 -415 q 1107 -453 1121 -480 q 1135 -507 1156 -527 l 1156 -527 q 1185 -553 1226 -567 q 1267 -581 1318 -581 z m 1821 -355 l 1821 -355 q 1821 -312 1810 -272 q 1798 -233 1777 -194 q 1755 -156 1725 -114 l 1725 -114 l 1716 -119 q 1733 -122 1755 -122 q 1776 -123 1798 -123 l 1798 -123 l 1866 -123 l 1866 -268 q 1866 -331 1856 -370 q 1846 -409 1826 -431 q 1805 -454 1773 -467 l 1773 -467 l 1773 -474 q 1796 -452 1809 -422 q 1821 -392 1821 -355 z"},"൹":{"ha":1092,"x_min":33,"x_max":1070,"o":"m 282 -581 l 282 -581 q 317 -581 347 -573 q 376 -566 405 -548 q 434 -531 464 -502 l 464 -502 l 521 -220 l 521 0 l 354 0 l 354 -340 q 354 -384 350 -406 q 346 -429 334 -442 l 334 -442 q 327 -448 317 -452 q 307 -456 294 -456 l 294 -456 q 273 -456 252 -441 q 230 -427 216 -393 q 202 -360 202 -303 l 202 -303 q 202 -259 211 -218 q 220 -177 237 -137 q 254 -98 278 -56 l 278 -56 l 143 13 q 108 -38 84 -88 q 59 -138 46 -191 q 33 -244 33 -304 l 33 -304 q 33 -382 61 -444 q 88 -507 144 -544 q 199 -581 282 -581 z m 648 -581 l 648 -581 q 729 -581 790 -553 q 850 -526 891 -478 q 932 -430 953 -368 q 973 -306 973 -235 l 973 -235 q 973 -147 948 -92 q 923 -38 875 -13 q 827 12 757 12 l 757 12 q 683 12 640 -13 q 597 -39 579 -79 q 561 -119 561 -163 l 561 -163 q 561 -217 585 -257 q 608 -297 649 -321 l 649 -321 q 673 -334 701 -342 q 728 -350 764 -354 q 799 -358 845 -358 l 845 -358 l 1070 -358 l 1070 -234 l 846 -234 q 801 -234 780 -229 q 759 -225 746 -216 l 746 -216 q 733 -207 728 -192 q 722 -178 722 -160 l 722 -160 q 722 -139 732 -125 q 741 -112 758 -112 l 758 -112 q 773 -112 785 -121 q 796 -130 803 -155 q 809 -180 809 -227 l 809 -227 q 809 -241 809 -254 q 809 -267 807 -280 l 807 -280 l 803 -315 q 795 -357 775 -388 q 755 -420 724 -437 q 693 -455 649 -455 l 649 -455 q 625 -455 605 -450 q 585 -445 567 -431 l 567 -431 q 550 -418 540 -399 q 530 -380 526 -350 q 521 -321 521 -279 l 521 -279 l 521 -183 l 429 -241 l 423 -486 q 445 -512 477 -533 q 508 -555 551 -568 q 594 -581 648 -581 z"},"ൺ":{"ha":1469,"x_min":32,"x_max":1438,"o":"m 360 -581 l 360 -581 q 438 -581 492 -558 q 546 -536 591 -481 l 591 -481 l 545 -498 q 576 -538 618 -559 q 660 -581 715 -581 l 715 -581 q 763 -581 804 -564 q 844 -547 880 -506 l 880 -506 l 891 -433 l 950 -225 l 950 0 l 783 0 l 783 -339 q 783 -382 778 -404 q 773 -427 759 -440 l 759 -440 q 751 -448 741 -452 q 730 -456 714 -456 l 714 -456 q 701 -456 690 -451 q 678 -447 670 -440 l 670 -440 q 657 -427 652 -404 q 646 -381 646 -335 l 646 -335 l 646 0 l 479 0 l 479 -292 q 479 -353 472 -384 q 464 -415 443 -432 l 443 -432 q 429 -444 409 -450 q 388 -457 358 -457 l 358 -457 q 312 -457 272 -434 q 231 -411 206 -363 q 181 -316 181 -241 l 181 -241 l 181 -236 q 181 -181 188 -153 q 195 -125 208 -116 q 220 -107 233 -107 l 233 -107 q 245 -107 254 -113 q 262 -119 267 -133 q 271 -148 271 -173 l 271 -173 q 271 -211 260 -226 q 248 -242 228 -242 l 228 -242 q 204 -242 184 -224 q 163 -206 130 -162 l 130 -162 l 105 -277 q 139 -311 181 -334 q 222 -357 274 -357 l 274 -357 q 327 -357 362 -334 q 397 -312 414 -272 q 431 -233 431 -183 l 431 -183 q 431 -121 410 -77 q 388 -33 345 -10 q 302 12 237 12 l 237 12 q 179 12 133 -13 q 86 -39 59 -95 q 32 -152 32 -246 l 32 -246 q 32 -356 75 -430 q 118 -505 192 -543 q 266 -581 360 -581 z m 1223 12 l 1223 12 q 1151 12 1104 -15 q 1056 -42 1033 -93 q 1010 -145 1010 -216 l 1010 -216 q 1010 -271 1025 -317 q 1039 -363 1068 -405 q 1097 -447 1139 -489 l 1139 -489 l 1168 -537 q 1190 -561 1207 -584 q 1223 -608 1223 -638 l 1223 -638 q 1223 -656 1212 -668 q 1200 -680 1177 -680 l 1177 -680 q 1164 -680 1152 -678 q 1139 -676 1126 -673 l 1126 -673 l 1100 -786 q 1127 -795 1160 -799 q 1192 -803 1223 -803 l 1223 -803 q 1290 -803 1325 -781 q 1360 -760 1374 -727 q 1387 -694 1387 -659 l 1387 -659 q 1387 -606 1361 -561 q 1335 -517 1289 -467 l 1289 -467 l 1263 -437 q 1240 -413 1220 -378 q 1200 -343 1188 -300 q 1176 -258 1176 -211 l 1176 -211 q 1176 -181 1180 -158 q 1183 -135 1194 -122 q 1204 -110 1224 -110 l 1224 -110 q 1247 -110 1259 -132 q 1270 -154 1270 -212 l 1270 -212 q 1270 -260 1261 -303 q 1252 -347 1235 -380 q 1218 -414 1191 -432 l 1191 -432 q 1171 -445 1148 -453 q 1124 -461 1085 -461 l 1085 -461 q 1054 -461 1032 -454 q 1010 -447 994 -434 l 994 -434 q 978 -421 969 -402 q 959 -384 955 -356 q 950 -329 950 -290 l 950 -290 l 950 -20 l 801 -20 l 801 -232 l 831 -468 q 856 -500 889 -525 q 922 -551 970 -566 q 1018 -581 1087 -581 l 1087 -581 q 1131 -581 1168 -573 q 1205 -566 1238 -551 l 1238 -551 q 1249 -547 1260 -542 q 1271 -537 1281 -531 l 1281 -531 q 1328 -503 1363 -457 q 1398 -412 1418 -352 q 1438 -293 1438 -225 l 1438 -225 q 1438 -111 1388 -49 q 1338 12 1223 12 z"},"ൻ":{"ha":1040,"x_min":33,"x_max":1010,"o":"m 280 -581 l 280 -581 q 314 -581 343 -574 q 371 -568 397 -552 q 423 -537 450 -511 l 450 -511 l 521 -250 l 521 0 l 354 0 l 354 -340 q 354 -384 350 -406 q 346 -429 334 -442 l 334 -442 q 327 -448 317 -452 q 307 -456 294 -456 l 294 -456 q 273 -456 252 -441 q 230 -427 216 -393 q 202 -360 202 -303 l 202 -303 q 202 -259 211 -218 q 220 -177 237 -137 q 254 -98 278 -56 l 278 -56 l 143 13 q 108 -38 84 -88 q 59 -138 46 -191 q 33 -244 33 -304 l 33 -304 q 33 -382 61 -444 q 88 -507 143 -544 q 198 -581 280 -581 z m 795 12 l 795 12 q 722 12 675 -15 q 628 -42 605 -93 q 582 -145 582 -216 l 582 -216 q 582 -271 597 -317 q 611 -363 640 -405 q 668 -447 710 -489 l 710 -489 l 739 -537 q 762 -561 778 -584 q 794 -608 794 -638 l 794 -638 q 794 -656 783 -668 q 772 -680 749 -680 l 749 -680 q 735 -680 723 -678 q 710 -676 698 -673 l 698 -673 l 671 -786 q 698 -795 731 -799 q 764 -803 794 -803 l 794 -803 q 861 -803 897 -781 q 932 -760 946 -727 q 959 -694 959 -659 l 959 -659 q 959 -606 933 -561 q 906 -517 861 -467 l 861 -467 l 834 -437 q 812 -413 792 -378 q 771 -343 759 -300 q 747 -258 747 -211 l 747 -211 q 747 -181 751 -158 q 754 -135 765 -122 q 776 -110 796 -110 l 796 -110 q 818 -110 830 -132 q 842 -154 842 -212 l 842 -212 q 842 -260 833 -303 q 824 -347 807 -380 q 789 -414 763 -432 l 763 -432 q 742 -445 719 -453 q 695 -461 657 -461 l 657 -461 q 626 -461 604 -454 q 581 -447 566 -434 l 566 -434 q 550 -421 540 -402 q 530 -384 526 -356 q 521 -329 521 -290 l 521 -290 l 521 -20 l 372 -20 l 372 -232 l 402 -468 q 428 -500 461 -525 q 494 -551 542 -566 q 589 -581 658 -581 l 658 -581 q 703 -581 740 -573 q 776 -566 810 -551 l 810 -551 q 820 -547 832 -542 q 843 -537 853 -531 l 853 -531 q 899 -503 935 -457 q 970 -412 990 -352 q 1010 -293 1010 -225 l 1010 -225 q 1010 -111 960 -49 q 909 12 795 12 z"},"ർ":{"ha":735,"x_min":33,"x_max":705,"o":"m 490 12 l 490 12 q 417 12 370 -15 q 323 -42 300 -93 q 277 -145 277 -216 l 277 -216 q 277 -271 292 -317 q 306 -363 335 -405 q 363 -447 405 -489 l 405 -489 l 434 -537 q 457 -561 473 -584 q 489 -608 489 -638 l 489 -638 q 489 -656 478 -668 q 467 -680 444 -680 l 444 -680 q 430 -680 418 -678 q 405 -676 393 -673 l 393 -673 l 366 -786 q 393 -795 426 -799 q 459 -803 489 -803 l 489 -803 q 556 -803 592 -781 q 627 -760 641 -727 q 654 -694 654 -659 l 654 -659 q 654 -606 628 -561 q 601 -517 556 -467 l 556 -467 l 529 -437 q 507 -413 487 -378 q 466 -343 454 -300 q 442 -258 442 -211 l 442 -211 q 442 -181 446 -158 q 449 -135 460 -122 q 471 -110 491 -110 l 491 -110 q 513 -110 525 -132 q 537 -154 537 -212 l 537 -212 q 537 -248 532 -281 q 527 -315 517 -344 q 507 -373 492 -396 q 477 -419 458 -432 l 458 -432 q 437 -445 417 -452 q 396 -460 364 -460 l 364 -460 q 314 -460 278 -440 q 242 -421 223 -383 q 204 -346 204 -291 l 204 -291 q 204 -245 214 -206 q 223 -167 241 -130 q 259 -93 284 -56 l 284 -56 l 154 14 q 118 -25 91 -70 q 64 -115 49 -170 q 33 -226 33 -294 l 33 -294 q 33 -345 49 -396 q 65 -447 103 -489 q 140 -531 202 -556 q 264 -581 356 -581 l 356 -581 q 399 -581 435 -573 q 471 -566 505 -551 l 505 -551 q 515 -547 527 -542 q 538 -537 548 -531 l 548 -531 q 594 -503 630 -457 q 665 -412 685 -352 q 705 -293 705 -225 l 705 -225 q 705 -111 655 -49 q 604 12 490 12 z"},"ൽ":{"ha":1200,"x_min":33,"x_max":1169,"o":"m 728 -581 l 728 -581 q 772 -581 810 -576 q 848 -572 884 -563 q 919 -555 951 -541 l 951 -541 l 993 -525 q 1078 -478 1124 -401 q 1169 -325 1169 -223 l 1169 -223 q 1169 -110 1119 -49 q 1069 12 954 12 l 954 12 q 882 12 835 -15 q 787 -42 764 -93 q 741 -145 741 -216 l 741 -216 q 741 -271 756 -317 q 770 -363 799 -405 q 828 -447 870 -489 l 870 -489 l 899 -537 q 921 -561 938 -584 q 954 -608 954 -638 l 954 -638 q 954 -656 943 -668 q 931 -680 908 -680 l 908 -680 q 894 -680 882 -678 q 870 -676 857 -673 l 857 -673 l 831 -786 q 858 -795 891 -799 q 923 -803 954 -803 l 954 -803 q 1021 -803 1056 -781 q 1091 -760 1105 -727 q 1118 -694 1118 -659 l 1118 -659 q 1118 -606 1092 -561 q 1066 -517 1020 -467 l 1020 -467 l 994 -437 q 971 -413 951 -378 q 931 -343 919 -300 q 907 -258 907 -211 l 907 -211 q 907 -181 910 -158 q 913 -135 924 -122 q 935 -110 955 -110 l 955 -110 q 977 -110 989 -131 q 1001 -153 1001 -209 l 1001 -209 q 1001 -252 992 -291 q 983 -330 964 -362 q 944 -394 912 -416 l 912 -416 l 878 -429 q 848 -443 812 -450 q 775 -457 730 -457 l 730 -457 q 689 -457 653 -450 q 616 -443 587 -432 l 587 -432 l 554 -423 q 502 -393 476 -337 q 450 -282 450 -219 l 450 -219 q 450 -178 457 -154 q 463 -131 474 -121 q 485 -112 499 -112 l 499 -112 q 513 -112 524 -121 q 535 -130 542 -154 q 549 -178 549 -222 l 549 -222 q 549 -272 537 -315 q 524 -359 502 -391 q 480 -424 452 -440 l 452 -440 l 429 -449 q 414 -455 397 -458 q 379 -461 363 -461 l 363 -461 q 304 -461 269 -438 q 233 -416 218 -376 q 202 -337 202 -288 l 202 -288 q 202 -246 212 -207 q 221 -169 239 -132 q 257 -95 281 -57 l 281 -57 l 152 12 q 118 -27 91 -72 q 64 -118 49 -172 q 33 -227 33 -295 l 33 -295 q 33 -340 48 -390 q 62 -440 98 -483 q 133 -527 195 -554 q 257 -581 352 -581 l 352 -581 q 410 -581 459 -568 q 508 -556 552 -529 l 552 -529 l 573 -494 q 643 -449 679 -387 q 715 -325 715 -221 l 715 -221 q 715 -142 690 -90 q 665 -39 618 -13 q 570 12 499 12 l 499 12 q 430 12 382 -15 q 334 -43 309 -95 q 284 -147 284 -221 l 284 -221 q 284 -277 301 -325 q 317 -374 350 -414 q 383 -454 432 -483 l 432 -483 l 476 -529 q 528 -557 591 -569 q 654 -581 728 -581 z"},"ൾ":{"ha":1023,"x_min":33,"x_max":992,"o":"m 780 -803 l 780 -803 q 847 -803 882 -781 q 916 -760 929 -727 q 942 -694 942 -659 l 942 -659 q 942 -606 916 -561 q 889 -517 844 -467 l 844 -467 l 817 -437 q 794 -413 774 -378 q 754 -343 742 -300 q 730 -258 730 -211 l 730 -211 q 730 -181 734 -158 q 737 -135 748 -122 q 758 -110 778 -110 l 778 -110 q 801 -110 813 -132 q 825 -154 825 -212 l 825 -212 q 825 -248 820 -281 q 815 -315 805 -344 q 795 -373 780 -396 q 765 -419 746 -432 l 746 -432 q 725 -445 703 -452 q 681 -460 649 -460 l 649 -460 q 619 -460 597 -452 q 574 -445 557 -432 l 557 -432 q 534 -413 524 -379 q 513 -346 513 -283 l 513 -283 l 513 -243 q 513 -192 507 -153 q 500 -115 486 -87 q 471 -60 447 -39 l 447 -39 q 418 -13 378 0 q 338 12 281 12 l 281 12 q 199 12 144 -23 q 89 -58 61 -120 q 33 -182 33 -264 l 33 -264 q 33 -327 47 -380 q 60 -434 85 -483 q 110 -532 144 -582 l 144 -582 l 279 -513 q 255 -470 238 -431 q 221 -393 212 -352 q 202 -312 202 -265 l 202 -265 q 202 -208 214 -174 q 225 -141 244 -127 q 263 -113 284 -113 l 284 -113 q 298 -113 308 -117 q 318 -121 325 -129 l 325 -129 q 338 -142 342 -162 q 345 -183 345 -218 l 345 -218 l 345 -299 q 345 -387 370 -443 q 395 -499 447 -533 l 447 -533 q 483 -557 531 -569 q 579 -581 641 -581 l 641 -581 q 691 -581 725 -573 q 759 -566 793 -551 l 793 -551 l 836 -531 q 882 -503 918 -457 q 953 -412 973 -352 q 992 -293 992 -225 l 992 -225 q 992 -111 942 -49 q 892 12 777 12 l 777 12 q 705 12 658 -15 q 610 -42 588 -93 q 565 -145 565 -216 l 565 -216 q 565 -271 580 -317 q 594 -363 623 -405 q 651 -447 693 -489 l 693 -489 l 722 -537 q 745 -561 761 -584 q 777 -608 777 -638 l 777 -638 q 777 -656 766 -668 q 755 -680 731 -680 l 731 -680 q 718 -680 706 -678 q 693 -676 681 -673 l 681 -673 l 654 -786 q 681 -795 715 -799 q 749 -803 780 -803 z"},"ൿ":{"ha":1206,"x_min":26,"x_max":1179,"o":"m 511 -581 l 511 -581 q 601 -581 656 -545 q 710 -510 735 -444 q 760 -379 760 -287 l 760 -287 q 760 -187 732 -120 q 704 -53 649 -20 q 594 12 512 12 l 512 12 q 444 12 398 -9 q 351 -31 321 -74 l 321 -74 q 291 -113 277 -168 q 262 -223 262 -292 l 262 -292 q 262 -433 325 -507 q 388 -581 511 -581 z m 511 -457 l 511 -457 q 465 -457 446 -417 q 427 -377 427 -283 l 427 -283 q 427 -224 436 -186 q 444 -148 463 -130 q 481 -112 512 -112 l 512 -112 q 541 -112 559 -129 q 577 -147 586 -185 q 595 -224 595 -286 l 595 -286 q 595 -347 587 -384 q 578 -422 560 -439 q 541 -457 511 -457 z m 221 12 l 221 12 q 127 12 77 -34 q 26 -81 26 -164 l 26 -164 q 26 -221 50 -258 q 74 -296 114 -318 l 114 -318 q 141 -332 173 -341 q 205 -350 246 -353 q 287 -357 342 -357 l 342 -357 l 911 -357 q 978 -357 1027 -345 q 1076 -334 1111 -308 l 1111 -308 q 1142 -286 1161 -250 q 1179 -214 1179 -164 l 1179 -164 q 1179 -86 1134 -37 q 1088 12 989 12 l 989 12 q 887 12 840 -38 q 792 -88 792 -163 l 792 -163 q 792 -194 800 -223 q 807 -252 820 -285 l 820 -285 q 825 -295 827 -306 q 828 -318 833 -330 l 833 -330 q 845 -358 860 -390 q 875 -422 894 -459 l 894 -459 q 920 -511 935 -543 q 949 -576 955 -597 q 961 -619 961 -636 l 961 -636 q 961 -655 950 -667 q 939 -680 916 -680 l 916 -680 q 901 -680 889 -678 q 877 -676 864 -673 l 864 -673 l 838 -786 q 865 -795 897 -799 q 929 -803 959 -803 l 959 -803 q 1026 -803 1062 -781 q 1097 -760 1111 -726 q 1125 -693 1125 -658 l 1125 -658 q 1125 -633 1120 -608 q 1115 -583 1105 -554 q 1095 -526 1079 -491 q 1062 -457 1039 -413 l 1039 -413 q 1022 -378 1011 -353 q 999 -329 989 -308 l 989 -308 q 985 -297 982 -286 q 979 -276 975 -266 l 975 -266 q 962 -235 955 -212 q 948 -189 948 -167 l 948 -167 q 948 -152 952 -139 q 955 -126 964 -119 q 973 -112 987 -112 l 987 -112 q 1005 -112 1014 -124 q 1022 -136 1022 -159 l 1022 -159 q 1022 -179 1016 -192 q 1010 -206 999 -214 l 999 -214 q 985 -225 963 -229 q 940 -233 901 -233 l 901 -233 l 296 -233 q 261 -233 241 -228 q 220 -224 207 -215 l 207 -215 q 195 -207 189 -195 q 182 -183 182 -167 l 182 -167 q 182 -150 188 -137 q 194 -124 208 -117 q 221 -111 241 -111 l 241 -111 q 266 -111 287 -121 q 308 -131 327 -149 l 327 -149 l 396 -40 q 368 -21 341 -9 q 313 2 284 7 q 255 12 221 12 z"},"!":{"ha":307,"x_min":56,"x_max":251,"o":"m 227 -252 l 80 -252 l 56 -714 l 251 -714 l 227 -252 z m 153 12 l 153 12 q 110 12 84 -12 q 57 -36 57 -81 l 57 -81 q 57 -128 83 -152 q 108 -176 153 -176 l 153 -176 q 196 -176 222 -152 q 247 -128 247 -81 l 247 -81 q 247 -36 221 -12 q 195 12 153 12 z"},"\"":{"ha":510,"x_min":58,"x_max":452,"o":"m 208 -542 l 78 -542 l 58 -800 l 228 -800 l 208 -542 z m 432 -542 l 302 -542 l 282 -800 l 452 -800 l 432 -542 z"},"#":{"ha":607,"x_min":31,"x_max":577,"o":"m 197 0 l 76 0 l 112 -192 l 31 -192 l 31 -307 l 134 -307 l 153 -406 l 57 -406 l 57 -522 l 175 -522 l 211 -714 l 332 -714 l 295 -522 l 373 -522 l 410 -714 l 531 -714 l 494 -522 l 577 -522 l 577 -406 l 473 -406 l 454 -307 l 551 -307 l 551 -192 l 432 -192 l 396 0 l 275 0 l 311 -192 l 233 -192 l 197 0 z m 274 -406 l 255 -307 l 333 -307 l 352 -406 l 274 -406 z"},"%":{"ha":873,"x_min":28,"x_max":844,"o":"m 338 0 l 210 0 l 535 -714 l 662 -714 l 338 0 z m 191 -276 l 191 -276 q 114 -276 71 -336 q 28 -396 28 -500 l 28 -500 q 28 -607 70 -665 q 112 -724 195 -724 l 195 -724 q 274 -724 316 -665 q 358 -606 358 -501 l 358 -501 q 358 -393 317 -334 q 275 -276 191 -276 z m 193 -389 l 193 -389 q 212 -389 220 -414 q 227 -439 227 -500 l 227 -500 q 227 -560 220 -585 q 212 -611 193 -611 l 193 -611 q 176 -611 168 -585 q 160 -560 160 -501 l 160 -501 q 160 -441 168 -415 q 176 -389 193 -389 z m 677 9 l 677 9 q 600 9 557 -51 q 514 -111 514 -215 l 514 -215 q 514 -323 556 -381 q 598 -439 681 -439 l 681 -439 q 760 -439 802 -380 q 844 -321 844 -216 l 844 -216 q 844 -109 803 -50 q 761 9 677 9 z m 684 -104 l 684 -104 q 702 -104 710 -129 q 717 -155 717 -215 l 717 -215 q 717 -275 710 -300 q 702 -326 684 -326 l 684 -326 q 666 -326 658 -300 q 650 -275 650 -216 l 650 -216 q 650 -157 658 -130 q 666 -104 684 -104 z"},"'":{"ha":286,"x_min":58,"x_max":228,"o":"m 208 -542 l 78 -542 l 58 -800 l 228 -800 l 208 -542 z"},"(":{"ha":373,"x_min":45,"x_max":346,"o":"m 45 -279 l 45 -279 q 45 -377 62 -468 q 78 -560 111 -643 q 144 -727 192 -800 l 192 -800 l 346 -800 q 301 -718 271 -634 q 240 -551 224 -463 q 208 -375 208 -279 l 208 -279 q 208 -183 224 -94 q 240 -5 271 79 q 301 162 346 244 l 346 244 l 192 244 q 144 170 111 87 q 78 3 62 -89 q 45 -181 45 -279 z"},")":{"ha":372,"x_min":26,"x_max":328,"o":"m 328 -277 l 328 -277 q 328 -180 312 -88 q 295 3 263 87 q 230 170 181 244 l 181 244 l 26 244 q 71 162 102 79 q 132 -5 148 -93 q 164 -182 164 -277 l 164 -277 q 164 -374 148 -462 q 132 -551 102 -634 q 71 -718 26 -800 l 26 -800 l 181 -800 q 230 -727 263 -643 q 295 -559 312 -467 q 328 -376 328 -277 z"},"*":{"ha":551,"x_min":35,"x_max":515,"o":"m 203 -800 l 347 -800 l 329 -633 l 498 -681 l 515 -541 l 366 -531 l 465 -399 l 341 -334 l 273 -468 l 215 -335 l 86 -399 l 184 -531 l 35 -543 l 57 -681 l 222 -633 l 203 -800 z"},"+":{"ha":519,"x_min":35,"x_max":483,"o":"m 325 -110 l 193 -110 l 193 -288 l 35 -288 l 35 -417 l 193 -417 l 193 -597 l 325 -597 l 325 -417 l 483 -417 l 483 -288 l 325 -288 l 325 -110 z"},",":{"ha":296,"x_min":33,"x_max":240,"o":"m 73 -146 l 234 -146 l 240 -135 q 232 -86 221 -36 q 210 13 197 58 q 184 102 169 139 l 169 139 l 33 139 q 41 97 49 46 q 57 -6 64 -57 q 70 -108 73 -146 l 73 -146 z"},"-":{"ha":341,"x_min":36,"x_max":305,"o":"m 305 -195 l 36 -195 l 36 -342 l 305 -342 l 305 -195 z"},".":{"ha":295,"x_min":52,"x_max":242,"o":"m 149 12 l 149 12 q 106 12 79 -12 q 52 -36 52 -81 l 52 -81 q 52 -128 78 -152 q 104 -176 149 -176 l 149 -176 q 192 -176 217 -152 q 242 -128 242 -81 l 242 -81 q 242 -36 217 -12 q 191 12 149 12 z"},"/":{"ha":452,"x_min":17,"x_max":435,"o":"m 171 244 l 17 244 l 281 -800 l 435 -800 l 171 244 z"},":":{"ha":295,"x_min":53,"x_max":242,"o":"m 149 12 l 149 12 q 106 12 80 -12 q 53 -36 53 -81 l 53 -81 q 53 -128 79 -152 q 104 -176 149 -176 l 149 -176 q 192 -176 217 -152 q 242 -128 242 -81 l 242 -81 q 242 -36 217 -12 q 192 12 149 12 z m 149 -376 l 149 -376 q 106 -376 80 -400 q 53 -424 53 -469 l 53 -469 q 53 -516 79 -539 q 104 -563 149 -563 l 149 -563 q 192 -563 217 -539 q 242 -516 242 -469 l 242 -469 q 242 -424 217 -400 q 192 -376 149 -376 z"},";":{"ha":296,"x_min":33,"x_max":244,"o":"m 74 -146 l 235 -146 l 241 -135 q 233 -86 222 -36 q 211 13 198 58 q 184 102 169 139 l 169 139 l 33 139 q 42 97 50 46 q 58 -6 64 -56 q 70 -107 74 -146 l 74 -146 z m 151 -376 l 151 -376 q 108 -376 81 -400 q 54 -424 54 -469 l 54 -469 q 54 -516 80 -539 q 106 -563 151 -563 l 151 -563 q 194 -563 219 -539 q 244 -516 244 -469 l 244 -469 q 244 -424 219 -400 q 193 -376 151 -376 z"},"<":{"ha":519,"x_min":35,"x_max":483,"o":"m 483 -251 l 483 -107 l 35 -312 l 35 -401 l 483 -615 l 483 -471 l 223 -358 l 483 -251 z"},"=":{"ha":519,"x_min":35,"x_max":483,"o":"m 483 -177 l 35 -177 l 35 -306 l 483 -306 l 483 -177 z m 483 -399 l 35 -399 l 35 -528 l 483 -528 l 483 -399 z"},">":{"ha":519,"x_min":36,"x_max":484,"o":"m 484 -313 l 36 -107 l 36 -251 l 295 -359 l 36 -470 l 36 -615 l 484 -401 l 484 -313 z"},"?":{"ha":462,"x_min":31,"x_max":440,"o":"m 230 -724 l 230 -724 q 333 -724 387 -675 q 440 -627 440 -549 l 440 -549 q 440 -508 429 -474 q 417 -440 393 -410 q 369 -380 332 -349 l 332 -349 q 311 -332 300 -318 q 289 -305 285 -292 q 281 -280 281 -266 l 281 -266 l 281 -252 l 140 -252 l 140 -279 q 140 -314 147 -340 q 153 -366 168 -387 q 183 -408 210 -430 l 210 -430 q 232 -449 247 -464 q 261 -479 268 -493 q 275 -508 275 -526 l 275 -526 q 275 -552 258 -565 q 241 -579 209 -579 l 209 -579 q 181 -579 151 -568 q 120 -557 92 -543 l 92 -543 l 31 -668 q 79 -695 128 -709 q 176 -724 230 -724 z m 213 12 l 213 12 q 170 12 144 -12 q 117 -36 117 -81 l 117 -81 q 117 -128 143 -152 q 169 -176 213 -176 l 213 -176 q 256 -176 282 -152 q 307 -128 307 -81 l 307 -81 q 307 -36 282 -12 q 256 12 213 12 z"},"[":{"ha":354,"x_min":65,"x_max":319,"o":"m 319 244 l 65 244 l 65 -800 l 319 -800 l 319 -676 l 216 -676 l 216 120 l 319 120 l 319 244 z"},"\\":{"ha":452,"x_min":17,"x_max":435,"o":"m 435 244 l 281 244 l 17 -800 l 171 -800 l 435 244 z"},"]":{"ha":354,"x_min":35,"x_max":289,"o":"m 289 244 l 35 244 l 35 120 l 138 120 l 138 -676 l 35 -676 l 35 -800 l 289 -800 l 289 244 z"},"^":{"ha":519,"x_min":12,"x_max":507,"o":"m 157 -283 l 12 -283 l 213 -714 l 296 -714 l 507 -283 l 361 -283 l 256 -510 l 157 -283 z"},"_":{"ha":400,"x_min":-2,"x_max":402,"o":"m 402 162 l -2 162 l -2 90 l 402 90 l 402 162 z"},"{":{"ha":427,"x_min":24,"x_max":391,"o":"m 391 109 l 391 244 q 291 244 238 227 q 184 209 164 172 q 144 134 144 76 l 144 76 l 144 -122 q 144 -167 117 -184 q 90 -202 24 -205 l 24 -205 l 24 -352 q 90 -355 117 -372 q 144 -390 144 -435 l 144 -435 l 144 -632 q 144 -691 164 -728 q 184 -765 238 -782 q 291 -800 391 -800 l 391 -800 l 391 -665 q 338 -665 318 -652 q 298 -640 298 -605 l 298 -605 l 298 -406 q 298 -349 268 -320 q 238 -291 181 -282 l 181 -282 l 181 -276 q 238 -267 268 -238 q 298 -209 298 -152 l 298 -152 l 298 49 q 298 72 307 85 q 315 98 336 104 q 356 109 391 109 l 391 109 z"},"|":{"ha":551,"x_min":210,"x_max":341,"o":"m 341 244 l 210 244 l 210 -800 l 341 -800 l 341 244 z"},"}":{"ha":427,"x_min":35,"x_max":403,"o":"m 35 -665 l 35 -800 q 136 -800 190 -782 q 243 -765 263 -728 q 283 -691 283 -632 l 283 -632 l 283 -434 q 283 -389 310 -371 q 337 -354 403 -351 l 403 -351 l 403 -205 q 337 -202 310 -184 q 283 -167 283 -122 l 283 -122 l 283 76 q 283 134 263 172 q 243 209 190 227 q 136 244 35 244 l 35 244 l 35 109 q 88 109 108 96 q 128 83 128 49 l 128 49 l 128 -151 q 128 -208 158 -237 q 188 -266 245 -275 l 245 -275 l 245 -281 q 188 -290 158 -319 q 128 -348 128 -405 l 128 -405 l 128 -605 q 128 -628 120 -641 q 111 -654 91 -659 q 71 -665 35 -665 l 35 -665 z"},"~":{"ha":519,"x_min":35,"x_max":483,"o":"m 242 -290 l 242 -290 q 212 -304 190 -310 q 167 -317 143 -317 l 143 -317 q 115 -317 88 -300 q 60 -284 35 -258 l 35 -258 l 35 -393 q 60 -420 88 -433 q 116 -446 152 -446 l 152 -446 q 181 -446 211 -438 q 241 -430 276 -415 l 276 -415 q 306 -401 330 -394 q 353 -388 376 -388 l 376 -388 q 403 -388 431 -404 q 459 -421 483 -447 l 483 -447 l 483 -312 q 459 -285 431 -272 q 402 -259 366 -259 l 366 -259 q 337 -259 308 -266 q 279 -274 242 -290 z"}," ":{"ha":247,"x_min":0,"x_max":0,"o":""},"­":{"ha":341,"x_min":36,"x_max":305,"o":"m 305 -195 l 36 -195 l 36 -342 l 305 -342 l 305 -195 z"},"–":{"ha":500,"x_min":39,"x_max":461,"o":"m 461 -203 l 39 -203 l 39 -335 l 461 -335 l 461 -203 z"},"—":{"ha":1000,"x_min":39,"x_max":961,"o":"m 961 -203 l 39 -203 l 39 -335 l 961 -335 l 961 -203 z"},"‘":{"ha":286,"x_min":39,"x_max":247,"o":"m 206 -515 l 45 -515 l 39 -526 q 48 -575 59 -624 q 69 -673 83 -718 q 97 -764 111 -800 l 111 -800 l 247 -800 q 238 -758 230 -706 q 222 -654 216 -603 q 210 -553 206 -515 l 206 -515 z"},"’":{"ha":285,"x_min":39,"x_max":246,"o":"m 79 -800 l 240 -800 l 246 -789 q 238 -740 227 -691 q 216 -642 203 -597 q 190 -552 175 -515 l 175 -515 l 39 -515 q 45 -543 52 -581 q 58 -619 63 -659 q 68 -700 73 -737 q 77 -774 79 -800 l 79 -800 z"},"“":{"ha":521,"x_min":39,"x_max":482,"o":"m 442 -515 l 282 -515 l 276 -526 q 284 -575 295 -624 q 306 -673 320 -718 q 333 -764 347 -800 l 347 -800 l 482 -800 q 474 -756 466 -706 q 457 -656 451 -606 q 445 -557 442 -515 l 442 -515 z m 206 -515 l 45 -515 l 39 -526 q 48 -575 59 -624 q 69 -673 83 -718 q 97 -764 111 -800 l 111 -800 l 247 -800 q 238 -758 230 -706 q 222 -654 216 -603 q 210 -553 206 -515 l 206 -515 z"},"”":{"ha":521,"x_min":39,"x_max":482,"o":"m 316 -800 l 476 -800 l 482 -789 q 474 -740 463 -691 q 452 -642 439 -597 q 426 -552 410 -515 l 410 -515 l 275 -515 q 285 -563 293 -612 q 300 -661 306 -708 q 312 -756 316 -800 l 316 -800 z m 79 -800 l 240 -800 l 246 -789 q 238 -740 227 -691 q 216 -642 203 -597 q 190 -552 175 -515 l 175 -515 l 39 -515 q 45 -543 51 -581 q 57 -619 63 -659 q 68 -700 73 -737 q 77 -774 79 -800 l 79 -800 z"},"…":{"ha":853,"x_min":52,"x_max":801,"o":"m 148 12 l 148 12 q 105 12 79 -12 q 52 -36 52 -81 l 52 -81 q 52 -128 78 -152 q 104 -176 148 -176 l 148 -176 q 191 -176 217 -152 q 242 -128 242 -81 l 242 -81 q 242 -36 217 -12 q 191 12 148 12 z m 427 12 l 427 12 q 384 12 358 -12 q 331 -36 331 -81 l 331 -81 q 331 -128 357 -152 q 383 -176 427 -176 l 427 -176 q 471 -176 496 -152 q 521 -128 521 -81 l 521 -81 q 521 -36 496 -12 q 470 12 427 12 z m 707 12 l 707 12 q 664 12 638 -12 q 611 -36 611 -81 l 611 -81 q 611 -128 637 -152 q 663 -176 707 -176 l 707 -176 q 750 -176 776 -152 q 801 -128 801 -81 l 801 -81 q 801 -36 776 -12 q 750 12 707 12 z"},"×":{"ha":519,"x_min":36,"x_max":482,"o":"m 258 -441 l 391 -574 l 482 -483 l 348 -352 l 482 -221 l 391 -130 l 258 -263 l 127 -130 l 36 -221 l 169 -352 l 36 -483 l 127 -574 l 258 -441 z"},"÷":{"ha":519,"x_min":35,"x_max":483,"o":"m 483 -288 l 35 -288 l 35 -417 l 483 -417 l 483 -288 z m 259 -72 l 259 -72 q 224 -72 202 -93 q 180 -115 180 -157 l 180 -157 q 180 -200 201 -221 q 222 -242 259 -242 l 259 -242 q 295 -242 316 -221 q 337 -200 337 -157 l 337 -157 q 337 -116 316 -94 q 295 -72 259 -72 z m 259 -463 l 259 -463 q 224 -463 202 -484 q 180 -506 180 -548 l 180 -548 q 180 -591 201 -612 q 222 -633 259 -633 l 259 -633 q 295 -633 316 -612 q 337 -591 337 -548 l 337 -548 q 337 -507 316 -485 q 295 -463 259 -463 z"},"−":{"ha":519,"x_min":35,"x_max":483,"o":"m 483 -288 l 35 -288 l 35 -417 l 483 -417 l 483 -288 z"},"₹":{"ha":519,"x_min":45,"x_max":477,"o":"m 380 0 l 191 0 l 46 -241 l 64 -350 l 88 -350 q 121 -350 141 -355 q 161 -360 172 -371 l 172 -371 q 188 -386 194 -408 q 200 -431 200 -475 l 200 -475 q 200 -511 194 -536 q 187 -561 168 -577 l 168 -577 q 157 -586 141 -590 q 124 -595 95 -595 l 95 -595 l 45 -595 l 45 -714 l 477 -714 l 477 -595 l 309 -595 q 329 -580 344 -548 q 359 -516 359 -472 l 359 -472 q 359 -404 343 -360 q 327 -317 292 -291 q 256 -265 199 -251 l 199 -251 l 198 -272 l 380 0 z m 477 -410 l 45 -410 l 45 -533 l 477 -533 l 477 -410 z"},"꠰":{"ha":280,"x_min":57,"x_max":223,"o":"m 57 0 l 57 -569 l 223 -569 l 223 0 l 57 0 z"},"꠱":{"ha":493,"x_min":57,"x_max":436,"o":"m 57 0 l 57 -569 l 219 -569 l 219 0 l 57 0 z m 273 0 l 273 -569 l 436 -569 l 436 0 l 273 0 z"},"꠲":{"ha":706,"x_min":57,"x_max":649,"o":"m 57 0 l 57 -569 l 218 -569 l 218 0 l 57 0 z m 272 0 l 272 -569 l 433 -569 l 433 0 l 272 0 z m 487 0 l 487 -569 l 649 -569 l 649 0 l 487 0 z"},"॑":{"ha":0,"x_min":-333,"x_max":-225,"o":"m -333 -648 l -333 -864 l -225 -864 l -225 -648 l -333 -648 z"},"॒":{"ha":0,"x_min":-503,"x_max":-55,"o":"m -55 81 l -55 183 l -503 183 l -503 81 l -55 81 z"},"।":{"ha":343,"x_min":116,"x_max":285,"o":"m 285 49 l 116 49 l 116 -610 l 285 -610 l 285 49 z"},"॥":{"ha":603,"x_min":115,"x_max":546,"o":"m 546 49 l 376 49 l 376 -610 l 546 -610 l 546 49 z m 285 49 l 115 49 l 115 -610 l 285 -610 l 285 49 z"},"᳚":{"ha":0,"x_min":-393,"x_max":-163,"o":"m -393 -648 l -393 -864 l -301 -864 l -301 -648 l -393 -648 z m -256 -648 l -256 -864 l -163 -864 l -163 -648 l -256 -648 z"},"̇":{"ha":0,"x_min":-322,"x_max":-141,"o":"m -322 -700 l -322 -700 q -322 -751 -295 -768 q -269 -785 -231 -785 l -231 -785 q -195 -785 -168 -768 q -141 -751 -141 -700 l -141 -700 q -141 -651 -168 -633 q -195 -616 -232 -616 l -232 -616 q -269 -616 -295 -633 q -322 -651 -322 -700 z"},"̣":{"ha":0,"x_min":-323,"x_max":-141,"o":"m -323 137 l -323 137 q -323 86 -296 69 q -269 52 -232 52 l -232 52 q -196 52 -168 69 q -141 86 -141 137 l -141 137 q -141 186 -168 204 q -196 221 -233 221 l -233 221 q -269 221 -296 204 q -323 186 -323 137 z"},"‐":{"ha":341,"x_min":36,"x_max":305,"o":"m 305 -195 l 36 -195 l 36 -342 l 305 -342 l 305 -195 z"},"​":{"ha":0,"x_min":0,"x_max":0,"o":""},"‌":{"ha":0,"x_min":0,"x_max":0,"o":""},"‍":{"ha":0,"x_min":-161,"x_max":161,"o":"m 29 244 l -29 244 l -29 -565 l -121 -474 l -161 -514 l -40 -631 l -161 -748 l -121 -788 l 0 -669 l 121 -788 l 161 -748 l 40 -631 l 161 -514 l 121 -474 l 29 -565 l 29 244 z"},"◌":{"ha":562,"x_min":58,"x_max":505,"o":"m 90 -231 l 90 -231 q 58 -231 58 -264 l 58 -264 q 58 -295 90 -295 l 90 -295 q 122 -295 122 -264 l 122 -264 q 122 -231 90 -231 z m 139 -95 l 139 -95 q 107 -95 107 -127 l 107 -127 q 107 -158 139 -158 l 139 -158 q 170 -158 170 -127 l 170 -127 q 170 -95 139 -95 z m 282 -40 l 282 -40 q 250 -40 250 -72 l 250 -72 q 250 -104 282 -104 l 282 -104 q 313 -104 313 -72 l 313 -72 q 313 -40 282 -40 z m 139 -369 l 139 -369 q 107 -369 107 -401 l 107 -401 q 107 -432 139 -432 l 139 -432 q 170 -432 170 -401 l 170 -401 q 170 -369 139 -369 z m 424 -95 l 424 -95 q 392 -95 392 -127 l 392 -127 q 392 -158 424 -158 l 424 -158 q 456 -158 456 -127 l 456 -127 q 456 -95 424 -95 z m 282 -424 l 282 -424 q 250 -424 250 -456 l 250 -456 q 250 -487 282 -487 l 282 -487 q 313 -487 313 -456 l 313 -456 q 313 -424 282 -424 z m 473 -231 l 473 -231 q 442 -231 442 -264 l 442 -264 q 442 -295 473 -295 l 473 -295 q 505 -295 505 -264 l 505 -264 q 505 -231 473 -231 z m 424 -369 l 424 -369 q 392 -369 392 -401 l 392 -401 q 392 -432 424 -432 l 424 -432 q 456 -432 456 -401 l 456 -401 q 456 -369 424 -369 z"},"«":{"ha":596,"x_min":26,"x_max":566,"o":"m 26 -273 l 26 -287 l 192 -520 l 315 -455 l 204 -280 l 315 -106 l 192 -41 l 26 -273 z m 278 -273 l 278 -287 l 443 -520 l 566 -455 l 456 -280 l 566 -106 l 443 -41 l 278 -273 z"},"»":{"ha":596,"x_min":30,"x_max":570,"o":"m 570 -287 l 570 -273 l 405 -41 l 281 -106 l 392 -280 l 281 -455 l 405 -520 l 570 -287 z m 318 -287 l 318 -273 l 153 -41 l 30 -106 l 140 -280 l 30 -455 l 153 -520 l 318 -287 z"},"̈":{"ha":0,"x_min":-179,"x_max":178,"o":"m -179 -690 l -179 -690 q -179 -728 -158 -747 q -137 -767 -104 -767 l -104 -767 q -70 -767 -49 -746 q -28 -726 -28 -690 l -28 -690 q -28 -655 -49 -634 q -70 -614 -104 -614 l -104 -614 q -137 -614 -158 -633 q -179 -653 -179 -690 z m 27 -690 l 27 -690 q 27 -728 48 -747 q 69 -767 102 -767 l 102 -767 q 137 -767 158 -746 q 179 -726 179 -690 l 179 -690 q 179 -655 158 -634 q 137 -614 102 -614 l 102 -614 q 68 -614 48 -634 q 27 -654 27 -690 z"},"̀":{"ha":0,"x_min":-456,"x_max":-173,"o":"m -456 -766 l -266 -766 q -254 -746 -236 -717 q -219 -689 -201 -662 q -184 -635 -173 -620 l -173 -620 l -173 -606 l -294 -606 q -308 -618 -330 -637 q -353 -657 -377 -679 q -401 -702 -422 -722 q -444 -743 -456 -756 l -456 -756 l -456 -766 z"},"́":{"ha":0,"x_min":-370,"x_max":-87,"o":"m -87 -766 l -87 -756 q -99 -743 -118 -724 q -138 -705 -161 -684 q -184 -663 -206 -643 q -229 -623 -249 -606 l -249 -606 l -370 -606 l -370 -620 q -354 -645 -337 -670 q -320 -695 -304 -719 q -289 -744 -277 -766 l -277 -766 l -87 -766 z"},"̋":{"ha":0,"x_min":-153,"x_max":275,"o":"m 275 -766 l 275 -756 q 268 -742 251 -722 q 234 -703 212 -681 q 190 -660 167 -640 q 144 -620 126 -606 l 126 -606 l 39 -606 l 39 -620 q 55 -651 71 -678 q 87 -706 99 -728 q 111 -751 118 -766 l 118 -766 l 275 -766 z m 82 -766 l 82 -756 q 75 -742 58 -722 q 41 -703 20 -682 q -2 -661 -26 -641 q -50 -622 -70 -606 l -70 -606 l -153 -606 l -153 -620 q -136 -652 -121 -679 q -106 -706 -93 -728 q -81 -751 -74 -766 l -74 -766 l 82 -766 z"},"̄":{"ha":0,"x_min":-158,"x_max":157,"o":"m -158 -732 l 156 -732 l 156 -617 l -158 -617 l -158 -732 z"},"˙":{"ha":261,"x_min":40,"x_max":221,"o":"m 130 -776 l 130 -776 q 174 -776 198 -756 q 221 -736 221 -691 l 221 -691 q 221 -647 197 -627 q 173 -607 130 -607 l 130 -607 q 88 -607 64 -627 q 40 -647 40 -691 l 40 -691 q 40 -736 63 -756 q 86 -776 130 -776 z"},"°":{"ha":378,"x_min":23,"x_max":355,"o":"m 189 -401 l 189 -401 q 141 -401 104 -421 q 67 -442 45 -478 q 23 -515 23 -562 l 23 -562 q 23 -610 45 -646 q 66 -683 104 -703 q 141 -724 189 -724 l 189 -724 q 237 -724 274 -703 q 311 -683 333 -646 q 355 -610 355 -562 l 355 -562 q 355 -515 333 -478 q 311 -442 274 -421 q 237 -401 189 -401 z m 189 -502 l 189 -502 q 218 -502 234 -518 q 250 -534 250 -562 l 250 -562 q 250 -591 234 -607 q 218 -624 189 -624 l 189 -624 q 160 -624 144 -607 q 128 -591 128 -562 l 128 -562 q 128 -534 144 -518 q 160 -502 189 -502 z"},"A":{"ha":620,"x_min":0,"x_max":620,"o":"m 620 0 l 429 0 l 399 -138 l 222 -138 l 192 0 l 0 0 l 192 -715 l 426 -715 l 620 0 z m 369 -287 l 340 -434 q 335 -459 330 -487 q 324 -515 319 -543 q 314 -571 310 -592 l 310 -592 q 308 -571 304 -544 q 299 -518 293 -490 q 287 -462 282 -436 l 282 -436 l 252 -287 l 369 -287 z"},"Á":{"ha":620,"x_min":0,"x_max":620,"o":"m 620 0 l 429 0 l 399 -138 l 222 -138 l 192 0 l 0 0 l 192 -715 l 426 -715 l 620 0 z m 369 -287 l 340 -434 q 335 -459 330 -487 q 324 -515 319 -543 q 314 -571 310 -592 l 310 -592 q 308 -571 304 -544 q 299 -518 293 -490 q 287 -462 282 -436 l 282 -436 l 252 -287 l 369 -287 z m 494 -927 l 494 -917 q 482 -904 463 -885 q 443 -866 420 -845 q 397 -824 375 -804 q 352 -784 332 -767 l 332 -767 l 211 -767 l 211 -781 q 227 -806 244 -831 q 261 -856 277 -880 q 292 -905 304 -927 l 304 -927 l 494 -927 z"},"Ă":{"ha":620,"x_min":0,"x_max":620,"o":"m 620 0 l 429 0 l 399 -138 l 222 -138 l 192 0 l 0 0 l 192 -715 l 426 -715 l 620 0 z m 369 -287 l 340 -434 q 335 -459 330 -487 q 324 -515 319 -543 q 314 -571 310 -592 l 310 -592 q 308 -571 304 -544 q 299 -518 293 -490 q 287 -462 282 -436 l 282 -436 l 252 -287 l 369 -287 z m 382 -948 l 481 -948 q 480 -893 458 -852 q 435 -811 397 -789 q 359 -767 309 -767 l 309 -767 q 233 -767 187 -813 q 141 -860 140 -948 l 140 -948 l 237 -948 q 241 -923 249 -908 q 257 -894 272 -887 q 287 -880 309 -880 l 309 -880 q 330 -880 345 -886 q 360 -893 370 -908 q 380 -923 382 -948 l 382 -948 z"}}}
